<?xml version="1.0" standalone="no"?>
<!DOCTYPE svg PUBLIC "-//W3C//DTD SVG 1.1//EN" "http://www.w3.org/Graphics/SVG/1.1/DTD/svg11.dtd" >
<svg>
<metadata>
Created by FontForge 20090914 at Fri Dec 11 19:27:59 2020
 By www-data
Copyright (c) 2010, 2011 by Daniel Johnson. Licensed under the terms of the SIL Open Font License.
</metadata>
<defs>
<font id="TriodPostnaja" horiz-adv-x="710" >
  <font-face 
    font-family="TriodPostnaja"
    font-weight="500"
    font-stretch="normal"
    units-per-em="1024"
    panose-1="2 0 6 3 0 0 0 0 0 0"
    ascent="819"
    descent="-205"
    x-height="511.997"
    cap-height="717"
    bbox="-466 -298.004 1278 1033"
    underline-thickness="51"
    underline-position="-102"
    unicode-range="U+0020-U+0491"
  />
<missing-glyph horiz-adv-x="374" 
d="M34 0v682h272v-682h-272zM68 34h204v614h-204v-614z" />
    <glyph glyph-name=".notdef" horiz-adv-x="374" 
d="M34 0v682h272v-682h-272zM68 34h204v614h-204v-614z" />
    <glyph glyph-name="space" unicode=" " horiz-adv-x="307" 
 />
    <glyph glyph-name="exclam" unicode="!" horiz-adv-x="268" 
d="M80 717h111l-20 -553h-71zM100 0c-6.66699 0 -10 3.33301 -10 10v72c0 6.66699 3.33301 10 10 10h71c6.66699 0 10 -3.33301 10 -10v-72c0 -6.66699 -3.33301 -10 -10 -10h-71z" />
    <glyph glyph-name="quotedbl" unicode="&#x22;" horiz-adv-x="352" 
d="M57 717h86l-20 -205h-45zM209 717h86l-21 -205h-45z" />
    <glyph glyph-name="numbersign" unicode="#" horiz-adv-x="443" 
d="M178 717h43l-22 -164h100l23 164h43l-23 -164h51v-104h-65l-25 -181h51v-104h-65l-23 -164h-43l23 164h-101l-22 -164h-43l22 164h-51v104h66l24 181h-51v104h66zM160 268h100l25 181h-101z" />
    <glyph glyph-name="dollar" unicode="$" horiz-adv-x="570" 
d="M266 702l39 0.00292969v-73c58.667 -2.66699 102 -21.334 130 -56.001s42 -74.334 42 -119.001c0 -9.33301 -16.333 -14 -49 -14c-13.333 0 -25.5 1.33301 -36.5 4s-16.5 6 -16.5 10c0 93.333 -23.333 143.333 -70 150v-242c72 0 124.167 -14.833 156.5 -44.5
s48.5 -68.834 48.5 -117.501c0 -62 -16.333 -112.5 -49 -151.5s-76.667 -58.5 -132 -58.5c-8.66699 0 -16.667 1 -24 3v-65h-39v85c-2 1.33301 -6.33301 4.5 -13 9.5s-11.5 8.33301 -14.5 10l-13.5 7.5c-6 3.33301 -11.667 5.5 -17 6.5s-11 1.5 -17 1.5s-18 -11.667 -36 -35
s-31 -35 -39 -35c-13.333 0 -27.5 7.33301 -42.5 22s-22.5 30.667 -22.5 48c0 8 9 23.5 27 46.5s33.333 34.5 46 34.5c12 0 24.833 -3.16699 38.5 -9.5s25 -12.833 34 -19.5s21.167 -16.334 36.5 -29.001l33 -27v295c-52 2.66699 -92.167 16.667 -120.5 42
s-42.5 57 -42.5 95c0 53.333 13.5 91.333 40.5 114s67.833 35.334 122.5 38.001v74zM266 371.003l0.000976562 230.001c-40 -14.667 -60 -56.667 -60 -126c0 -21.333 5.16699 -41.833 15.5 -61.5s25.166 -33.834 44.499 -42.501zM305.001 337.004v-317c10 -4 20 -6 30 -6
c19.333 0 36.333 15.833 51 47.5s22 70.167 22 115.5c0 96.667 -34.333 150 -103 160z" />
    <glyph glyph-name="percent" unicode="%" horiz-adv-x="776" 
d="M604 657l50 -18l-504 -580l-51 19zM125 502c0 -32.667 6.16699 -60.334 18.5 -83.001s27.166 -34 44.499 -34s32.333 11.333 45 34s19 50.334 19 83.001s-6.33301 60.167 -19 82.5s-27.667 33.5 -45 33.5s-32.166 -11.167 -44.499 -33.5s-18.5 -49.833 -18.5 -82.5z
M45 502c0 39.333 14 73 42 101s61.667 42 101 42s73.166 -14 101.499 -42s42.5 -61.667 42.5 -101s-14.167 -73.166 -42.5 -101.499s-62.166 -42.5 -101.499 -42.5s-73 14.167 -101 42.5s-42 62.166 -42 101.499zM524 215c0 -32.667 6.33301 -60.334 19 -83.001
s27.667 -34 45 -34s32.166 11.333 44.499 34s18.5 50.334 18.5 83.001s-6.16699 60.334 -18.5 83.001s-27.166 34 -44.499 34s-32.333 -11.333 -45 -34s-19 -50.334 -19 -83.001zM444 215c0 39.333 14.167 73 42.5 101s62.166 42 101.499 42s73 -14 101 -42
s42 -61.667 42 -101s-14 -73 -42 -101s-61.667 -42 -101 -42s-73.166 14 -101.499 42s-42.5 61.667 -42.5 101z" />
    <glyph glyph-name="ampersand" unicode="&#x26;" horiz-adv-x="569" 
d="M271 248c-42.667 0 -72.665 -10.166 -89.998 -30.499s-26 -48.833 -26 -85.5c0 -37.333 6.66699 -66.166 20 -86.499s30 -30.5 50 -30.5c22 0 41.833 3.83301 59.5 11.5s31.834 16.334 42.501 26.001s25.667 18.334 45 26.001s41.333 11.5 66 11.5
c13.333 0 28 -6.5 44 -19.5s24 -23.833 24 -32.5c0 -14.667 -7.5 -28 -22.5 -40s-29.167 -18 -42.5 -18c-8 0 -20.333 8.5 -37 25.5s-28 25.5 -34 25.5c-9.33301 0 -17.833 -1.5 -25.5 -4.5s-16.167 -7.33301 -25.5 -13s-17.333 -9.83398 -24 -12.501v-73h-47v63
c-1.33301 0 -4 -0.166992 -8 -0.5s-7 -0.5 -9 -0.5c-119.333 0 -179 46.667 -179 140c0 64.667 41 109 123 133c-28.667 8.66699 -50.834 24.167 -66.501 46.5s-23.5 46.833 -23.5 73.5c0 88 54.333 134.667 163 140v61h47v-61c56 -4 97.5 -21.333 124.5 -52
s40.5 -66.334 40.5 -107.001c0 -8 -17.333 -12 -52 -12c-34 0 -51 4 -51 12c0 49.333 -6.66699 84.333 -20 105s-35.333 31 -66 31c-26 0 -46.5 -8.5 -61.5 -25.5s-22.5 -42.5 -22.5 -76.5c0 -32.667 8 -60.834 24 -84.501s40.333 -35.5 73 -35.5
c18.667 0 34.167 1.16699 46.5 3.5s21.166 4.66602 26.499 6.99902s9 3.5 11 3.5c6 0 14 -3.66699 24 -11s15 -13 15 -17s-5.16699 -10.167 -15.5 -18.5s-17.5 -12.5 -21.5 -12.5s-14.833 2.5 -32.5 7.5s-39.834 7.5 -66.501 7.5z" />
    <glyph glyph-name="quotesingle" unicode="'" horiz-adv-x="200" 
d="M57 717h86l-20 -205h-45z" />
    <glyph glyph-name="parenleft" unicode="(" horiz-adv-x="345" 
d="M285 702c-27.333 0 -52 -32.5 -74 -97.5s-33 -147.167 -33 -246.5c0 -100 11 -182.333 33 -247s46.667 -97 74 -97v-24c-62 0 -114 34.833 -156 104.5s-63 157.5 -63 263.5s21 194 63 264s94 105 156 105v-25z" />
    <glyph glyph-name="parenright" unicode=")" horiz-adv-x="342" 
d="M56 14c27.333 0 52 32.5 74 97.5s33 147.167 33 246.5c0 100 -11 182.333 -33 247s-46.667 97 -74 97v25c62 0 114 -35 156 -105s63 -158 63 -264s-21 -193.833 -63 -263.5s-94 -104.5 -156 -104.5v24z" />
    <glyph glyph-name="asterisk" unicode="*" horiz-adv-x="565" 
d="M45 513l27 82l188 -83l-20 205h86l-21 -205l189 83l26 -82l-201 -44l137 -154l-70 -50l-103 177l-104 -177l-69 50l136 154z" />
    <glyph glyph-name="plus" unicode="+" horiz-adv-x="413" 
d="M227 326v-128h-55v128h-128v55h128v128h55v-128h128v-55h-128z" />
    <glyph glyph-name="comma" unicode="," horiz-adv-x="192" 
d="M146 72c0 -33.333 -5.83398 -66.002 -17.501 -98.002s-22.167 -54.667 -31.5 -68s-17.666 -23.666 -24.999 -30.999h-25c15.333 34 23 64.333 23 91c0 8 -4.16699 25.333 -12.5 52s-12.5 51.334 -12.5 74.001c0 6.66699 3.33301 10 10 10h81
c6.66699 0 10 -3.33301 10 -10v-20z" />
    <glyph glyph-name="hyphen" unicode="-" horiz-adv-x="359" 
d="M33 381h270v-55h-270v55z" />
    <glyph glyph-name="period" unicode="." horiz-adv-x="191" 
d="M55 0c-6.66699 0 -10 3.33301 -10 10v82c0 6.66699 3.33301 10 10 10h81c6.66699 0 10 -3.33301 10 -10v-82c0 -6.66699 -3.33301 -10 -10 -10h-81z" />
    <glyph glyph-name="slash" unicode="/" horiz-adv-x="428" 
d="M314 717h54l-277 -717h-53z" />
    <glyph glyph-name="zero" unicode="0" horiz-adv-x="662" 
d="M330 703c-28.667 0 -52.334 -7.83203 -71.001 -23.499s-32.667 -39.667 -42 -72s-15.833 -67.833 -19.5 -106.5s-5.5 -86.334 -5.5 -143.001c0 -45.333 1 -84.333 3 -117s6 -64 12 -94s14 -54.333 24 -73s23.333 -33.334 40 -44.001s36.334 -16 59.001 -16
c28 0 51.333 7.83301 70 23.5s32.834 39.667 42.501 72s16.334 67.833 20.001 106.5s5.5 86.334 5.5 143.001s-1.83301 104.5 -5.5 143.5s-10.334 74.5 -20.001 106.5s-23.834 55.667 -42.501 71s-42 23 -70 23zM330 728.001c89.333 0 156 -33.502 200 -100.502
s66 -156.833 66 -269.5s-22 -202.167 -66 -268.5s-110.667 -99.5 -200 -99.5s-156 33.333 -200 100s-66 156.334 -66 269.001s22 202.334 66 269.001s110.667 100 200 100z" />
    <glyph glyph-name="one" unicode="1" horiz-adv-x="379" 
d="M254 717v-629c0 -29.333 3.66699 -47.333 11 -54s27.333 -10 60 -10v-24h-264v24c32.667 0 52.667 3.33301 60 10s11 24.667 11 54v540c0 29.333 -3.66699 47.5 -11 54.5s-27.333 10.5 -60 10.5v24h193z" />
    <glyph glyph-name="two" unicode="2" horiz-adv-x="611" 
d="M542 0h-463v115c0 40 3.83301 74.333 11.5 103s18.167 51 31.5 67s28.5 29.167 45.5 39.5s34.833 18 53.5 23s37.334 9.66699 56.001 14s36.5 9.83301 53.5 16.5s32.167 15.834 45.5 27.501s23.833 28.334 31.5 50.001s11.5 48.5 11.5 80.5c0 46.667 -10.333 86 -31 118
s-46.334 48 -77.001 48c-38 0 -65.667 -15 -83 -45s-26 -78.333 -26 -145c0 -9.33301 -20.667 -14 -62 -14c-40 0 -60 4.66699 -60 14c0 26.667 4.16699 52.334 12.5 77.001s21 47.5 38 68.5s41 37.833 72 50.5s67.167 19 108.5 19c74 0 130.667 -18.5 170 -55.5
s59 -89.167 59 -156.5c0 -34.667 -3.83301 -63.334 -11.5 -86.001s-18 -39.334 -31 -50.001s-28 -18.667 -45 -24s-35 -9 -54 -11s-37.833 -4.5 -56.5 -7.5s-36.5 -9.16699 -53.5 -18.5s-32 -22.333 -45 -39s-23.333 -40.834 -31 -72.501s-11.5 -70.5 -11.5 -116.5v-65h141
c29.333 0 57 18 83 54s39 70.333 39 103h24c0 -25.333 4.66699 -51.333 14 -78c8 -26 16.667 -45.667 26 -59l14 -20v-25z" />
    <glyph glyph-name="three" unicode="3" horiz-adv-x="644" 
d="M312 378c-33.333 0 -61.001 -4.33398 -83.001 -13.001s-35.333 -13 -40 -13c-5.33301 0 -14.333 5.66699 -27 17s-19 19.333 -19 24c0 5.33301 6.16699 12.833 18.5 22.5s22.5 14.5 30.5 14.5c2 0 6.5 -2 13.5 -6s18.167 -8 33.5 -12s34.666 -6 57.999 -6
c40.667 0 71.334 15 92.001 45s31 66 31 108c0 44.667 -9.83301 79.667 -29.5 105s-45.5 38 -77.5 38c-38 0 -65.833 -15.167 -83.5 -45.5s-26.5 -78.5 -26.5 -144.5c0 -9.33301 -20.333 -14 -61 -14s-61 4.66699 -61 14c0 26.667 4.16699 52.334 12.5 77.001
s21.166 47.5 38.499 68.5s41.5 37.833 72.5 50.5s67.167 19 108.5 19c76.667 0 133.834 -15 171.501 -45s56.5 -77.667 56.5 -143c0 -74 -36.333 -123 -109 -147c52 -16 90 -42.5 114 -79.5s36 -77.833 36 -122.5c0 -66.667 -18.833 -116.667 -56.5 -150
s-92.167 -50 -163.5 -50c-31.333 0 -58.333 7.16699 -81 21.5s-45 21.5 -67 21.5c-8 0 -22.167 -9.66699 -42.5 -29s-35.5 -29 -45.5 -29c-16.667 0 -34.167 8.16699 -52.5 24.5s-27.5 34.166 -27.5 53.499c0 8 10 21.667 30 41s38 29 54 29s33.167 -5.33301 51.5 -16
s35 -22.167 50 -34.5s34.833 -23.833 59.5 -34.5s51 -16 79 -16c24.667 0 45.834 15.833 63.501 47.5s26.5 72.834 26.5 123.501c0 52 -11.667 95.833 -35 131.5s-61 53.5 -113 53.5z" />
    <glyph glyph-name="four" unicode="4" horiz-adv-x="626" 
d="M50 215c0 1.33301 3.33398 13 10.001 35s14.667 50.667 24 86s18.666 73.5 27.999 114.5s17.333 85.667 24 134s10 92.5 10 132.5h125c0 -96.667 -28.667 -259.667 -86 -489h186v489h122v-489h50v-24h-50v-116c0 -29.333 3.5 -47.333 10.5 -54s26.833 -10 59.5 -10v-24
h-263v24c32.667 0 52.667 3.33301 60 10s11 24.667 11 54v116h-304c-11.333 0 -17 3.66699 -17 11z" />
    <glyph glyph-name="five" unicode="5" horiz-adv-x="672" 
d="M224 692l0.000976562 -251.004h123c46 0 86 -6.83301 120 -20.5s60.167 -31.667 78.5 -54s31.666 -45.666 39.999 -69.999s12.5 -49.833 12.5 -76.5c0 -69.333 -19.333 -125 -58 -167s-92.667 -63 -162 -63c-32 0 -59.333 7.16699 -82 21.5s-44.667 21.5 -66 21.5
c-8 0 -22.167 -9.66699 -42.5 -29s-35.5 -29 -45.5 -29c-16.667 0 -34.167 8.16699 -52.5 24.5s-27.5 34.166 -27.5 53.499c0 8 10 21.667 30 41s38 29 54 29s33.167 -5.33301 51.5 -16s35 -22.167 50 -34.5s34.833 -23.833 59.5 -34.5s51 -16 79 -16c24 0 45 16.333 63 49
s27 74.334 27 125.001c0 25.333 -2.5 49.833 -7.5 73.5s-13.167 46.834 -24.5 69.501s-28 40.834 -50 54.501s-48 20.5 -78 20.5h-213v303h478v-25c-4 -5.33301 -9 -12.666 -15 -21.999s-14 -27.833 -24 -55.5s-15 -54.167 -15 -79.5h-24c0 36 -11.333 71.167 -34 105.5
s-52 51.5 -88 51.5h-157z" />
    <glyph glyph-name="six" unicode="6" horiz-adv-x="640" 
d="M323 419c80.667 0 141.665 -20.166 182.998 -60.499s62 -91.833 62 -154.5s-20.667 -114 -62 -154s-102.333 -60 -183 -60s-142 20.167 -184 60.5s-63 91.833 -63 154.5c0 173.333 35.167 303.666 105.5 390.999s178.833 131 325.5 131v-25
c-88 0 -155.667 -24.833 -203 -74.5s-78.666 -125.5 -93.999 -227.5c36.667 12.667 74.334 19 113.001 19zM197.998 204.001c0 -64 8.5 -111.667 25.5 -143s50.167 -47 99.5 -47c48.667 0 81.334 15.833 98.001 47.5s25 79.5 25 143.5s-8.33301 111.5 -25 142.5
s-49.334 46.5 -98.001 46.5s-81.667 -15.667 -99 -47s-26 -79 -26 -143z" />
    <glyph glyph-name="seven" unicode="7" horiz-adv-x="550" 
d="M490 717v-25h-1l-107 -309h61v-25h-69l-124 -358h-139l127 358h-68v25h76l109 309h-128c-36 0 -65.333 -17.167 -88 -51.5s-34 -69.5 -34 -105.5h-24c0 25.333 -4.33301 51 -13 77c-8 26.667 -16.667 46.667 -26 60l-14 20v25h462z" />
    <glyph glyph-name="eight" unicode="8" horiz-adv-x="618" 
d="M313 727c73.333 0 130.171 -15.666 170.504 -46.999s60.5 -71.333 60.5 -120c0 -36 -11.5 -67.5 -34.5 -94.5s-56.167 -46.5 -99.5 -58.5c49.333 -14.667 86.5 -40.167 111.5 -76.5s37.5 -78.5 37.5 -126.5c0 -62 -20.833 -113.167 -62.5 -153.5
s-102.834 -60.5 -183.501 -60.5s-141.834 20.167 -183.501 60.5s-62.5 91.833 -62.5 154.5c0 47.333 12.667 89.166 38 125.499s62.666 61.833 111.999 76.5c-44 12 -77.5 31.5 -100.5 58.5s-34.5 58.833 -34.5 95.5c0 48.667 20.167 88.5 60.5 119.5
s97.166 46.5 170.499 46.5zM313.005 702.001c-44.667 0 -74 -11 -88 -33s-21 -58.333 -21 -109s7 -86.834 21 -108.501s43.333 -32.5 88 -32.5c44 0 73.167 11 87.5 33s21.5 58.333 21.5 109s-7.16699 86.834 -21.5 108.501s-43.5 32.5 -87.5 32.5zM313.005 394.001
c-48.667 0 -81.667 -15.667 -99 -47s-26 -79 -26 -143s8.5 -111.667 25.5 -143s50.167 -47 99.5 -47c48.667 0 81.5 15.833 98.5 47.5s25.5 79.5 25.5 143.5s-8.5 111.5 -25.5 142.5s-49.833 46.5 -98.5 46.5z" />
    <glyph glyph-name="nine" unicode="9" horiz-adv-x="601" 
d="M301 298c-80.667 0 -141.832 20.166 -183.499 60.499s-62.5 91.833 -62.5 154.5c0 62 20.833 113.167 62.5 153.5s102.834 60.5 183.501 60.5s142 -20.167 184 -60.5s63 -91.833 63 -154.5c0 -173.333 -35.167 -303.666 -105.5 -390.999s-178.833 -131 -325.5 -131v24
c88 0 155.667 24.833 203 74.5s78.666 125.5 93.999 227.5c-34.667 -12 -72.334 -18 -113.001 -18zM426.002 512.999c0 64 -8.5 111.5 -25.5 142.5s-50.167 46.5 -99.5 46.5c-48.667 0 -81.5 -15.667 -98.5 -47s-25.5 -79 -25.5 -143s8.5 -111.5 25.5 -142.5
s49.833 -46.5 98.5 -46.5s81.667 15.667 99 47s26 79 26 143z" />
    <glyph glyph-name="colon" unicode=":" horiz-adv-x="221" 
d="M55 20c-6.66699 0 -10 3.33301 -10 10v82c0 6.66699 3.33301 10 10 10h81c6.66699 0 10 -3.33301 10 -10v-82c0 -6.66699 -3.33301 -10 -10 -10h-81zM55 307c-6.66699 0 -10 3.33301 -10 10v82c0 6.66699 3.33301 10 10 10h81c6.66699 0 10 -3.33301 10 -10v-82
c0 -6.66699 -3.33301 -10 -10 -10h-81z" />
    <glyph glyph-name="semicolon" unicode=";" horiz-adv-x="227" 
d="M146 92c0 -33.333 -5.83398 -66.002 -17.501 -98.002s-22.167 -54.667 -31.5 -68s-17.666 -23.666 -24.999 -30.999h-25c15.333 34 23 64.333 23 91c0 8 -4.16699 25.333 -12.5 52s-12.5 51.334 -12.5 74.001c0 6.66699 3.33301 10 10 10h81
c6.66699 0 10 -3.33301 10 -10v-20zM54.999 306.998c-6.66699 0 -10 3.33301 -10 10v82c0 6.66699 3.33301 10 10 10h81c6.66699 0 10 -3.33301 10 -10v-82c0 -6.66699 -3.33301 -10 -10 -10h-81z" />
    <glyph glyph-name="less" unicode="&#x3c;" horiz-adv-x="347" 
d="M306 92l-58 -57l-207 241l207 242l58 -57l-214 -185z" />
    <glyph glyph-name="equal" unicode="=" horiz-adv-x="504" 
d="M52 319h391v-55h-391v55zM52 453h391v-56h-391v56z" />
    <glyph glyph-name="greater" unicode="&#x3e;" horiz-adv-x="347" 
d="M41 461l58 57l207 -242l-207 -241l-58 57l214 184z" />
    <glyph glyph-name="question" unicode="?" horiz-adv-x="486" 
d="M151 0c-2.66699 0 -5.16699 1 -7.5 3s-3.5 4.33301 -3.5 7v72c0 2.66699 1.16699 5 3.5 7s4.83301 3 7.5 3h70c6.66699 0 10 -3.33301 10 -10v-72c0 -6.66699 -3.33301 -10 -10 -10h-70zM126 181c0 56.667 9.66797 101.668 29.001 135.001s56.666 66.666 111.999 99.999
c30.667 18.667 46 68.667 46 150c0 37.333 -6.66699 69.333 -20 96s-32 40 -56 40c-30 0 -51.333 -9.33301 -64 -28s-19 -49.334 -19 -92.001c0 -8 -18 -12 -54 -12c-32.667 0 -49 4 -49 12c0 39.333 15.167 73.333 45.5 102s77.166 43 140.499 43
c60.667 0 108.834 -14.333 144.501 -43s53.5 -67.667 53.5 -117c0 -54 -37.667 -104.333 -113 -151c-30 -19.333 -50 -45.166 -60 -77.499s-15 -84.833 -15 -157.5h-121z" />
    <glyph glyph-name="at" unicode="@" horiz-adv-x="823" 
d="M474 -10l-50.998 0.00195312c-101.333 0 -187.833 30.667 -259.5 92s-107.5 135.666 -107.5 222.999c0 62 18.333 117.333 55 166s82.5 85 137.5 109s113.167 36 174.5 36c94.667 0 175.667 -28.333 243 -85s101 -132 101 -226c0 -25.333 -1 -47.5 -3 -66.5
s-6.66699 -38.833 -14 -59.5s-17.166 -37.667 -29.499 -51s-29.5 -24.333 -51.5 -33s-48.333 -13 -79 -13c-46.667 0 -79.334 6.5 -98.001 19.5s-30.334 30.5 -35.001 52.5l-10 43c-32 -34.667 -73.667 -52 -125 -52c-30.667 0 -52.334 8.16699 -65.001 24.5
s-19 35.166 -19 56.499c0 60.667 53.667 130.334 161 209.001l-15 77h68c10 0 16 -4 18 -12l70 -346c5.33301 -32 23.333 -48 54 -48c26 0 44 16.667 54 50s15 83 15 149c0 73.333 -22 139.5 -66 198.5s-102 88.5 -174 88.5c-72.667 0 -134.5 -30 -185.5 -90
s-76.5 -125.667 -76.5 -197c0 -80.667 25.667 -149.334 77 -206.001s113 -85 185 -85h51v-24zM441.002 227.002l-38 189.001c-59.333 -44.667 -89 -90.334 -89 -137.001c0 -18.667 5.33301 -36.5 16 -53.5s27 -25.5 49 -25.5c27.333 0 48 9 62 27z" />
    <glyph glyph-name="A" unicode="A" horiz-adv-x="661" 
d="M529 88c0 -29.333 3.66699 -47.335 11 -54.002s27.333 -10 60 -10v-24h-263v24c32.667 0 52.667 3.33301 60 10s11 24.667 11 54v289c-52.667 -76.667 -113 -115 -181 -115c26 -17.333 39 -41.666 39 -72.999c0 -37.333 -17.333 -63.666 -52 -78.999v-8
c0 -29.333 6.33301 -49.666 19 -60.999s34 -17 64 -17v-24h-236v24c30 0 51.167 5.66699 63.5 17s18.5 31.666 18.5 60.999v7c-16 6.66699 -29 17.167 -39 31.5s-15 30.5 -15 48.5c0 19.333 6 36.833 18 52.5s27 26.167 45 31.5c-43.333 15.333 -65 47.666 -65 96.999
c0 34 11.833 67.5 35.5 100.5s54.5 62.333 92.5 88s71.833 46.334 101.5 62.001s59.5 29.834 89.5 42.501c-2 13.333 -7.5 21.666 -16.5 24.999s-26.5 5 -52.5 5v24h263v-24c-32.667 0 -52.667 -3.5 -60 -10.5s-11 -25.167 -11 -54.5v-540zM408 423.998v204.001v4
c-20.667 -8 -40.667 -17.5 -60 -28.5s-40.833 -25.333 -64.5 -43s-42.667 -38.834 -57 -63.501s-21.5 -51 -21.5 -79c0 -62.667 26.667 -94 80 -94c34.667 0 75.667 33.333 123 100z" />
    <glyph glyph-name="B" unicode="B" horiz-adv-x="683" 
d="M132 88v541c0 29.333 -3.66699 47.333 -11 54s-27.333 10 -60 10v24h562v-24c-32.667 0 -52.667 -3.33301 -60 -10s-11 -24.667 -11 -54v-167c-74.667 0 -134.667 -6.5 -180 -19.5s-84.666 -37.833 -117.999 -74.5v-9c33.333 -36.667 72.666 -61.5 117.999 -74.5
s105.333 -19.5 180 -19.5v-177c0 -29.333 3.66699 -47.333 11 -54s27.333 -10 60 -10v-24h-562v24c32.667 0 52.667 3.33301 60 10s11 24.667 11 54zM430 241c-72.667 8.66699 -131.333 31.667 -176 69v-222c0 -29.333 3.66699 -47.333 11 -54s27.333 -10 60 -10h34
c32.667 0 52.667 3.33301 60 10s11 24.667 11 54v153zM254.001 417c44.667 37.333 103.333 60.333 176 69v143c0 29.333 -3.66699 47.333 -11 54s-27.333 10 -60 10h-34c-32.667 0 -52.667 -3.33301 -60 -10s-11 -24.667 -11 -54v-212z" />
    <glyph glyph-name="C" unicode="C" horiz-adv-x="701" 
d="M182 358c0 -57.333 1.83105 -105.168 5.49805 -143.501s10.167 -73.666 19.5 -105.999s23.333 -56.166 42 -71.499s42 -23 70 -23c46.667 0 80.334 15.167 101.001 45.5s31 75.5 31 135.5c0 29.333 -3.66699 47.5 -11 54.5s-27.333 10.5 -60 10.5v24h263v-24
c-6.66699 0 -12.5 -0.166992 -17.5 -0.5s-9.66699 -0.5 -14 -0.5s-7.83301 -0.666992 -10.5 -2s-5.16699 -2.33301 -7.5 -3s-4.33301 -2.33398 -6 -5.00098s-3 -4.66699 -4 -6s-2 -4.16602 -3 -8.49902s-1.83301 -7.66602 -2.5 -9.99902s-1.66699 -6.83301 -3 -13.5
s-2.33301 -12 -3 -16c-15.333 -72 -41.666 -124.167 -78.999 -156.5s-96 -48.5 -176 -48.5c-89.333 0 -155.5 33.167 -198.5 99.5s-64.5 156.166 -64.5 269.499c0 112.667 21.5 202.334 64.5 269.001s109.167 100 198.5 100c80.667 0 139.834 -16.333 177.501 -49
s63.5 -84.667 77.5 -156c6 -30.667 10.667 -48.334 14 -53.001c6.66699 -8 25.667 -12 57 -12v-24h-263v24c32.667 0 52.667 3.5 60 10.5s11 25.167 11 54.5c0 60 -10.333 105 -31 135s-54.334 45 -101.001 45c-28 0 -51.333 -7.83301 -70 -23.5s-32.667 -39.667 -42 -72
s-15.833 -67.833 -19.5 -106.5s-5.5 -86.334 -5.5 -143.001z" />
    <glyph glyph-name="D" unicode="D" horiz-adv-x="693" 
d="M254 628l-0.000976562 -540.002c0 -29.333 3.66699 -47.166 11 -53.499s27.333 -9.5 60 -9.5c52 0 94 29.5 126 88.5s48 134.833 48 227.5c0 112.667 -15.667 199.334 -47 260.001s-73.666 91 -126.999 91c-32.667 0 -52.667 -3.33301 -60 -10s-11 -24.667 -11 -54z
M324.999 716.998c108 0 185.333 -31.167 232 -93.5s70 -156.5 70 -282.5c0 -113.333 -23.5 -198.5 -70.5 -255.5s-124.167 -85.5 -231.5 -85.5h-264v24c32.667 0 52.667 3.33301 60 10s11 24.667 11 54v540c0 29.333 -3.66699 47.5 -11 54.5s-27.333 10.5 -60 10.5v24h264z
" />
    <glyph glyph-name="E" unicode="E" horiz-adv-x="720" 
d="M574 128l-24.0039 -43.999c-5.33301 -9.33301 -14.5 -21.333 -27.5 -36s-26.667 -25.334 -41 -32.001s-33.666 -12.667 -57.999 -18s-52.5 -8 -84.5 -8c-90 0 -158 33.5 -204 100.5s-69 156.5 -69 268.5c0 111.333 23 200.666 69 267.999s114 101 204 101
c32 0 60.167 -2.66699 84.5 -8s43.833 -11.5 58.5 -18.5s28.334 -17.5 41.001 -31.5s22 -26.167 28 -36.5s14 -25.166 24 -44.499c14.667 -29.333 41 -44 79 -44v-24h-263v24c33.333 0 55.166 3.66699 65.499 11s15.5 18.333 15.5 33c0 28 -11.167 54 -33.5 78
s-54.833 36 -97.5 36c-49.333 0 -85.166 -24 -107.499 -72s-35.166 -117.667 -38.499 -209c39.333 32 85 48 137 48c70 0 120.333 -6.5 151 -19.5s54.667 -37.5 72 -73.5c4.66699 -10.667 8.16699 -17.834 10.5 -21.501s6.83301 -10.167 13.5 -19.5s15 -16 25 -20
s21.667 -6 35 -6v-23h-263v23c25.333 0 44.5 2.33301 57.5 7s20.833 9.83398 23.5 15.501s4 13.834 4 24.501c0 18.667 -9.66699 37.667 -29 57s-52 29 -98 29c-52 0 -98.667 -20 -140 -60v-25c0 -113.333 10.833 -199 32.5 -257s59.834 -87 114.501 -87
c42.667 0 75.167 12 97.5 36s33.5 50 33.5 78c0 15.333 -5.16699 26.666 -15.5 33.999s-32.166 11 -65.499 11v24h263v-24c-38.667 0 -65.334 -15 -80.001 -45z" />
    <glyph glyph-name="F" unicode="F" horiz-adv-x="584" 
d="M325 0l-264 -0.000976562v24c32.667 0 52.667 3.33301 60 10s11 24.667 11 54v539c0 29.333 -3.66699 47.5 -11 54.5s-27.333 10.5 -60 10.5v25h463v-25c-4 -5.33301 -9 -12.666 -15 -21.999s-13.833 -27.833 -23.5 -55.5s-14.5 -54.167 -14.5 -79.5h-25
c0 36 -11.167 71.167 -33.5 105.5s-51.5 51.5 -87.5 51.5c-32.667 0 -52.667 -3.5 -60 -10.5s-11 -25.167 -11 -54.5v-256h199v-25h-199v-258c0 -29.333 3.66699 -47.333 11 -54s27.333 -10 60 -10v-24z" />
    <glyph glyph-name="G" unicode="G" horiz-adv-x="691" 
d="M451 523c0 60 -10.335 104.997 -31.002 134.997s-54.334 45 -101.001 45c-28 0 -51.333 -7.83301 -70 -23.5s-32.667 -39.667 -42 -72s-15.833 -67.833 -19.5 -106.5s-5.5 -86.334 -5.5 -143.001c0 -57.333 1.83301 -105.166 5.5 -143.499s10.167 -73.666 19.5 -105.999
s23.333 -56.166 42 -71.499s42 -23 70 -23c46.667 0 80.334 15.167 101.001 45.5s31 75.5 31 135.5c0 29.333 -3.66699 47.5 -11 54.5s-27.333 10.5 -60 10.5v24h263v-24c-6.66699 0 -12.5 -0.166992 -17.5 -0.5s-9.66699 -0.5 -14 -0.5s-7.83301 -0.666992 -10.5 -2
s-5.16699 -2.33301 -7.5 -3s-4.33301 -2.33398 -6 -5.00098s-3 -4.66699 -4 -6s-2 -4.16602 -3 -8.49902s-1.83301 -7.66602 -2.5 -9.99902s-1.66699 -6.83301 -3 -13.5s-2.33301 -12 -3 -16c-15.333 -72 -41.666 -124.167 -78.999 -156.5s-96 -48.5 -176 -48.5
c-89.333 0 -155.5 33.167 -198.5 99.5s-64.5 156.166 -64.5 269.499c0 112.667 21.5 202.334 64.5 269.001s109.167 100 198.5 100c80.667 0 139.834 -16.333 177.501 -49s63.5 -84.667 77.5 -156h-121z" />
    <glyph glyph-name="H" unicode="H" 
d="M579 88c0 -29.333 3.5 -47.333 10.5 -54s26.833 -10 59.5 -10v-24h-263v24c32.667 0 52.667 3.33301 60 10s11 24.667 11 54v259h-203v-259c0 -29.333 3.66699 -47.333 11 -54s27.333 -10 60 -10v-24h-264v24c32.667 0 52.667 3.33301 60 10s11 24.667 11 54v540
c0 29.333 -3.66699 47.5 -11 54.5s-27.333 10.5 -60 10.5v24h264v-24c-32.667 0 -52.667 -3.5 -60 -10.5s-11 -25.167 -11 -54.5v-256h203v256c0 29.333 -3.66699 47.5 -11 54.5s-27.333 10.5 -60 10.5v24h263v-24c-32 0 -51.667 -3.33301 -59 -10s-11 -25 -11 -55v-540z
" />
    <glyph glyph-name="I" unicode="I" horiz-adv-x="386" 
d="M254 88c0 -29.333 3.66699 -47.333 11 -54s27.333 -10 60 -10v-24h-264v24c32.667 0 52.667 3.33301 60 10s11 24.667 11 54v540c0 29.333 -3.66699 47.5 -11 54.5s-27.333 10.5 -60 10.5v24h264v-24c-32.667 0 -52.667 -3.5 -60 -10.5s-11 -25.167 -11 -54.5v-540z" />
    <glyph glyph-name="J" unicode="J" horiz-adv-x="696" 
d="M443 628c0 30 -3.66895 48.333 -11.002 55s-27 10 -59 10v24h263v-24c-32.667 0 -52.667 -3.5 -60 -10.5s-11 -25.167 -11 -54.5v-290c0 -66.667 -2.83301 -120.5 -8.5 -161.5s-16.667 -76.333 -33 -106s-39.166 -50.5 -68.499 -62.5s-67.333 -18 -114 -18
c-70.667 0 -124.667 16.667 -162 50s-63 85 -77 155c-0.666992 4 -1.66699 9.33301 -3 16s-2.16602 11.167 -2.49902 13.5s-1 5.66602 -2 9.99902s-2 7.16602 -3 8.49902s-2.33301 3.33301 -4 6s-3.66699 4.33398 -6 5.00098s-4.83301 1.66699 -7.5 3s-6.16699 2 -10.5 2
s-9 0.166992 -14 0.5s-10.833 0.5 -17.5 0.5v24h247v-24c-22.667 0 -37.5 -3.66699 -44.5 -11s-10.5 -25.333 -10.5 -54c0 -120.667 38.333 -181 115 -181c43.333 0 71.5 19.833 84.5 59.5s19.5 111.834 19.5 216.501v338z" />
    <glyph glyph-name="K" unicode="K" horiz-adv-x="709" 
d="M132 628c0 29.333 -3.66699 47.4941 -11 54.4941s-27.333 10.5 -60 10.5v24h264v-24c-32.667 0 -52.667 -3.5 -60 -10.5s-11 -25.167 -11 -54.5v-257h8c60.667 0 108.334 26.667 143.001 80s52 112.333 52 177c0 29.333 -3.66699 47.5 -11 54.5s-27.333 10.5 -60 10.5v24
h263v-24c-6.66699 0 -12.5 -0.166992 -17.5 -0.5s-9.66699 -0.5 -14 -0.5s-7.83301 -0.666992 -10.5 -2s-5.16699 -2.33301 -7.5 -3s-4.33301 -2.33398 -6 -5.00098s-3 -4.66699 -4 -6s-2 -4.16602 -3 -8.49902s-1.66699 -7.66602 -2 -9.99902
s-1.16602 -6.83301 -2.49902 -13.5s-2.33301 -12 -3 -16c-6 -32 -13.5 -60.667 -22.5 -86s-21.333 -50.833 -37 -76.5s-36.5 -47.667 -62.5 -66s-56.333 -32.166 -91 -41.499c34.667 -9.33301 65 -23.166 91 -41.499s46.833 -40.166 62.5 -65.499s28 -50.666 37 -75.999
s16.5 -54 22.5 -86c0.666992 -4 1.66699 -9.33301 3 -16s2.16602 -11.167 2.49902 -13.5s1 -5.66602 2 -9.99902s2 -7.16602 3 -8.49902s2.33301 -3.33301 4 -6s3.66699 -4.33398 6 -5.00098s4.83301 -1.66699 7.5 -3s6.16699 -2 10.5 -2s9 -0.166992 14 -0.5
s10.833 -0.5 17.5 -0.5v-24h-263v24c32.667 0 52.667 3.5 60 10.5s11 25.167 11 54.5c0 64.667 -17.333 123.667 -52 177s-82.334 80 -143.001 80h-8v-258c0 -29.333 3.66699 -47.333 11 -54s27.333 -10 60 -10v-24h-264v24c32.667 0 52.667 3.33301 60 10s11 24.667 11 54
v540z" />
    <glyph glyph-name="L" unicode="L" horiz-adv-x="562" 
d="M325 717v-24.002c-32.667 0 -52.667 -3.33301 -60 -10s-11 -24.667 -11 -54v-539c0 -29.333 3.66699 -47.5 11 -54.5s27.333 -10.5 60 -10.5c36 0 65.167 17.167 87.5 51.5s33.5 69.5 33.5 105.5h25c0 -25.333 4.5 -51.166 13.5 -77.499s17.833 -46.166 26.5 -59.499
l13 -20v-25h-463v25c32.667 0 52.667 3.5 60 10.5s11 25.167 11 54.5v539c0 29.333 -3.66699 47.333 -11 54s-27.333 10 -60 10v24h264z" />
    <glyph glyph-name="M" unicode="M" horiz-adv-x="999" 
d="M552 88c4 -30 9.49902 -48.1611 16.499 -54.4941s26.5 -9.5 58.5 -9.5v-24h-263v24c27.333 0 45.5 2 54.5 6s13.5 14 13.5 30c0 11.333 -0.666992 20.666 -2 27.999l-61 467c-14 -14.667 -27.833 -32.834 -41.5 -54.501s-28.834 -51 -45.501 -88s-30 -83.667 -40 -140
s-15 -117.833 -15 -184.5c0 -29.333 3.66699 -47.333 11 -54s27.333 -10 60 -10v-24h-263v24c32.667 0 52.5 3.33301 59.5 10s10.5 24.667 10.5 54c0 76 5.33301 134.833 16 176.5s33.334 86.5 68.001 134.5s93 113.333 175 196l-5 33c-4 30.667 -9.5 49.167 -16.5 55.5
s-26.167 9.5 -57.5 9.5v24h263v-24c-28.667 0 -47.167 -2.33301 -55.5 -7s-12.5 -16.334 -12.5 -35.001c0 -9.33301 0.333008 -17 1 -23l34 -259c37.333 77.333 97 148.666 179 213.999l-6 45c-4 30 -9.5 48.333 -16.5 55s-26.5 10 -58.5 10v24h264v-24
c-28.667 0 -47.167 -2.33301 -55.5 -7s-12.5 -16.334 -12.5 -35.001c0 -9.33301 0.333008 -17 1 -23l71 -540c4 -30 9.33301 -48.167 16 -54.5s26 -9.5 58 -9.5v-24h-263v24c28 0 46.5 2 55.5 6s13.5 14 13.5 30c0 11.333 -0.666992 20.666 -2 27.999l-60 454
c-83.333 -73.333 -139.666 -170.333 -168.999 -291z" />
    <glyph glyph-name="N" unicode="N" 
d="M579 88c0 -29.333 3.5 -47.333 10.5 -54s26.833 -10 59.5 -10v-24h-263v24c32.667 0 52.667 3.33301 60 10s11 24.667 11 54v130l-203 243v-373c0 -29.333 3.66699 -47.333 11 -54s27.333 -10 60 -10v-24h-264v24c32.667 0 52.667 3.33301 60 10s11 24.667 11 54v540
c0 29.333 -3.66699 47.5 -11 54.5s-27.333 10.5 -60 10.5v24h264v-24c-32.667 0 -52.667 -3.5 -60 -10.5s-11 -25.167 -11 -54.5v-118l203 -241v359c0 29.333 -3.66699 47.5 -11 54.5s-27.333 10.5 -60 10.5v24h263v-24c-32 0 -51.667 -3.33301 -59 -10s-11 -25 -11 -55
v-540z" />
    <glyph glyph-name="O" unicode="O" horiz-adv-x="633" 
d="M317 703c-28.667 0 -52.334 -7.83203 -71.001 -23.499s-32.667 -39.667 -42 -72s-15.833 -67.833 -19.5 -106.5s-5.5 -86.334 -5.5 -143.001c0 -45.333 1 -84.333 3 -117s6 -64 12 -94s14 -54.333 24 -73s23.333 -33.334 40 -44.001s36.334 -16 59.001 -16
c28 0 51.333 7.83301 70 23.5s32.834 39.667 42.501 72s16.334 67.833 20.001 106.5s5.5 86.334 5.5 143.001s-1.83301 104.5 -5.5 143.5s-10.334 74.5 -20.001 106.5s-23.834 55.667 -42.501 71s-42 23 -70 23zM317 728.001c89.333 0 156 -33.502 200 -100.502
s66 -156.833 66 -269.5s-22 -202.167 -66 -268.5s-110.667 -99.5 -200 -99.5s-156 33.333 -200 100s-66 156.334 -66 269.001s22 202.334 66 269.001s110.667 100 200 100z" />
    <glyph glyph-name="P" unicode="P" horiz-adv-x="591" 
d="M254 336l0.00195312 -247.999c0 -29.333 3.66699 -47.333 11 -54s27.333 -10 60 -10v-24h-264v24c32.667 0 52.667 3.33301 60 10s11 24.667 11 54v364c0 183.333 70.667 275 212 275c75.333 0 128.666 -15.833 159.999 -47.5s47 -80.834 47 -147.501
c0 -68 -15.833 -119.833 -47.5 -155.5s-84.834 -53.5 -159.501 -53.5c-34 0 -64 4.33301 -90 13zM254.002 525.001c0 -62.667 6.83301 -108.001 20.5 -136.001s36.834 -42 69.501 -42c56.667 0 85 61.667 85 185c0 60.667 -6.83301 104.167 -20.5 130.5
s-35.167 39.5 -64.5 39.5c-28.667 0 -50.834 -12.667 -66.501 -38s-23.5 -71.666 -23.5 -138.999z" />
    <glyph glyph-name="Q" unicode="Q" horiz-adv-x="677" 
d="M331 728c89.333 0 155.831 -33.3359 199.498 -100.003s65.5 -156.667 65.5 -270c0 -101.333 -17.667 -184.166 -53 -248.499s-89.666 -102.833 -162.999 -115.5c0.666992 -17.333 3.66699 -34.666 9 -51.999s11.333 -26 18 -26c15.333 0 29.166 3.83301 41.499 11.5
s22.5 16.334 30.5 26.001s18.833 18.334 32.5 26.001s28.834 11.5 45.501 11.5c13.333 0 28 -6.5 44 -19.5s24 -23.833 24 -32.5c0 -14.667 -7.5 -28.167 -22.5 -40.5s-29.167 -18.5 -42.5 -18.5c-8 0 -20.5 8.5 -37.5 25.5s-28.5 25.5 -34.5 25.5
s-16.667 -6.83301 -32 -20.5s-28.666 -20.5 -39.999 -20.5c-89.333 0 -135.333 34.667 -138 104c-72 13.333 -125.5 52.166 -160.5 116.499s-52.5 147.166 -52.5 248.499c0 112.667 22 202.334 66 269.001s110.667 100 200 100zM330.998 702.997
c-28.667 0 -52.334 -7.8291 -71.001 -23.4961s-32.667 -39.667 -42 -72s-15.833 -67.833 -19.5 -106.5s-5.5 -86.334 -5.5 -143.001c0 -45.333 1 -84.333 3 -117s6 -64 12 -94s14 -54.333 24 -73s23.333 -33.334 40 -44.001s36.334 -16 59.001 -16
c28 0 51.333 7.83301 70 23.5s32.667 39.667 42 72s15.833 67.833 19.5 106.5s5.5 86.334 5.5 143.001c0 57.333 -1.83301 105.166 -5.5 143.499s-10.167 73.666 -19.5 105.999s-23.333 56.166 -42 71.499s-42 23 -70 23z" />
    <glyph glyph-name="R" unicode="R" horiz-adv-x="698" 
d="M325 0l-263.999 -0.000976562v24c32.667 0 52.667 3.33301 60 10s11 24.667 11 54v541c0 29.333 -3.66699 47.333 -11 54s-27.333 10 -60 10v24h562v-24c-32.667 0 -52.667 -3.33301 -60 -10s-11 -24.667 -11 -54v-167c-73.333 0 -132.5 -6.33301 -177.5 -19
s-84.167 -36.667 -117.5 -72c44 -0.666992 83.5 -6.5 118.5 -17.5s63.667 -25.333 86 -43s42 -39.167 59 -64.5s29.833 -50.333 38.5 -75s16 -52 22 -82c0.666992 -4 1.66699 -9.33301 3 -16s2.16602 -11.167 2.49902 -13.5s1 -5.66602 2 -9.99902s2 -7.16602 3 -8.49902
s2.33301 -3.33301 4 -6s3.66699 -4.33398 6 -5.00098s4.83301 -1.66699 7.5 -3s6.16699 -2 10.5 -2s9 -0.166992 14 -0.5s10.833 -0.5 17.5 -0.5v-24h-263v24c32.667 0 52.667 3.5 60 10.5s11 25.167 11 54.5c0 62.667 -19 121 -57 175s-87.333 81.333 -148 82v-258
c0 -29.333 3.66699 -47.333 11 -54s27.333 -10 60 -10v-24zM254.001 416.999c44.667 37.333 103.333 60.333 176 69v143c0 29.333 -3.66699 47.333 -11 54s-27.333 10 -60 10h-34c-32.667 0 -52.667 -3.33301 -60 -10s-11 -24.667 -11 -54v-212z" />
    <glyph glyph-name="S" unicode="S" horiz-adv-x="646" 
d="M217 33c-8 0 -22.167 -9.66504 -42.5 -28.998s-35.5 -29 -45.5 -29c-16.667 0 -34.167 8.16699 -52.5 24.5s-27.5 34.166 -27.5 53.499c0 8 10 21.667 30 41s38 29 54 29s33.167 -5.33301 51.5 -16s35 -22.167 50 -34.5s34.833 -23.833 59.5 -34.5s51 -16 79 -16
c26 0 47.5 11.833 64.5 35.5s25.5 59.834 25.5 108.501c0 115.333 -53.333 173 -160 173c-42.667 0 -78.667 4.5 -108 13.5s-51.333 22.167 -66 39.5s-24.834 35.666 -30.501 54.999s-8.5 42 -8.5 68c0 67.333 19.5 119.5 58.5 156.5s95.5 55.5 169.5 55.5
c41.333 0 77.5 -6.33301 108.5 -19s55.167 -29.5 72.5 -50.5s30.166 -43.833 38.499 -68.5s12.5 -50.334 12.5 -77.001c0 -9.33301 -20.333 -14 -61 -14s-61 4.66699 -61 14c0 66 -8.83301 114.167 -26.5 144.5s-45.5 45.5 -83.5 45.5c-30.667 0 -56.167 -16 -76.5 -48
s-30.5 -71.333 -30.5 -118c0 -22.667 1.33301 -42.5 4 -59.5s7.83398 -34.5 15.501 -52.5s20.334 -32 38.001 -42s39.5 -15 65.5 -15c167.333 0 251 -59 251 -177c0 -66.667 -18.833 -116.667 -56.5 -150s-92.167 -50 -163.5 -50c-31.333 0 -58.333 7.16699 -81 21.5
s-45 21.5 -67 21.5z" />
    <glyph glyph-name="T" unicode="T" horiz-adv-x="658" 
d="M461 0l-263 0.000976562v24c32.667 0 52.5 3.33301 59.5 10s10.5 24.667 10.5 54v539c0 30 -3.66699 48.333 -11 55s-27 10 -59 10c-19.333 0 -37.333 -18 -54 -54s-25 -70.333 -25 -103h-25c0 25.333 -4.33301 51.166 -13 77.499s-17.667 46.166 -27 59.499l-13 20v25
h576v-25c-4 -5.33301 -9 -12.666 -15 -21.999s-13.833 -27.833 -23.5 -55.5s-14.5 -54.167 -14.5 -79.5h-24c0 32.667 -8.33301 67 -25 103s-34.667 54 -54 54c-32.667 0 -52.667 -3.5 -60 -10.5s-11 -25.167 -11 -54.5v-539c0 -29.333 3.66699 -47.333 11 -54
s27.333 -10 60 -10v-24z" />
    <glyph glyph-name="U" unicode="U" horiz-adv-x="731" 
d="M353 -10c-92.667 0 -157.006 26.167 -193.006 78.5s-54 142.166 -54 269.499v290c0 30 -3.66699 48.333 -11 55s-27 10 -59 10v24h263v-24c-32.667 0 -52.667 -3.5 -60 -10.5s-11 -25.167 -11 -54.5v-338c0 -36 0.666992 -65.667 2 -89s4.33301 -48 9 -74
s11.334 -46.5 20.001 -61.5s20.834 -27.333 36.501 -37s34.834 -14.5 57.501 -14.5s41.834 4.83301 57.501 14.5s27.834 22 36.501 37s15.334 35.5 20.001 61.5s7.66699 50.667 9 74s2 53 2 89v338c0 30 -3.66699 48.333 -11 55s-27 10 -59 10v24h263v-24
c-32.667 0 -52.667 -3.5 -60 -10.5s-11 -25.167 -11 -54.5v-290c0 -127.333 -18 -217.166 -54 -269.499s-100.333 -78.5 -193 -78.5z" />
    <glyph glyph-name="V" unicode="V" horiz-adv-x="705" 
d="M86 628c-7.33301 28 -18.001 45.833 -32.001 53.5s-38.333 11.5 -73 11.5v24h263v-24c-35.333 0 -53 -6.33301 -53 -19c0 -1.33301 1.33301 -7.33301 4 -18l164 -609l145 647c1.33301 5.33301 4.83301 9.5 10.5 12.5s17.834 5.5 36.501 7.5s45.334 3 80.001 3
c9.33301 0 14 -4 14 -12c0 -13.333 -2 -35 -6 -65s-8.66699 -45 -14 -45h-42c-27.333 0 -44.833 -1.33301 -52.5 -4s-12.834 -10.667 -15.501 -24l-131 -567h-127z" />
    <glyph glyph-name="W" unicode="W" horiz-adv-x="1005" 
d="M420 628c0 29.333 -3.66797 47.5 -11.001 54.5s-27.333 10.5 -60 10.5v24h263v-24c-32 0 -51.667 -3.33301 -59 -10s-11 -25 -11 -55v-149c0 -96.667 15 -180.334 45 -251.001s61.333 -122.667 94 -156c34 44.667 64.833 100.5 92.5 167.5s41.5 141.5 41.5 223.5v151
c0 29.333 -6.33301 49.833 -19 61.5s-34 17.5 -64 17.5v24h213v-24c-30 0 -51.167 -5.83301 -63.5 -17.5s-18.5 -32.167 -18.5 -61.5v-79c0 -64.667 -7.5 -127.667 -22.5 -189s-33.167 -112.833 -54.5 -154.5s-42.666 -78.667 -63.999 -111s-39.333 -56.166 -54 -71.499
l-23 -23l-11.5 8.5c-5 3.66699 -14.667 12.5 -29 26.5s-28.166 28.833 -41.499 44.5s-28.333 36.5 -45 62.5s-31.334 53.333 -44.001 82c-12 -28.667 -25.5 -56 -40.5 -82s-28.667 -47.333 -41 -64s-24 -31.167 -35 -43.5s-19.5 -21.166 -25.5 -26.499l-9 -8
c-6 4 -14.167 10.333 -24.5 19s-28.5 28 -54.5 58s-48.833 62.333 -68.5 97s-37.667 80.5 -54 137.5s-24.5 116.5 -24.5 178.5v152c0 30 -3.66699 48.333 -11 55s-27 10 -59 10v24h263v-24c-32.667 0 -52.667 -3.5 -60 -10.5s-11 -25.167 -11 -54.5v-149
c0 -96.667 15 -180.334 45 -251.001s61.333 -122.667 94 -156c42 55.333 75 116.333 99 183c-24.667 69.333 -37 143 -37 221v152z" />
    <glyph glyph-name="X" unicode="X" horiz-adv-x="673" 
d="M529 88c14 -29.333 26.6699 -47.335 38.0029 -54.002s33.666 -10 66.999 -10v-24h-263v24c20 0 34 1.16699 42 3.5s12 6.83301 12 13.5c0 5.33301 -5.66699 21 -17 47l-94 196l-97 -191c-10 -18.667 -15 -33.334 -15 -44.001c0 -10 5.33301 -16.667 16 -20s29 -5 55 -5
v-24h-235v24c33.333 0 57.666 1.83301 72.999 5.5s27.166 9.66699 35.499 18s18.166 23.5 29.499 45.5l119 233l-143 302c-13.333 27.333 -26.333 45 -39 53s-35 12 -67 12v24h263v-24c-34.667 0 -52 -6.33301 -52 -19c0 -7.33301 5.33301 -22.666 16 -45.999l85 -178
l125 244c3.33301 6.66699 7 11.334 11 14.001s13.333 4.83398 28 6.50098s37.334 2.5 68.001 2.5c9.33301 0 14 -4 14 -12c0 -13.333 -2 -35 -6 -65s-8.66699 -45 -14 -45h-42c-45.333 0 -72 -7.66699 -80 -23l-84 -164z" />
    <glyph glyph-name="Y" unicode="Y" horiz-adv-x="620" 
d="M279 39c-5.33301 -20.667 -16.835 -34.334 -34.502 -41.001s-54.167 -10 -109.5 -10c-9.33301 0 -14 4 -14 12c0 13.333 2 35 6 65s8.66699 45 14 45h85c21.333 0 35.333 1.5 42 4.5s11.334 10.5 14.001 22.5l16 63l-203 428c-13.333 27.333 -26.166 45 -38.499 53
s-34.5 12 -66.5 12v24h263v-24c-34.667 0 -52 -6.33301 -52 -19c0 -7.33301 5.33301 -22.666 16 -45.999l124 -261l84 327c1.33301 6 3.83301 10.333 7.5 13s14.5 5 32.5 7s45 3 81 3c9.33301 0 14 -4 14 -12c0 -13.333 -2 -35 -6 -65s-8.66699 -45 -14 -45h-65
c-20 0 -33.5 -2 -40.5 -6s-11.833 -11.333 -14.5 -22z" />
    <glyph glyph-name="Z" unicode="Z" horiz-adv-x="565" 
d="M524 717l-0.000976562 -24.9971h-1l-311 -667h194c36.667 0 65.834 -9.83301 87.501 -29.5s32.5 -43.167 32.5 -70.5c0 -28 -12.333 -51.333 -37 -70s-62 -28 -112 -28l-45 5l4 22c21.333 0 38.833 7.66699 52.5 23s20.5 31.666 20.5 48.999
c0 18 -6.83301 34.833 -20.5 50.5s-31.167 23.5 -52.5 23.5h-269l322 692h-128c-36 0 -65.333 -17.167 -88 -51.5s-34 -69.5 -34 -105.5h-24c0 25.333 -4.5 51.166 -13.5 77.499s-18.167 46.166 -27.5 59.499l-13 20v25h463z" />
    <glyph glyph-name="bracketleft" unicode="[" horiz-adv-x="325" 
d="M82 0v717h192v-24c-32 0 -51.667 -3.33301 -59 -10s-11 -25 -11 -55v-540c0 -29.333 3.5 -47.333 10.5 -54s26.833 -10 59.5 -10v-24h-192z" />
    <glyph glyph-name="backslash" unicode="\" horiz-adv-x="428" 
d="M91 717l277 -717h-54l-276 717h53z" />
    <glyph glyph-name="bracketright" unicode="]" horiz-adv-x="397" 
d="M315 717v-717h-192v24c32.667 0 52.667 3.5 60 10.5s11 25.167 11 54.5v540c0 29.333 -3.66699 47.333 -11 54s-27.333 10 -60 10v24h192z" />
    <glyph glyph-name="asciicircum" unicode="^" horiz-adv-x="403" 
d="M202 753l160 -171l-24 -27l-136 94l-136 -94l-25 27z" />
    <glyph glyph-name="underscore" unicode="_" horiz-adv-x="307" 
d="M0 -41h307v-55h-307v55z" />
    <glyph glyph-name="grave" unicode="`" horiz-adv-x="337" 
d="M104 786l193 -204l-25 -27l-231 160z" />
    <glyph glyph-name="a" unicode="a" horiz-adv-x="473" 
d="M341 495l87 -494.999h-104l-12 62c-40 -48 -92 -72 -156 -72c-38 0 -65.167 11.667 -81.5 35s-24.5 49.666 -24.5 78.999c0 86 67.667 185.667 203 299l-20 109h84c14 0 22 -5.66699 24 -17zM305 106.001l-47.999 270c-74 -62 -111 -127.667 -111 -197
c0 -26 6.66699 -51.167 20 -75.5s33.666 -36.5 60.999 -36.5c33.333 0 59.333 13 78 39z" />
    <glyph glyph-name="b" unicode="b" horiz-adv-x="506" 
d="M447 0l-368.001 -0.000976562v512h342c0 -56.667 -14.333 -104.167 -43 -142.5s-67.667 -66.166 -117 -83.499c72.667 -8.66699 121.834 -33 147.501 -73s38.5 -111 38.5 -213zM180.999 24.999h163.998c-1.33301 80 -13.666 138.333 -36.999 175s-65.666 58 -126.999 64
v-239zM180.997 486.999v-194.001c48 5.33301 82.333 23.333 103 54s32 77.334 34 140.001h-137z" />
    <glyph glyph-name="c" unicode="c" horiz-adv-x="467" 
d="M281 391c-32.667 38.667 -51.667 62.6689 -57 72.002c-31.333 -20.667 -52.333 -41.334 -63 -62.001s-16 -48.667 -16 -84c0 -29.333 7 -58.5 21 -87.5s29.667 -52.667 47 -71l53.5 -59c18.333 -21 30.5 -37.833 36.5 -50.5c34 25.333 55 51.333 63 78l56 -21
c-42 -55.333 -97.667 -95.333 -167 -120c-58 25.333 -107.833 65.833 -149.5 121.5s-62.5 104.5 -62.5 146.5c0 25.333 7.16699 54.166 21.5 86.499s39.5 66.333 75.5 102s79 62.167 129 79.5c38.667 -16.667 76 -43 112 -79z" />
    <glyph glyph-name="d" unicode="d" horiz-adv-x="562" 
d="M321 522c-2.66699 20 -4.00098 37.3311 -4.00098 51.998c0 19.333 3.83301 37.666 11.5 54.999s17.167 31.666 28.5 42.999s22.666 21.333 33.999 30s21 15 29 19l11 6l29 -41c-2.66699 -2 -6 -5.16699 -10 -9.5s-9.33301 -14.166 -16 -29.499s-10 -31.666 -10 -48.999
c0 -41.333 3.5 -76 10.5 -104s14.833 -48.833 23.5 -62.5s16.5 -35.167 23.5 -64.5s10.5 -65.666 10.5 -108.999c0 -25.333 -7.16699 -54.166 -21.5 -86.499s-39.666 -66.333 -75.999 -102s-79.5 -62.167 -129.5 -79.5c-58 25.333 -107.833 65 -149.5 119
s-62.5 102 -62.5 144c0 34 11.333 71 34 111s55.334 75.5 98.001 106.5s88 48.167 136 51.5zM328.999 477.998c-112 -8.66699 -168 -64.335 -168 -167.002c0 -28.667 6.16699 -56.834 18.5 -84.501s26.166 -50.667 41.499 -69l51 -59.5
c18.667 -21.333 31.334 -37.666 38.001 -48.999c31.333 20.667 52.333 41.334 63 62.001s16 48.667 16 84c0 46 -3.16699 85.333 -9.5 118s-15.5 64.834 -27.5 96.501s-19.667 54.5 -23 68.5z" />
    <glyph glyph-name="e" unicode="e" horiz-adv-x="467" 
d="M281 391c-32.667 38.667 -51.667 62.6689 -57 72.002c-31.333 -20.667 -52.333 -41.334 -63 -62.001s-16 -48.667 -16 -84c0 -10.667 1 -21 3 -31h205v-25h-199c8.66699 -28 23.5 -55.667 44.5 -83s42.167 -52.333 63.5 -75s35 -40.667 41 -54c34 25.333 55 51.333 63 78
l56 -21c-42 -55.333 -97.667 -95.333 -167 -120c-58 25.333 -107.833 65.833 -149.5 121.5s-62.5 104.5 -62.5 146.5c0 25.333 7.16699 54.166 21.5 86.499s39.5 66.333 75.5 102s79 62.167 129 79.5c38.667 -16.667 76 -43 112 -79z" />
    <glyph glyph-name="f" unicode="f" horiz-adv-x="459" 
d="M84 0v350.999c0 18 4.33301 38.833 13 62.5s21.5 48.667 38.5 75s40.833 51.5 71.5 75.5s65 42.667 103 56c38.667 -16.667 76 -43 112 -79l-100 -53c-32.667 38.667 -51.667 62.667 -57 72c-32 -20.667 -53.167 -41.167 -63.5 -61.5s-15.5 -48.166 -15.5 -83.499v-32
h208v-25h-208v-358h-102z" />
    <glyph glyph-name="g" unicode="g" horiz-adv-x="539" 
d="M299 391c-31.333 36.667 -50 60.6689 -56 72.002c-31.333 -20.667 -52.333 -41.334 -63 -62.001s-16 -48.667 -16 -84c0 -29.333 7 -58.5 21 -87.5s29.667 -52.667 47 -71l53.5 -59c18.333 -21 30.5 -37.833 36.5 -50.5c20 14.667 34 25.334 42 32.001v202h102v-313
c0 -60.667 -13.667 -105 -41 -133s-69.333 -42 -126 -42c-19.333 0 -40 6.83301 -62 20.5s-40.333 20.5 -55 20.5c-6 0 -17.333 -8.5 -34 -25.5s-29 -25.5 -37 -25.5c-13.333 0 -27.5 6 -42.5 18s-22.5 25.333 -22.5 40c0 8.66699 8 19.667 24 33s30.667 20 44 20
c24.667 0 46.834 -3.83301 66.501 -11.5s34.667 -16.334 45 -26.001s22.5 -18.334 36.5 -26.001s28.333 -11.5 43 -11.5c39.333 0 59 39 59 117v94c-28 -19.333 -58.333 -34.666 -91 -45.999c-58 25.333 -107.833 65.833 -149.5 121.5s-62.5 104.5 -62.5 146.5
c0 25.333 7.16699 54.166 21.5 86.499s39.666 66.333 75.999 102s79.5 62.167 129.5 79.5c37.333 -16 74.333 -42.333 111 -79z" />
    <glyph glyph-name="h" unicode="h" horiz-adv-x="552" 
d="M189 0h-102.001v614h102v-104c24 8 56.667 12 98 12c24 0 47.167 -3.16699 69.5 -9.5s43.5 -16 63.5 -29s36 -31.667 48 -56s18 -52.833 18 -85.5v-342h-102v375c0 28 -3.33301 51 -10 69s-15.834 30.5 -27.501 37.5s-21.667 11.5 -30 13.5s-18.166 3 -29.499 3
s-21.166 -1 -29.499 -3s-18.5 -6.5 -30.5 -13.5s-21.333 -19.5 -28 -37.5s-10 -41 -10 -69v-375z" />
    <glyph glyph-name="i" unicode="i" horiz-adv-x="271" 
d="M108 582c-2.66699 0 -5.16699 1 -7.5 3s-3.5 4.33301 -3.5 7v85c0 2.66699 1.16699 5 3.5 7s4.83301 3 7.5 3h60c6.66699 0 10 -3.33301 10 -10v-85c0 -6.66699 -3.33301 -10 -10 -10h-60zM86 512h102v-512h-102v512z" />
    <glyph glyph-name="j" unicode="j" horiz-adv-x="327" 
d="M159 582c-2.66699 0 -5.16699 1 -7.5 3s-3.5 4.33301 -3.5 7v85c0 2.66699 1.16699 5 3.5 7s4.83301 3 7.5 3h60c6.66699 0 10 -3.33301 10 -10v-85c0 -6.66699 -3.33301 -10 -10 -10h-60zM137 512h103v-488c0 -81.333 -11.5 -139.833 -34.5 -175.5
s-60.167 -53.5 -111.5 -53.5c-16 0 -33.333 6.83301 -52 20.5s-31.667 20.5 -39 20.5c-6 0 -17.5 -8.5 -34.5 -25.5s-29.5 -25.5 -37.5 -25.5c-13.333 0 -27.333 6 -42 18s-22 25.333 -22 40c0 8.66699 7.83301 19.667 23.5 33s30.167 20 43.5 20
c26 0 55.167 -12.5 87.5 -37.5s59.5 -37.5 81.5 -37.5c13.333 0 22.333 14 27 42s7 70.667 7 128v521z" />
    <glyph glyph-name="k" unicode="k" horiz-adv-x="498" 
d="M79 512l101.999 0.000976562v-212c49.333 16.667 86.333 41.667 111 75s37 79 37 137h102v-25c0 -52.667 -17.833 -94 -53.5 -124s-88.167 -56 -157.5 -78c68 -13.333 120.5 -42 157.5 -86s55.5 -110.333 55.5 -199h-102c0 83.333 -14.667 146.166 -44 188.499
s-64.666 67.833 -105.999 76.5v-265h-102v512z" />
    <glyph glyph-name="l" unicode="l" horiz-adv-x="452" 
d="M181 25l68.001 0.00195312c45.333 0 74.333 7.66699 87 23s19 50.666 19 105.999h25c0 -25.333 2.66699 -48.833 8 -70.5s10.666 -36.834 15.999 -45.501l9 -13v-25h-334v512h102v-487z" />
    <glyph glyph-name="m" unicode="m" horiz-adv-x="727" 
d="M589 495l87.001 -495h-105l-68 391c-7.33301 -12 -19.833 -30 -37.5 -54s-32.834 -47 -45.501 -69s-22.334 -44.667 -29.001 -68l35 -200h-104l-66 373c-66.667 -96 -100 -207 -100 -333c0 -16 1.33301 -29.333 4 -40h-109
c1.33301 46.667 3.66602 82.334 6.99902 107.001s11.333 54 24 88s32 68.167 58 102.5s62 75.5 108 123.5l-17 91h84c14 0 22 -5.66699 24 -17l37 -211l25.5 28.5c13 14.333 22.5 25.166 28.5 32.499l23.5 29c9.66699 12 17.834 23 24.501 33s12.334 20 17.001 30l-14 75h86
c12.667 0 20 -5.66699 22 -17z" />
    <glyph glyph-name="n" unicode="n" horiz-adv-x="501" 
d="M164 0h-103v512h103v-73l174 -249v322h102v-512h-102v123l-174 248v-371z" />
    <glyph glyph-name="o" unicode="o" horiz-adv-x="552" 
d="M315 49c28.667 21.333 47.667 42.334 57 63.001s14 48.667 14 84c0 28.667 -6.16699 57.167 -18.5 85.5s-26.166 51.833 -41.499 70.5l-51 61c-18.667 22 -31.334 38.667 -38.001 50c-31.333 -20.667 -52.333 -41.334 -63 -62.001s-16 -48.667 -16 -84
c0 -29.333 7 -58.5 21 -87.5s29.5 -52.667 46.5 -71l53 -59c18.333 -21 30.5 -37.833 36.5 -50.5zM282 522.001c58 -25.333 107.833 -65.833 149.5 -121.5s62.5 -104.5 62.5 -146.5c0 -25.333 -7.16699 -54.166 -21.5 -86.499s-39.666 -66.333 -75.999 -102
s-79.5 -62.167 -129.5 -79.5c-58 25.333 -107.833 65.833 -149.5 121.5s-62.5 104.5 -62.5 146.5c0 25.333 7.16699 54.166 21.5 86.499s39.666 66.333 75.999 102s79.5 62.167 129.5 79.5z" />
    <glyph glyph-name="p" unicode="p" horiz-adv-x="530" 
d="M209 -20c9.33301 -46.667 13.999 -88.332 13.999 -124.999c0 -19.333 -3.83301 -37.666 -11.5 -54.999s-17.167 -31.666 -28.5 -42.999s-22.333 -21.333 -33 -30s-20 -15 -28 -19l-12 -6l-29 41c2.66699 2 6 5.16699 10 9.5s9.33301 14.166 16 29.499
s10 31.666 10 48.999c0 61.333 -11.333 130.666 -34 207.999s-34 149 -34 215c0 25.333 7.16699 54.166 21.5 86.499s39.5 66.333 75.5 102s79 62.167 129 79.5c58 -25.333 107.833 -65.833 149.5 -121.5s62.5 -104.5 62.5 -146.5c0 -35.333 -11.833 -73.666 -35.5 -114.999
s-57.667 -78 -102 -110s-91.166 -48.333 -140.499 -49zM197.999 24.002c121.333 5.33301 181.998 62.667 181.998 172c0 28.667 -6.33301 57.167 -19 85.5s-26.5 51.833 -41.5 70.5l-51 61c-19 22 -31.833 38.667 -38.5 50c-31.333 -20.667 -52.166 -41.167 -62.499 -61.5
s-15.5 -48.5 -15.5 -84.5c0 -20 0.833008 -40 2.5 -60s3.33398 -37.167 5.00098 -51.5s4.5 -31.5 8.5 -51.5s7 -34.5 9 -43.5s5.66699 -24.333 11 -46z" />
    <glyph glyph-name="q" unicode="q" horiz-adv-x="564" 
d="M336 -20c-49.333 0.666992 -96.3311 16.9951 -140.998 48.9951s-78.834 68.667 -102.501 110s-35.5 79.666 -35.5 114.999c0 42 20.833 90.833 62.5 146.5s91.5 96.167 149.5 121.5c50 -17.333 93.167 -43.833 129.5 -79.5s61.666 -69.667 75.999 -102
s21.5 -61.166 21.5 -86.499c0 -66 -11.333 -137.667 -34 -215s-34 -146.666 -34 -207.999c0 -17.333 3 -33.333 9 -48s12 -25 18 -31l9 -9l-29 -41c-3.33301 1.33301 -7.5 3.33301 -12.5 6s-14 8.83398 -27 18.501s-24.5 19.834 -34.5 30.501s-19 24.834 -27 42.501
s-12 36.167 -12 55.5c0 36.667 4.66699 78.334 14 125.001zM347.002 23.9951l9.99902 40.498c5.33301 21.667 9 37 11 46s5 23.5 9 43.5s6.83301 37.167 8.5 51.5s3.33398 31.5 5.00098 51.5s2.5 40 2.5 60c0 35.333 -5.33301 63.333 -16 84s-31.667 41.334 -63 62.001
c-6.66699 -11.333 -19.334 -28 -38.001 -50l-51 -61c-15.333 -18.667 -29.166 -42.167 -41.499 -70.5s-18.5 -56.833 -18.5 -85.5c0 -109.333 60.667 -166.666 182 -171.999z" />
    <glyph glyph-name="r" unicode="r" horiz-adv-x="458" 
d="M79 512l102 0.000976562v-63c36 32.667 77.333 57 124 73c38.667 -16.667 76 -43 112 -79l-101 -52c-31.333 36.667 -50 60.667 -56 72c-31.333 -20.667 -52.333 -41.334 -63 -62.001s-16 -48.667 -16 -84v-317h-102v512z" />
    <glyph glyph-name="s" unicode="s" horiz-adv-x="570" 
d="M191 39c-6 0 -17.999 -9.66602 -35.999 -28.999s-31 -29 -39 -29c-13.333 0 -27.5 6 -42.5 18s-22.5 25.333 -22.5 40c0 6.66699 9 19.5 27 38.5s33.333 28.5 46 28.5c18.667 0 52.167 -15 100.5 -45s85.166 -45 110.499 -45c20 0 37.167 12.167 51.5 36.5
s21.5 55.5 21.5 93.5c0 88.667 -42.667 133 -128 133c-55.333 0 -98.666 11.167 -129.999 33.5s-47 49.833 -47 82.5c0 47.333 15.5 80.333 46.5 99s78.5 28 142.5 28c63.333 0 110 -14.333 140 -43s45 -62.667 45 -102c0 -7.33301 -16.333 -11 -49 -11
c-35.333 0 -53 3.66699 -53 11c0 42.667 -6.33301 73.5 -19 92.5s-34 28.5 -64 28.5c-26 0 -46.833 -8.83301 -62.5 -26.5s-23.5 -43.5 -23.5 -77.5c0 -23.333 8.5 -44.333 25.5 -63s41.167 -28 72.5 -28c72 0 124.333 -12.833 157 -38.5s49 -58.834 49 -99.501
c0 -51.333 -16.333 -93.333 -49 -126s-76.667 -49 -132 -49c-20.667 0 -44.334 8.16699 -71.001 24.5s-49 24.5 -67 24.5z" />
    <glyph glyph-name="t" unicode="t" horiz-adv-x="503" 
d="M198 0l0.000976562 486.999c-26.667 0 -46.334 -1 -59.001 -3s-24.167 -7.33301 -34.5 -16s-16.833 -21.334 -19.5 -38.001s-4 -40.667 -4 -72h-25c0 25.333 -2.66699 48.833 -8 70.5s-10.666 36.834 -15.999 45.501l-8 13v25h450v-25c-22 -28.667 -33 -71.667 -33 -129
h-24c0 31.333 -1.33301 55.333 -4 72s-9.16699 29.334 -19.5 38.001s-21.833 14 -34.5 16s-32.334 3 -59.001 3v-487h-102z" />
    <glyph glyph-name="u" unicode="u" horiz-adv-x="549" 
d="M51 340c0 22 1.83203 42.9961 5.49902 62.9961s8.16699 36.333 13.5 49s10.666 24 15.999 34c5.33301 9.33301 10 16 14 20l6 6h99c-4 -5.33301 -8.83301 -12.833 -14.5 -22.5s-13.167 -29.334 -22.5 -59.001s-14 -59.167 -14 -88.5c0 -80 13.667 -147.833 41 -203.5
s64.666 -83.5 111.999 -83.5c45.333 0 78.166 22.333 98.499 67s30.5 103 30.5 175c0 30.667 -5.66699 58.334 -17 83.001s-22.5 47.334 -33.5 68.001s-16.5 42 -16.5 64h100c16.667 -27.333 25 -59.333 25 -96c0 -64 -4 -121 -12 -171s-18.667 -90.667 -32 -122
s-29.166 -57.166 -47.499 -77.499s-37.166 -34.666 -56.499 -42.999s-39.666 -12.5 -60.999 -12.5c-26.667 0 -53.5 7.33301 -80.5 22s-52.167 35.834 -75.5 63.501s-42.166 64.5 -56.499 110.5s-21.5 97.333 -21.5 154z" />
    <glyph glyph-name="v" unicode="v" horiz-adv-x="567" 
d="M282 39l16.999 -0.00195312l121 451c2.66699 8.66699 6 14 10 16c10 4.66699 37.333 7 82 7c9.33301 0 14 -4 14 -12c0 -13.333 -2 -35 -6 -65s-8.66699 -45 -14 -45h-42c-20 0 -31.667 -1.16699 -35 -3.5s-6.66602 -10.166 -9.99902 -23.499l-98 -364h-118l-150 487
c-2.66699 8 -4 13 -4 15c0 7.33301 5.66699 11 17 11h42c12 0 20.333 -1.66699 25 -5s8.66699 -9.66602 12 -18.999z" />
    <glyph glyph-name="w" unicode="w" horiz-adv-x="787" 
d="M537 -10c-6 3.33301 -14.168 8.16504 -24.501 14.498s-28.166 20.666 -53.499 42.999s-47.333 46.833 -66 73.5c-16 -28.667 -34 -54 -54 -76c-20.667 -22 -37 -36.667 -49 -44l-18 -11c-6 3.33301 -13.667 8 -23 14s-26.333 19.667 -51 41s-46.334 44.333 -65.001 69
s-35.667 57.334 -51 98.001s-23 83.334 -23 128.001c0 35.333 4.66699 67.333 14 96c9.33301 29.333 18.666 49.333 27.999 60l14 16h98c-4 -5.33301 -8.83301 -12.833 -14.5 -22.5s-13.167 -29.334 -22.5 -59.001s-14 -59.167 -14 -88.5c0 -66.667 14 -124.667 42 -174
s58.333 -87 91 -113c31.333 28 57 62 77 102c-32 57.333 -48 118.333 -48 183c0 35.333 4.66699 67.333 14 96c9.33301 29.333 18.666 49.333 27.999 60l13 16h98c-4 -5.33301 -8.83301 -12.833 -14.5 -22.5s-13.167 -29.334 -22.5 -59.001s-14 -59.167 -14 -88.5
c0 -66.667 14 -124.667 42 -174s58.333 -87 91 -113c72.667 64.667 109 145.334 109 242.001c0 30.667 -5.66699 58.334 -17 83.001s-22.666 47.334 -33.999 68.001s-17 42 -17 64h100c1.33301 -5.33301 5.83301 -17.333 13.5 -36s11.5 -38.667 11.5 -60
c0 -61.333 -6.5 -118 -19.5 -170s-28.667 -93 -47 -123s-36.666 -55.667 -54.999 -77s-34.166 -36 -47.499 -44z" />
    <glyph glyph-name="x" unicode="x" horiz-adv-x="510" 
d="M102 512l62 0.000976562l91 -157l77 134c3.33301 6 6.66602 10.167 9.99902 12.5s12.666 4.66602 27.999 6.99902s38 3.5 68 3.5c10 0 15 -4 15 -12c0 -12.667 -2.16699 -34.167 -6.5 -64.5s-9.16602 -45.5 -14.499 -45.5h-59c-43.333 0 -68.666 -7.33301 -75.999 -22
l-25 -44l188 -324h-118l-127 220l-123 -220h-41l146 253l-119 205c-5.33301 8.66699 -8 17.667 -8 27c0 18 10.667 27 32 27z" />
    <glyph glyph-name="y" unicode="y" horiz-adv-x="568" 
d="M362 -45c0 -51.333 5 -91.334 15 -120.001s15 -47.334 15 -56.001c0 -7.33301 -1.83301 -13.333 -5.5 -18s-8.16699 -7 -13.5 -7c-24.667 0 -37 68.333 -37 205v41h-105l-183 487c-2 6 -3 11 -3 15c0 7.33301 5.33301 11 16 11h56c12 0 20.333 -1.5 25 -4.5
s8.66699 -9.5 12 -19.5l171 -457h12c3.33301 120 13 220 29 300s32 132.667 48 158c8.66699 14.667 40.667 22.334 96 23.001c8.66699 0 13 -4 13 -12c0 -13.333 -2 -35 -6 -65s-8.66699 -45 -14 -45h-31c-20.667 0 -35 -2.16699 -43 -6.5s-15 -13.166 -21 -26.499
c-6 -12.667 -12.167 -31.667 -18.5 -57s-12.5 -69 -18.5 -131s-9 -133.667 -9 -215z" />
    <glyph glyph-name="z" unicode="z" horiz-adv-x="468" 
d="M210 -168l4 21.9971c29.333 0 51.666 7.33301 66.999 22s23 31.334 23 50.001c0 20 -6.83301 37.333 -20.5 52s-36.834 22 -69.501 22h-151l227 487h-58c-45.333 0 -74.333 -7.66699 -87 -23s-19 -50.666 -19 -105.999h-25c0 25.333 -2.66699 48.833 -8 70.5
s-10.666 36.834 -15.999 45.501l-8 13v25h346l-229 -487h98c36.667 0 65.834 -9.83301 87.501 -29.5s32.5 -43.167 32.5 -70.5c0 -28 -12.333 -51.333 -37 -70s-62 -28 -112 -28z" />
    <glyph glyph-name="braceleft" unicode="{" horiz-adv-x="311" 
d="M270 729v-12.002c-30.667 0 -51.167 -9.16699 -61.5 -27.5s-15.5 -45.166 -15.5 -80.499c0 -10 0.5 -26 1.5 -48s1.5 -38.667 1.5 -50c0 -40.667 -6.16699 -74.167 -18.5 -100.5s-36.166 -43.833 -71.499 -52.5c35.333 -8.66699 59.166 -26 71.499 -52
s18.5 -59.333 18.5 -100c0 -11.333 -0.5 -28 -1.5 -50s-1.5 -38 -1.5 -48c0 -35.333 5.16699 -62.166 15.5 -80.499s30.833 -27.5 61.5 -27.5v-12c-59.333 0 -99.5 13 -120.5 39s-31.5 62.333 -31.5 109c0 14.667 1 36.167 3 64.5s3 48.5 3 60.5
c0 29.333 -5.16699 51.833 -15.5 67.5s-29.5 23.5 -57.5 23.5v13c28 0 47.167 7.83301 57.5 23.5s15.5 38.167 15.5 67.5c0 12 -1 32.333 -3 61s-3 50 -3 64c0 46.667 10.5 83 31.5 109s61.167 39 120.5 39z" />
    <glyph glyph-name="bar" unicode="|" horiz-adv-x="184" 
d="M72 748h41v-779h-41v779z" />
    <glyph glyph-name="braceright" unicode="}" horiz-adv-x="311" 
d="M41 -12v11.999c30.667 0 51.334 9.33301 62.001 28s16 45.334 16 80.001c0 10 -0.5 26 -1.5 48s-1.5 38.667 -1.5 50c0 40.667 6 74 18 100s35.667 43.333 71 52c-24 6 -43 17.167 -57 33.5s-22.833 33.666 -26.5 51.999s-5.5 40.833 -5.5 67.5c0 11.333 0.5 28 1.5 50
s1.5 38 1.5 48c0 34.667 -5.33301 61.334 -16 80.001s-31.334 28 -62.001 28v12c59.333 0 99.666 -13.167 120.999 -39.5s32 -62.5 32 -108.5c0 -14 -1.16699 -35.167 -3.5 -63.5s-3.5 -48.833 -3.5 -61.5c0 -29.333 5.16699 -51.833 15.5 -67.5s29.5 -23.5 57.5 -23.5v-13
c-28 0 -47.167 -7.83301 -57.5 -23.5s-15.5 -38.167 -15.5 -67.5c0 -12.667 1.16699 -33 3.5 -61s3.5 -49.333 3.5 -64c0 -46 -10.667 -82.167 -32 -108.5s-61.666 -39.5 -120.999 -39.5z" />
    <glyph glyph-name="asciitilde" unicode="~" horiz-adv-x="376" 
d="M294 530c-22.667 0 -52.8359 7.33496 -90.5029 22.002s-66.167 22 -85.5 22l-10 -1c-12.667 -30 -27 -45 -43 -45c-7.33301 0 -15 2.83301 -23 8.5s-12 14.5 -12 26.5c0 7.33301 1 14.166 3 20.499s7.33301 12.666 16 18.999s20 9.5 34 9.5
c22.667 0 52.834 -7.33301 90.501 -22s66.167 -22 85.5 -22l10 1c12.667 30 27 45 43 45c4.66699 0 9.33398 -0.833008 14.001 -2.5s9.33398 -5.16699 14.001 -10.5s7 -12.333 7 -21c0 -7.33301 -1 -14.333 -3 -21s-7.33301 -13.167 -16 -19.5s-20 -9.5 -34 -9.5z" />
    <glyph glyph-name="uni0400" unicode="&#x400;" horiz-adv-x="720" 
d="M239 984l193 -204l-25 -27l-231 160zM574 128l-24.0039 -43.999c-5.33301 -9.33301 -14.5 -21.333 -27.5 -36s-26.667 -25.334 -41 -32.001s-33.666 -12.667 -57.999 -18s-52.5 -8 -84.5 -8c-90 0 -158 33.5 -204 100.5s-69 156.5 -69 268.5
c0 111.333 23 200.666 69 267.999s114 101 204 101c32 0 60.167 -2.66699 84.5 -8s43.833 -11.5 58.5 -18.5s28.334 -17.5 41.001 -31.5s22 -26.167 28 -36.5s14 -25.166 24 -44.499c14.667 -29.333 41 -44 79 -44v-24h-263v24c33.333 0 55.166 3.66699 65.499 11
s15.5 18.333 15.5 33c0 28 -11.167 54 -33.5 78s-54.833 36 -97.5 36c-49.333 0 -85.166 -24 -107.499 -72s-35.166 -117.667 -38.499 -209c39.333 32 85 48 137 48c70 0 120.333 -6.5 151 -19.5s54.667 -37.5 72 -73.5c4.66699 -10.667 8.16699 -17.834 10.5 -21.501
s6.83301 -10.167 13.5 -19.5s15 -16 25 -20s21.667 -6 35 -6v-23h-263v23c25.333 0 44.5 2.33301 57.5 7s20.833 9.83398 23.5 15.501s4 13.834 4 24.501c0 18.667 -9.66699 37.667 -29 57s-52 29 -98 29c-52 0 -98.667 -20 -140 -60v-25c0 -113.333 10.833 -199 32.5 -257
s59.834 -87 114.501 -87c42.667 0 75.167 12 97.5 36s33.5 50 33.5 78c0 15.333 -5.16699 26.666 -15.5 33.999s-32.166 11 -65.499 11v24h263v-24c-38.667 0 -65.334 -15 -80.001 -45z" />
    <glyph glyph-name="afii10023" unicode="&#x401;" horiz-adv-x="720" 
d="M387 778c-6.66699 0 -10 3.33301 -10 10v111c0 6.66699 3.33301 10 10 10h61c6.66699 0 10 -3.33301 10 -10v-111c0 -6.66699 -3.33301 -10 -10 -10h-61zM238 778c-2.66699 0 -5.16699 1 -7.5 3s-3.5 4.33301 -3.5 7v111c0 2.66699 1.16699 5 3.5 7s4.83301 3 7.5 3h60
c6.66699 0 10 -3.33301 10 -10v-111c0 -6.66699 -3.33301 -10 -10 -10h-60zM574 128l-24.0039 -43.999c-5.33301 -9.33301 -14.5 -21.333 -27.5 -36s-26.667 -25.334 -41 -32.001s-33.666 -12.667 -57.999 -18s-52.5 -8 -84.5 -8c-90 0 -158 33.5 -204 100.5
s-69 156.5 -69 268.5c0 111.333 23 200.666 69 267.999s114 101 204 101c32 0 60.167 -2.66699 84.5 -8s43.833 -11.5 58.5 -18.5s28.334 -17.5 41.001 -31.5s22 -26.167 28 -36.5s14 -25.166 24 -44.499c14.667 -29.333 41 -44 79 -44v-24h-263v24
c33.333 0 55.166 3.66699 65.499 11s15.5 18.333 15.5 33c0 28 -11.167 54 -33.5 78s-54.833 36 -97.5 36c-49.333 0 -85.166 -24 -107.499 -72s-35.166 -117.667 -38.499 -209c39.333 32 85 48 137 48c70 0 120.333 -6.5 151 -19.5s54.667 -37.5 72 -73.5
c4.66699 -10.667 8.16699 -17.834 10.5 -21.501s6.83301 -10.167 13.5 -19.5s15 -16 25 -20s21.667 -6 35 -6v-23h-263v23c25.333 0 44.5 2.33301 57.5 7s20.833 9.83398 23.5 15.501s4 13.834 4 24.501c0 18.667 -9.66699 37.667 -29 57s-52 29 -98 29
c-52 0 -98.667 -20 -140 -60v-25c0 -113.333 10.833 -199 32.5 -257s59.834 -87 114.501 -87c42.667 0 75.167 12 97.5 36s33.5 50 33.5 78c0 15.333 -5.16699 26.666 -15.5 33.999s-32.166 11 -65.499 11v24h263v-24c-38.667 0 -65.334 -15 -80.001 -45z" />
    <glyph glyph-name="afii10051" unicode="&#x402;" horiz-adv-x="817" 
d="M403 -166l0.00195312 24.001c59.333 28 103.333 62.333 132 103s43 96 43 166c0 26 -1 48.167 -3 66.5s-6.5 37.833 -13.5 58.5s-17 37.334 -30 50.001s-31.5 23.167 -55.5 31.5s-52.667 12.5 -86 12.5v-257c0 -29.333 3.83301 -47.5 11.5 -54.5s27.167 -10.5 58.5 -10.5
h1v-24h-263v24c32 0 51.667 3.33301 59 10s11 25 11 55v538c0 30 -3.66699 48.333 -11 55s-27 10 -59 10c-19.333 0 -37.333 -18 -54 -54s-25 -70.333 -25 -103h-25c0 25.333 -4.33301 51.166 -13 77.499s-17.667 46.166 -27 59.499l-13 20v25h576v-25
c-4 -5.33301 -9 -12.666 -15 -21.999s-13.833 -27.833 -23.5 -55.5s-14.5 -54.167 -14.5 -79.5h-24c0 32.667 -8.33301 67 -25 103s-34.667 54 -54 54c-32.667 0 -52.667 -3.5 -60 -10.5s-11 -25.167 -11 -54.5v-256c54 0 100.667 -4 140 -12s69.666 -17.833 90.999 -29.5
s38.166 -26.667 50.499 -45s20 -35 23 -50s4.5 -32.5 4.5 -52.5c0 -38 -8.83301 -75.833 -26.5 -113.5s-39.5 -70 -65.5 -97s-53.167 -51.167 -81.5 -72.5s-53.5 -37.333 -75.5 -48s-37.667 -16.334 -47 -17.001z" />
    <glyph glyph-name="afii10052" unicode="&#x403;" horiz-adv-x="584" 
d="M456 984l64 -71l-231 -160l-25 27zM325 0l-264 -0.000976562v24c32.667 0 52.667 3.33301 60 10s11 24.667 11 54v539c0 29.333 -3.66699 47.5 -11 54.5s-27.333 10.5 -60 10.5v25h463v-25c-4 -5.33301 -9 -12.666 -15 -21.999s-13.833 -27.833 -23.5 -55.5
s-14.5 -54.167 -14.5 -79.5h-25c0 36 -11.167 71.167 -33.5 105.5s-51.5 51.5 -87.5 51.5c-32.667 0 -52.667 -3.5 -60 -10.5s-11 -25.167 -11 -54.5v-539c0 -29.333 3.66699 -47.333 11 -54s27.333 -10 60 -10v-24z" />
    <glyph glyph-name="afii10053" unicode="&#x404;" horiz-adv-x="715" 
d="M574 128l-24.001 -43.998c-5.33301 -9.33301 -14.5 -21.333 -27.5 -36s-26.667 -25.334 -41 -32.001s-33.666 -12.667 -57.999 -18s-52.5 -8 -84.5 -8c-90 0 -158 33.5 -204 100.5s-69 156.5 -69 268.5c0 111.333 23 200.666 69 267.999s114 101 204 101
c32 0 60.167 -2.66699 84.5 -8s43.833 -11.5 58.5 -18.5s28.334 -17.5 41.001 -31.5s22 -26.167 28 -36.5s14 -25.166 24 -44.499c14.667 -29.333 41 -44 79 -44v-24h-263v24c33.333 0 55.166 3.66699 65.499 11s15.5 18.333 15.5 33c0 28 -11.167 54 -33.5 78
s-54.833 36 -97.5 36c-54 0 -91.833 -28 -113.5 -84s-32.834 -138.667 -33.501 -248h332v-25h-332c0.666992 -109.333 11.834 -192 33.501 -248s59.5 -84 113.5 -84c42.667 0 75.167 12 97.5 36s33.5 50 33.5 78c0 15.333 -5.16699 26.666 -15.5 33.999
s-32.166 11 -65.499 11v24h263v-24c-38.667 0 -65.334 -15 -80.001 -45z" />
    <glyph glyph-name="afii10054" unicode="&#x405;" horiz-adv-x="646" 
d="M217 33c-8 0 -22.167 -9.66504 -42.5 -28.998s-35.5 -29 -45.5 -29c-16.667 0 -34.167 8.16699 -52.5 24.5s-27.5 34.166 -27.5 53.499c0 8 10 21.667 30 41s38 29 54 29s33.167 -5.33301 51.5 -16s35 -22.167 50 -34.5s34.833 -23.833 59.5 -34.5s51 -16 79 -16
c26 0 47.5 11.833 64.5 35.5s25.5 59.834 25.5 108.501c0 115.333 -53.333 173 -160 173c-42.667 0 -78.667 4.5 -108 13.5s-51.333 22.167 -66 39.5s-24.834 35.666 -30.501 54.999s-8.5 42 -8.5 68c0 67.333 19.5 119.5 58.5 156.5s95.5 55.5 169.5 55.5
c41.333 0 77.5 -6.33301 108.5 -19s55.167 -29.5 72.5 -50.5s30.166 -43.833 38.499 -68.5s12.5 -50.334 12.5 -77.001c0 -9.33301 -20.333 -14 -61 -14s-61 4.66699 -61 14c0 66 -8.83301 114.167 -26.5 144.5s-45.5 45.5 -83.5 45.5c-30.667 0 -56.167 -16 -76.5 -48
s-30.5 -71.333 -30.5 -118c0 -22.667 1.33301 -42.5 4 -59.5s7.83398 -34.5 15.501 -52.5s20.334 -32 38.001 -42s39.5 -15 65.5 -15c167.333 0 251 -59 251 -177c0 -66.667 -18.833 -116.667 -56.5 -150s-92.167 -50 -163.5 -50c-31.333 0 -58.333 7.16699 -81 21.5
s-45 21.5 -67 21.5z" />
    <glyph glyph-name="afii10055" unicode="&#x406;" horiz-adv-x="386" 
d="M254 88c0 -29.333 3.66699 -47.333 11 -54s27.333 -10 60 -10v-24h-264v24c32.667 0 52.667 3.33301 60 10s11 24.667 11 54v540c0 29.333 -3.66699 47.5 -11 54.5s-27.333 10.5 -60 10.5v24h264v-24c-32.667 0 -52.667 -3.5 -60 -10.5s-11 -25.167 -11 -54.5v-540z" />
    <glyph glyph-name="afii10056" unicode="&#x407;" horiz-adv-x="386" 
d="M235 778c-6.66699 0 -10 3.33301 -10 10v111c0 6.66699 3.33301 10 10 10h61c6.66699 0 10 -3.33301 10 -10v-111c0 -6.66699 -3.33301 -10 -10 -10h-61zM86 778c-2.66699 0 -5.16699 1 -7.5 3s-3.5 4.33301 -3.5 7v111c0 2.66699 1.16699 5 3.5 7s4.83301 3 7.5 3h60
c6.66699 0 10 -3.33301 10 -10v-111c0 -6.66699 -3.33301 -10 -10 -10h-60zM254 88c0 -29.333 3.66699 -47.333 11 -54s27.333 -10 60 -10v-24h-264v24c32.667 0 52.667 3.33301 60 10s11 24.667 11 54v540c0 29.333 -3.66699 47.5 -11 54.5s-27.333 10.5 -60 10.5v24h264
v-24c-32.667 0 -52.667 -3.5 -60 -10.5s-11 -25.167 -11 -54.5v-540z" />
    <glyph glyph-name="afii10057" unicode="&#x408;" horiz-adv-x="696" 
d="M443 628c0 30 -3.66895 48.333 -11.002 55s-27 10 -59 10v24h263v-24c-32.667 0 -52.667 -3.5 -60 -10.5s-11 -25.167 -11 -54.5v-290c0 -66.667 -2.83301 -120.5 -8.5 -161.5s-16.667 -76.333 -33 -106s-39.166 -50.5 -68.499 -62.5s-67.333 -18 -114 -18
c-70.667 0 -124.667 16.667 -162 50s-63 85 -77 155c-0.666992 4 -1.66699 9.33301 -3 16s-2.16602 11.167 -2.49902 13.5s-1 5.66602 -2 9.99902s-2 7.16602 -3 8.49902s-2.33301 3.33301 -4 6s-3.66699 4.33398 -6 5.00098s-4.83301 1.66699 -7.5 3s-6.16699 2 -10.5 2
s-9 0.166992 -14 0.5s-10.833 0.5 -17.5 0.5v24h247v-24c-22.667 0 -37.5 -3.66699 -44.5 -11s-10.5 -25.333 -10.5 -54c0 -120.667 38.333 -181 115 -181c43.333 0 71.5 19.833 84.5 59.5s19.5 111.834 19.5 216.501v338z" />
    <glyph glyph-name="afii10058" unicode="&#x409;" horiz-adv-x="1007" 
d="M768 353c-74.667 9.33301 -133.333 33 -176 71v-336c0 -29.333 3.66699 -47.333 11 -54s27.333 -10 60 -10h34c32.667 0 52.667 3.33301 60 10s11 24.667 11 54v265zM592.001 475c31.333 -37.333 70.332 -63 116.999 -77s107 -21 181 -21v-289
c0 -29.333 3.66699 -47.333 11 -54s27.333 -10 60 -10v-24h-562v24c32.667 0 52.667 3.33301 60 10s11 24.667 11 54v474c-76.667 -38.667 -132.5 -94.334 -167.5 -167.001s-52.5 -175 -52.5 -307c0 -29.333 3.66699 -47.333 11 -54s27.333 -10 60 -10v-24h-264v24
c32.667 0 52.667 3.33301 60 10s11 24.667 11 54c0 45.333 2.33301 85.333 7 120s14 71.334 28 110.001s33.333 73.5 58 104.5s57.834 62.333 99.501 94s91.5 61.167 149.5 88.5v23c0 29.333 -3.66699 47.5 -11 54.5s-27.333 10.5 -60 10.5v24h264v-24
c-32.667 0 -52.667 -3.5 -60 -10.5s-11 -25.167 -11 -54.5v-153z" />
    <glyph glyph-name="afii10059" unicode="&#x40a;" horiz-adv-x="994" 
d="M649 24h35.001c32.667 0 52.667 3.33301 60 10s11 24.667 11 54v265c-74.667 9.33301 -133.334 33 -176.001 71v-336c0 -29.333 3.5 -47.333 10.5 -54s26.833 -10 59.5 -10zM579.001 628v-153c31.333 -37.333 70.333 -63 117 -77s107 -21 181 -21v-289
c0 -29.333 3.5 -47.333 10.5 -54s26.833 -10 59.5 -10v-24h-561v24c32.667 0 52.667 3.33301 60 10s11 24.667 11 54v130l-203 243v-373c0 -29.333 3.66699 -47.333 11 -54s27.333 -10 60 -10v-24h-264v24c32.667 0 52.667 3.33301 60 10s11 24.667 11 54v540
c0 29.333 -3.66699 47.5 -11 54.5s-27.333 10.5 -60 10.5v24h264v-24c-32.667 0 -52.667 -3.5 -60 -10.5s-11 -25.167 -11 -54.5v-118l203 -241v359c0 29.333 -3.66699 47.5 -11 54.5s-27.333 10.5 -60 10.5v24h263v-24c-32 0 -51.667 -3.33301 -59 -10s-11 -25 -11 -55z
" />
    <glyph glyph-name="afii10060" unicode="&#x40b;" horiz-adv-x="817" 
d="M268 627c0 30 -3.66895 48.334 -11.002 55.001s-27 10 -59 10c-19.333 0 -37.333 -18 -54 -54s-25 -70.333 -25 -103h-25c0 25.333 -4.33301 51.166 -13 77.499s-17.667 46.166 -27 59.499l-13 20v25h576v-25c-4 -5.33301 -9 -12.666 -15 -21.999
s-13.833 -27.833 -23.5 -55.5s-14.5 -54.167 -14.5 -79.5h-24c0 32.667 -8.33301 67 -25 103s-34.667 54 -54 54c-32.667 0 -52.667 -3.5 -60 -10.5s-11 -25.167 -11 -54.5v-271c51.333 0 91.833 -0.666992 121.5 -2s57.5 -5.66602 83.5 -12.999s44.667 -16 56 -26
s21.333 -26.167 30 -48.5s13.834 -46.333 15.501 -72s2.5 -60.834 2.5 -105.501c0 -29.333 3.66699 -47.5 11 -54.5s27.333 -10.5 60 -10.5v-24h-263v24c32.667 0 52.667 3.5 60 10.5s11 25.167 11 54.5c0 40 -0.5 71.5 -1.5 94.5s-4 44.833 -9 65.5s-11 35.5 -18 44.5
s-18.333 17 -34 24s-32.667 11.167 -51 12.5s-43.166 2 -74.499 2v-243c0 -29.333 3.83301 -47.5 11.5 -54.5s27.167 -10.5 58.5 -10.5h1v-24h-263v24c32 0 51.667 3.33301 59 10s11 25 11 55v538z" />
    <glyph glyph-name="afii10061" unicode="&#x40c;" horiz-adv-x="709" 
d="M456 984l64 -71l-231 -160l-25 27zM132 628c0 29.333 -3.66699 47.4941 -11 54.4941s-27.333 10.5 -60 10.5v24h264v-24c-32.667 0 -52.667 -3.5 -60 -10.5s-11 -25.167 -11 -54.5v-257h8c60.667 0 108.334 26.667 143.001 80s52 112.333 52 177
c0 29.333 -3.66699 47.5 -11 54.5s-27.333 10.5 -60 10.5v24h263v-24c-6.66699 0 -12.5 -0.166992 -17.5 -0.5s-9.66699 -0.5 -14 -0.5s-7.83301 -0.666992 -10.5 -2s-5.16699 -2.33301 -7.5 -3s-4.33301 -2.33398 -6 -5.00098s-3 -4.66699 -4 -6s-2 -4.16602 -3 -8.49902
s-1.66699 -7.66602 -2 -9.99902s-1.16602 -6.83301 -2.49902 -13.5s-2.33301 -12 -3 -16c-6 -32 -13.5 -60.667 -22.5 -86s-21.333 -50.833 -37 -76.5s-36.5 -47.667 -62.5 -66s-56.333 -32.166 -91 -41.499c34.667 -9.33301 65 -23.166 91 -41.499
s46.833 -40.166 62.5 -65.499s28 -50.666 37 -75.999s16.5 -54 22.5 -86c0.666992 -4 1.66699 -9.33301 3 -16s2.16602 -11.167 2.49902 -13.5s1 -5.66602 2 -9.99902s2 -7.16602 3 -8.49902s2.33301 -3.33301 4 -6s3.66699 -4.33398 6 -5.00098s4.83301 -1.66699 7.5 -3
s6.16699 -2 10.5 -2s9 -0.166992 14 -0.5s10.833 -0.5 17.5 -0.5v-24h-263v24c32.667 0 52.667 3.5 60 10.5s11 25.167 11 54.5c0 64.667 -17.333 123.667 -52 177s-82.334 80 -143.001 80h-8v-258c0 -29.333 3.66699 -47.333 11 -54s27.333 -10 60 -10v-24h-264v24
c32.667 0 52.667 3.33301 60 10s11 24.667 11 54v540z" />
    <glyph glyph-name="uni040D" unicode="&#x40d;" 
d="M239 984l193 -204l-25 -27l-231 160zM579 88c0 -29.333 3.5 -47.333 10.5 -54s26.833 -10 59.5 -10v-24h-263v24c32.667 0 52.667 3.33301 60 10s11 24.667 11 54v368l-203 -243v-125c0 -29.333 3.66699 -47.333 11 -54s27.333 -10 60 -10v-24h-264v24
c32.667 0 52.667 3.33301 60 10s11 24.667 11 54v540c0 29.333 -3.66699 47.5 -11 54.5s-27.333 10.5 -60 10.5v24h264v-24c-32.667 0 -52.667 -3.5 -60 -10.5s-11 -25.167 -11 -54.5v-364l203 241v123c0 29.333 -3.66699 47.5 -11 54.5s-27.333 10.5 -60 10.5v24h263v-24
c-32 0 -51.667 -3.33301 -59 -10s-11 -25 -11 -55v-540z" />
    <glyph glyph-name="afii10062" unicode="&#x40e;" horiz-adv-x="620" 
d="M327 780c-98 0 -146.999 19.332 -146.999 57.999c0 14 3.33301 25.167 10 33.5s15 12.5 25 12.5c14 0 23.667 -5 29 -15s8 -25.667 8 -47c18.667 -11.333 43.667 -17 75 -17c14 0 27.333 1.33301 40 4c13.333 2.66699 22.666 5.33398 27.999 8.00098l8 5
c0 21.333 2.66699 37 8 47s15 15 29 15c10 0 18.333 -4.16699 25 -12.5s10 -19.5 10 -33.5c0 -38.667 -49.333 -58 -148 -58zM279.001 38.999c-5.33301 -20.667 -16.835 -34.334 -34.502 -41.001s-54.167 -10 -109.5 -10c-9.33301 0 -14 4 -14 12c0 13.333 2 35 6 65
s8.66699 45 14 45h85c21.333 0 35.333 1.5 42 4.5s11.334 10.5 14.001 22.5l16 63l-203 428c-13.333 27.333 -26.166 45 -38.499 53s-34.5 12 -66.5 12v24h263v-24c-34.667 0 -52 -6.33301 -52 -19c0 -7.33301 5.33301 -22.666 16 -45.999l124 -261l84 327
c1.33301 6 3.83301 10.333 7.5 13s14.5 5 32.5 7s45 3 81 3c9.33301 0 14 -4 14 -12c0 -13.333 -2 -35 -6 -65s-8.66699 -45 -14 -45h-65c-20 0 -33.5 -2 -40.5 -6s-11.833 -11.333 -14.5 -22z" />
    <glyph glyph-name="afii10145" unicode="&#x40f;" horiz-adv-x="719" 
d="M392 24c32.667 0 52.667 3.5 60 10.5s11 25.167 11 54.5v540c0 29.333 -3.66699 47.333 -11 54s-27.333 10 -60 10v24h263v-24c-32.667 0 -52.5 -3.33301 -59.5 -10s-10.5 -24.667 -10.5 -54v-540c0 -30 3.66699 -48.333 11 -55s27 -10 59 -10v-24h-285l76 -77l-86 -87
l-87 87l78 77h-286v24c32 0 51.667 3.33301 59 10s11 25 11 55v540c0 29.333 -3.5 47.333 -10.5 54s-26.833 10 -59.5 10v24h263v-24c-32.667 0 -52.667 -3.33301 -60 -10s-11 -24.667 -11 -54v-540c0 -29.333 3.66699 -47.5 11 -54.5s27.333 -10.5 60 -10.5h64z" />
    <glyph glyph-name="afii10017" unicode="&#x410;" horiz-adv-x="661" 
d="M529 88c0 -29.333 3.66699 -47.335 11 -54.002s27.333 -10 60 -10v-24h-263v24c32.667 0 52.667 3.33301 60 10s11 24.667 11 54v289c-52.667 -76.667 -113 -115 -181 -115c26 -17.333 39 -41.666 39 -72.999c0 -37.333 -17.333 -63.666 -52 -78.999v-8
c0 -29.333 6.33301 -49.666 19 -60.999s34 -17 64 -17v-24h-236v24c30 0 51.167 5.66699 63.5 17s18.5 31.666 18.5 60.999v7c-16 6.66699 -29 17.167 -39 31.5s-15 30.5 -15 48.5c0 19.333 6 36.833 18 52.5s27 26.167 45 31.5c-43.333 15.333 -65 47.666 -65 96.999
c0 34 11.833 67.5 35.5 100.5s54.5 62.333 92.5 88s71.833 46.334 101.5 62.001s59.5 29.834 89.5 42.501c-2 13.333 -7.5 21.666 -16.5 24.999s-26.5 5 -52.5 5v24h263v-24c-32.667 0 -52.667 -3.5 -60 -10.5s-11 -25.167 -11 -54.5v-540zM408 423.998v204.001v4
c-20.667 -8 -40.667 -17.5 -60 -28.5s-40.833 -25.333 -64.5 -43s-42.667 -38.834 -57 -63.501s-21.5 -51 -21.5 -79c0 -62.667 26.667 -94 80 -94c34.667 0 75.667 33.333 123 100z" />
    <glyph glyph-name="afii10018" unicode="&#x411;" horiz-adv-x="675" 
d="M524 717v-25.001c-4 -5.33301 -9 -12.666 -15 -21.999s-13.833 -27.833 -23.5 -55.5s-14.5 -54.167 -14.5 -79.5h-25c0 36 -11.167 71.167 -33.5 105.5s-51.5 51.5 -87.5 51.5c-32.667 0 -52.667 -3.5 -60 -10.5s-11 -25.167 -11 -54.5v-152
c31.333 -37.333 70.333 -63 117 -77s107 -21 181 -21v-289c0 -29.333 3.66699 -47.333 11 -54s27.333 -10 60 -10v-24h-562v24c32.667 0 52.667 3.33301 60 10s11 24.667 11 54v539c0 29.333 -3.66699 47.5 -11 54.5s-27.333 10.5 -60 10.5v25h463zM430 352.999
c-74.667 9.33301 -133.333 33 -176 71v-336c0 -29.333 3.66699 -47.333 11 -54s27.333 -10 60 -10h34c32.667 0 52.667 3.33301 60 10s11 24.667 11 54v265z" />
    <glyph glyph-name="afii10019" unicode="&#x412;" horiz-adv-x="683" 
d="M132 88v541c0 29.333 -3.66699 47.333 -11 54s-27.333 10 -60 10v24h562v-24c-32.667 0 -52.667 -3.33301 -60 -10s-11 -24.667 -11 -54v-167c-74.667 0 -134.667 -6.5 -180 -19.5s-84.666 -37.833 -117.999 -74.5v-9c33.333 -36.667 72.666 -61.5 117.999 -74.5
s105.333 -19.5 180 -19.5v-177c0 -29.333 3.66699 -47.333 11 -54s27.333 -10 60 -10v-24h-562v24c32.667 0 52.667 3.33301 60 10s11 24.667 11 54zM430 241c-72.667 8.66699 -131.333 31.667 -176 69v-222c0 -29.333 3.66699 -47.333 11 -54s27.333 -10 60 -10h34
c32.667 0 52.667 3.33301 60 10s11 24.667 11 54v153zM254.001 417c44.667 37.333 103.333 60.333 176 69v143c0 29.333 -3.66699 47.333 -11 54s-27.333 10 -60 10h-34c-32.667 0 -52.667 -3.33301 -60 -10s-11 -24.667 -11 -54v-212z" />
    <glyph glyph-name="afii10020" unicode="&#x413;" horiz-adv-x="584" 
d="M325 0l-264 -0.000976562v24c32.667 0 52.667 3.33301 60 10s11 24.667 11 54v539c0 29.333 -3.66699 47.5 -11 54.5s-27.333 10.5 -60 10.5v25h463v-25c-4 -5.33301 -9 -12.666 -15 -21.999s-13.833 -27.833 -23.5 -55.5s-14.5 -54.167 -14.5 -79.5h-25
c0 36 -11.167 71.167 -33.5 105.5s-51.5 51.5 -87.5 51.5c-32.667 0 -52.667 -3.5 -60 -10.5s-11 -25.167 -11 -54.5v-539c0 -29.333 3.66699 -47.333 11 -54s27.333 -10 60 -10v-24z" />
    <glyph glyph-name="afii10021" unicode="&#x414;" horiz-adv-x="711" 
d="M219 693l0.00195312 24.001h263v-24c-43.333 0 -65 -7 -65 -21c0 -8 0.666992 -14 2 -18l153 -629h109v-25c-4 -5.33301 -9 -12.833 -15 -22.5s-13.833 -28.334 -23.5 -56.001s-14.5 -54.167 -14.5 -79.5h-25c0 26 -6.83301 54.167 -20.5 84.5
s-31.834 54.833 -54.501 73.5h-354c-22.667 -18.667 -40.834 -43.167 -54.501 -73.5s-20.5 -58.5 -20.5 -84.5h-24c0 25.333 -4.33301 51.333 -13 78c-9.33301 26.667 -18.333 46.667 -27 60l-13 20v25h113l151 616c2 7.33301 3 16 3 26c0 17.333 -23.333 26 -70 26z
M164.002 25.001h282l-142 586z" />
    <glyph glyph-name="afii10022" unicode="&#x415;" horiz-adv-x="720" 
d="M574 128l-24.0039 -43.999c-5.33301 -9.33301 -14.5 -21.333 -27.5 -36s-26.667 -25.334 -41 -32.001s-33.666 -12.667 -57.999 -18s-52.5 -8 -84.5 -8c-90 0 -158 33.5 -204 100.5s-69 156.5 -69 268.5c0 111.333 23 200.666 69 267.999s114 101 204 101
c32 0 60.167 -2.66699 84.5 -8s43.833 -11.5 58.5 -18.5s28.334 -17.5 41.001 -31.5s22 -26.167 28 -36.5s14 -25.166 24 -44.499c14.667 -29.333 41 -44 79 -44v-24h-263v24c33.333 0 55.166 3.66699 65.499 11s15.5 18.333 15.5 33c0 28 -11.167 54 -33.5 78
s-54.833 36 -97.5 36c-49.333 0 -85.166 -24 -107.499 -72s-35.166 -117.667 -38.499 -209c39.333 32 85 48 137 48c70 0 120.333 -6.5 151 -19.5s54.667 -37.5 72 -73.5c4.66699 -10.667 8.16699 -17.834 10.5 -21.501s6.83301 -10.167 13.5 -19.5s15 -16 25 -20
s21.667 -6 35 -6v-23h-263v23c25.333 0 44.5 2.33301 57.5 7s20.833 9.83398 23.5 15.501s4 13.834 4 24.501c0 18.667 -9.66699 37.667 -29 57s-52 29 -98 29c-52 0 -98.667 -20 -140 -60v-25c0 -113.333 10.833 -199 32.5 -257s59.834 -87 114.501 -87
c42.667 0 75.167 12 97.5 36s33.5 50 33.5 78c0 15.333 -5.16699 26.666 -15.5 33.999s-32.166 11 -65.499 11v24h263v-24c-38.667 0 -65.334 -15 -80.001 -45z" />
    <glyph glyph-name="afii10024" unicode="&#x416;" horiz-adv-x="1022" 
d="M567 346v-257.998c0 -29.333 3.66699 -47.333 11 -54s27.333 -10 60 -10v-24h-263v24c32.667 0 52.5 3.33301 59.5 10s10.5 24.667 10.5 54v258c-30.667 0 -58.334 -6.33301 -83.001 -19s-44.167 -28.334 -58.5 -47.001s-26.333 -40.167 -36 -64.5
s-16.167 -46.833 -19.5 -67.5s-5 -40.334 -5 -59.001c0 -30 3.66699 -48.333 11 -55s27 -10 59 -10v-24h-263v24c6.66699 0 12.5 0.166992 17.5 0.5s9.66699 0.5 14 0.5s7.83301 0.833008 10.5 2.5s5.16699 2.5 7.5 2.5s4.33301 1.66699 6 5s3 5.33301 4 6
s2.16699 3.5 3.5 8.5s2.16602 8.33301 2.49902 10s1.16602 6.16699 2.49902 13.5s2.33301 12.666 3 15.999c6 32 13.5 60.667 22.5 86s21.333 50.666 37 75.999s36.5 47.166 62.5 65.499s56.333 32.166 91 41.499c-34.667 9.33301 -65 23.166 -91 41.499
s-46.833 40.333 -62.5 66s-28 51.167 -37 76.5s-16.5 54 -22.5 86c-6 30.667 -10.667 48.334 -14 53.001c-6.66699 8 -25.667 12 -57 12v24h263v-24c-32 0 -51.667 -3.33301 -59 -10s-11 -25 -11 -55c0 -18.667 1.66699 -38.334 5 -59.001s9.83301 -43.167 19.5 -67.5
s21.667 -45.833 36 -64.5s33.833 -34.334 58.5 -47.001s52.334 -19 83.001 -19v257c0 30 -3.66699 48.333 -11 55s-27 10 -59 10v24h263v-24c-32.667 0 -52.667 -3.5 -60 -10.5s-11 -25.167 -11 -54.5v-257c38 0 71.167 9.16699 99.5 27.5s49.5 41.833 63.5 70.5
s24.167 56.334 30.5 83.001s9.5 52 9.5 76c0 29.333 -3.66699 47.5 -11 54.5s-27.333 10.5 -60 10.5v24h264v-24c-6.66699 0 -12.5 -0.166992 -17.5 -0.5s-9.66699 -0.5 -14 -0.5s-7.83301 -0.833008 -10.5 -2.5s-5.16699 -2.5 -7.5 -2.5s-4.33301 -1.66699 -6 -5
s-3 -5.33301 -4 -6s-2.16699 -3.5 -3.5 -8.5s-2.16602 -8.33301 -2.49902 -10s-1.16602 -6.16699 -2.49902 -13.5s-2.33301 -12.666 -3 -15.999c-6 -32 -13.5 -60.667 -22.5 -86s-21.333 -50.833 -37 -76.5s-36.5 -47.667 -62.5 -66s-56.333 -32.166 -91 -41.499
c34.667 -9.33301 65 -23.166 91 -41.499s46.833 -40.166 62.5 -65.499s28 -50.666 37 -75.999s16.5 -54 22.5 -86c6 -30.667 10.667 -48.334 14 -53.001c6.66699 -8 25.667 -12 57 -12v-24h-264v24c32.667 0 52.667 3.5 60 10.5s11 25.167 11 54.5
c0 24 -3.16699 49.333 -9.5 76s-16.5 54.334 -30.5 83.001s-35.167 52.167 -63.5 70.5s-61.5 27.5 -99.5 27.5z" />
    <glyph glyph-name="afii10025" unicode="&#x417;" horiz-adv-x="655" 
d="M323 378c-33.333 0 -61.001 -4.33398 -83.001 -13.001s-35.333 -13 -40 -13c-5.33301 0 -14.333 5.66699 -27 17s-19 19.333 -19 24c0 5.33301 6.16699 12.833 18.5 22.5s22.5 14.5 30.5 14.5c2 0 6.5 -2 13.5 -6s18.167 -8 33.5 -12s34.666 -6 57.999 -6
c40.667 0 71.334 15 92.001 45s31 66 31 108c0 44.667 -9.83301 79.667 -29.5 105s-45.5 38 -77.5 38c-38 0 -65.833 -15.167 -83.5 -45.5s-26.5 -78.5 -26.5 -144.5c0 -9.33301 -20.333 -14 -61 -14s-61 4.66699 -61 14c0 26.667 4.16699 52.334 12.5 77.001
s21.166 47.5 38.499 68.5s41.5 37.833 72.5 50.5s67.167 19 108.5 19c76.667 0 133.834 -15 171.501 -45s56.5 -77.667 56.5 -143c0 -74 -36.333 -123 -109 -147c52 -16 90 -42.5 114 -79.5s36 -77.833 36 -122.5c0 -66.667 -18.833 -116.667 -56.5 -150
s-92.167 -50 -163.5 -50c-31.333 0 -58.333 7.16699 -81 21.5s-45 21.5 -67 21.5c-8 0 -22.167 -9.66699 -42.5 -29s-35.5 -29 -45.5 -29c-16.667 0 -34.167 8.16699 -52.5 24.5s-27.5 34.166 -27.5 53.499c0 8 10 21.667 30 41s38 29 54 29s33.167 -5.33301 51.5 -16
s35 -22.167 50 -34.5s34.833 -23.833 59.5 -34.5s51 -16 79 -16c24.667 0 45.834 15.833 63.501 47.5s26.5 72.834 26.5 123.501c0 52 -11.667 95.833 -35 131.5s-61 53.5 -113 53.5z" />
    <glyph glyph-name="afii10026" unicode="&#x418;" 
d="M579 88c0 -29.333 3.5 -47.333 10.5 -54s26.833 -10 59.5 -10v-24h-263v24c32.667 0 52.667 3.33301 60 10s11 24.667 11 54v368l-203 -243v-125c0 -29.333 3.66699 -47.333 11 -54s27.333 -10 60 -10v-24h-264v24c32.667 0 52.667 3.33301 60 10s11 24.667 11 54v540
c0 29.333 -3.66699 47.5 -11 54.5s-27.333 10.5 -60 10.5v24h264v-24c-32.667 0 -52.667 -3.5 -60 -10.5s-11 -25.167 -11 -54.5v-364l203 241v123c0 29.333 -3.66699 47.5 -11 54.5s-27.333 10.5 -60 10.5v24h263v-24c-32 0 -51.667 -3.33301 -59 -10s-11 -25 -11 -55v-540
z" />
    <glyph glyph-name="afii10027" unicode="&#x419;" 
d="M355 780c-98 0 -146.999 19.332 -146.999 57.999c0 14 3.33301 25.167 10 33.5s15 12.5 25 12.5c14 0 23.667 -5 29 -15s8 -25.667 8 -47c18.667 -11.333 43.667 -17 75 -17c14 0 27.333 1.33301 40 4c13.333 2.66699 22.666 5.33398 27.999 8.00098l8 5
c0 21.333 2.66699 37 8 47s15 15 29 15c10 0 18.333 -4.16699 25 -12.5s10 -19.5 10 -33.5c0 -38.667 -49.333 -58 -148 -58zM579.001 87.999c0 -29.333 3.5 -47.333 10.5 -54s26.833 -10 59.5 -10v-24h-263v24c32.667 0 52.667 3.33301 60 10s11 24.667 11 54v368
l-203 -243v-125c0 -29.333 3.66699 -47.333 11 -54s27.333 -10 60 -10v-24h-264v24c32.667 0 52.667 3.33301 60 10s11 24.667 11 54v540c0 29.333 -3.66699 47.5 -11 54.5s-27.333 10.5 -60 10.5v24h264v-24c-32.667 0 -52.667 -3.5 -60 -10.5s-11 -25.167 -11 -54.5v-364
l203 241v123c0 29.333 -3.66699 47.5 -11 54.5s-27.333 10.5 -60 10.5v24h263v-24c-32 0 -51.667 -3.33301 -59 -10s-11 -25 -11 -55v-540z" />
    <glyph glyph-name="afii10028" unicode="&#x41a;" horiz-adv-x="709" 
d="M132 628c0 29.333 -3.66699 47.4941 -11 54.4941s-27.333 10.5 -60 10.5v24h264v-24c-32.667 0 -52.667 -3.5 -60 -10.5s-11 -25.167 -11 -54.5v-257h8c60.667 0 108.334 26.667 143.001 80s52 112.333 52 177c0 29.333 -3.66699 47.5 -11 54.5s-27.333 10.5 -60 10.5v24
h263v-24c-6.66699 0 -12.5 -0.166992 -17.5 -0.5s-9.66699 -0.5 -14 -0.5s-7.83301 -0.666992 -10.5 -2s-5.16699 -2.33301 -7.5 -3s-4.33301 -2.33398 -6 -5.00098s-3 -4.66699 -4 -6s-2 -4.16602 -3 -8.49902s-1.66699 -7.66602 -2 -9.99902
s-1.16602 -6.83301 -2.49902 -13.5s-2.33301 -12 -3 -16c-6 -32 -13.5 -60.667 -22.5 -86s-21.333 -50.833 -37 -76.5s-36.5 -47.667 -62.5 -66s-56.333 -32.166 -91 -41.499c34.667 -9.33301 65 -23.166 91 -41.499s46.833 -40.166 62.5 -65.499s28 -50.666 37 -75.999
s16.5 -54 22.5 -86c0.666992 -4 1.66699 -9.33301 3 -16s2.16602 -11.167 2.49902 -13.5s1 -5.66602 2 -9.99902s2 -7.16602 3 -8.49902s2.33301 -3.33301 4 -6s3.66699 -4.33398 6 -5.00098s4.83301 -1.66699 7.5 -3s6.16699 -2 10.5 -2s9 -0.166992 14 -0.5
s10.833 -0.5 17.5 -0.5v-24h-263v24c32.667 0 52.667 3.5 60 10.5s11 25.167 11 54.5c0 64.667 -17.333 123.667 -52 177s-82.334 80 -143.001 80h-8v-258c0 -29.333 3.66699 -47.333 11 -54s27.333 -10 60 -10v-24h-264v24c32.667 0 52.667 3.33301 60 10s11 24.667 11 54
v540z" />
    <glyph glyph-name="afii10029" unicode="&#x41b;" horiz-adv-x="709" 
d="M579 88c4 -30 9.33301 -48.1631 16 -54.4961s26 -9.5 58 -9.5v-24h-263v24c28 0 46.5 2 55.5 6s13.5 14 13.5 30c0 11.333 -0.666992 20.666 -2 27.999l-62 467c-14 -14.667 -27.833 -32.834 -41.5 -54.501s-28.667 -51 -45 -88s-29.5 -83.667 -39.5 -140
s-15 -117.833 -15 -184.5c0 -29.333 3.66699 -47.333 11 -54s27.333 -10 60 -10v-24h-264v24c32.667 0 52.667 3.33301 60 10s11 24.667 11 54c0 58 2 103 6 135s15.5 67.667 34.5 107s44.5 77.666 76.5 114.999s79 87.333 141 150l-4 33c-4 30 -9.5 48.333 -16.5 55
s-26.5 10 -58.5 10v24h263v-24c-28.667 0 -47 -2.33301 -55 -7s-12 -16.334 -12 -35.001c0 -9.33301 0.333008 -17 1 -23z" />
    <glyph glyph-name="afii10030" unicode="&#x41c;" horiz-adv-x="999" 
d="M552 88c4 -30 9.49902 -48.1611 16.499 -54.4941s26.5 -9.5 58.5 -9.5v-24h-263v24c27.333 0 45.5 2 54.5 6s13.5 14 13.5 30c0 11.333 -0.666992 20.666 -2 27.999l-61 467c-14 -14.667 -27.833 -32.834 -41.5 -54.501s-28.834 -51 -45.501 -88s-30 -83.667 -40 -140
s-15 -117.833 -15 -184.5c0 -29.333 3.66699 -47.333 11 -54s27.333 -10 60 -10v-24h-263v24c32.667 0 52.5 3.33301 59.5 10s10.5 24.667 10.5 54c0 76 5.33301 134.833 16 176.5s33.334 86.5 68.001 134.5s93 113.333 175 196l-5 33c-4 30.667 -9.5 49.167 -16.5 55.5
s-26.167 9.5 -57.5 9.5v24h263v-24c-28.667 0 -47.167 -2.33301 -55.5 -7s-12.5 -16.334 -12.5 -35.001c0 -9.33301 0.333008 -17 1 -23l34 -259c37.333 77.333 97 148.666 179 213.999l-6 45c-4 30 -9.5 48.333 -16.5 55s-26.5 10 -58.5 10v24h264v-24
c-28.667 0 -47.167 -2.33301 -55.5 -7s-12.5 -16.334 -12.5 -35.001c0 -9.33301 0.333008 -17 1 -23l71 -540c4 -30 9.33301 -48.167 16 -54.5s26 -9.5 58 -9.5v-24h-263v24c28 0 46.5 2 55.5 6s13.5 14 13.5 30c0 11.333 -0.666992 20.666 -2 27.999l-60 454
c-83.333 -73.333 -139.666 -170.333 -168.999 -291z" />
    <glyph glyph-name="afii10031" unicode="&#x41d;" 
d="M579 88c0 -29.333 3.5 -47.333 10.5 -54s26.833 -10 59.5 -10v-24h-263v24c32.667 0 52.667 3.33301 60 10s11 24.667 11 54v130l-203 243v-373c0 -29.333 3.66699 -47.333 11 -54s27.333 -10 60 -10v-24h-264v24c32.667 0 52.667 3.33301 60 10s11 24.667 11 54v540
c0 29.333 -3.66699 47.5 -11 54.5s-27.333 10.5 -60 10.5v24h264v-24c-32.667 0 -52.667 -3.5 -60 -10.5s-11 -25.167 -11 -54.5v-118l203 -241v359c0 29.333 -3.66699 47.5 -11 54.5s-27.333 10.5 -60 10.5v24h263v-24c-32 0 -51.667 -3.33301 -59 -10s-11 -25 -11 -55
v-540z" />
    <glyph glyph-name="afii10032" unicode="&#x41e;" horiz-adv-x="633" 
d="M317 703c-28.667 0 -52.334 -7.83203 -71.001 -23.499s-32.667 -39.667 -42 -72s-15.833 -67.833 -19.5 -106.5s-5.5 -86.334 -5.5 -143.001c0 -45.333 1 -84.333 3 -117s6 -64 12 -94s14 -54.333 24 -73s23.333 -33.334 40 -44.001s36.334 -16 59.001 -16
c28 0 51.333 7.83301 70 23.5s32.834 39.667 42.501 72s16.334 67.833 20.001 106.5s5.5 86.334 5.5 143.001s-1.83301 104.5 -5.5 143.5s-10.334 74.5 -20.001 106.5s-23.834 55.667 -42.501 71s-42 23 -70 23zM317 728.001c89.333 0 156 -33.502 200 -100.502
s66 -156.833 66 -269.5s-22 -202.167 -66 -268.5s-110.667 -99.5 -200 -99.5s-156 33.333 -200 100s-66 156.334 -66 269.001s22 202.334 66 269.001s110.667 100 200 100z" />
    <glyph glyph-name="afii10033" unicode="&#x41f;" 
d="M325 693c-32.667 0 -52.667 -3.5 -60 -10.5s-11 -25.167 -11 -54.5v-540c0 -29.333 3.66699 -47.333 11 -54s27.333 -10 60 -10v-24h-264v24c32.667 0 52.667 3.33301 60 10s11 24.667 11 54v540c0 29.333 -3.66699 47.5 -11 54.5s-27.333 10.5 -60 10.5v24h588v-24
c-32 0 -51.667 -3.33301 -59 -10s-11 -25 -11 -55v-540c0 -29.333 3.5 -47.333 10.5 -54s26.833 -10 59.5 -10v-24h-263v24c32.667 0 52.667 3.33301 60 10s11 24.667 11 54v540c0 29.333 -3.66699 47.5 -11 54.5s-27.333 10.5 -60 10.5h-61z" />
    <glyph glyph-name="afii10034" unicode="&#x420;" horiz-adv-x="591" 
d="M254 336l0.00195312 -247.999c0 -29.333 3.66699 -47.333 11 -54s27.333 -10 60 -10v-24h-264v24c32.667 0 52.667 3.33301 60 10s11 24.667 11 54v364c0 183.333 70.667 275 212 275c75.333 0 128.666 -15.833 159.999 -47.5s47 -80.834 47 -147.501
c0 -68 -15.833 -119.833 -47.5 -155.5s-84.834 -53.5 -159.501 -53.5c-34 0 -64 4.33301 -90 13zM254.002 525.001c0 -62.667 6.83301 -108.001 20.5 -136.001s36.834 -42 69.501 -42c56.667 0 85 61.667 85 185c0 60.667 -6.83301 104.167 -20.5 130.5
s-35.167 39.5 -64.5 39.5c-28.667 0 -50.834 -12.667 -66.501 -38s-23.5 -71.666 -23.5 -138.999z" />
    <glyph glyph-name="afii10035" unicode="&#x421;" horiz-adv-x="701" 
d="M182 358c0 -57.333 1.83105 -105.168 5.49805 -143.501s10.167 -73.666 19.5 -105.999s23.333 -56.166 42 -71.499s42 -23 70 -23c46.667 0 80.334 15.167 101.001 45.5s31 75.5 31 135.5c0 29.333 -3.66699 47.5 -11 54.5s-27.333 10.5 -60 10.5v24h263v-24
c-6.66699 0 -12.5 -0.166992 -17.5 -0.5s-9.66699 -0.5 -14 -0.5s-7.83301 -0.666992 -10.5 -2s-5.16699 -2.33301 -7.5 -3s-4.33301 -2.33398 -6 -5.00098s-3 -4.66699 -4 -6s-2 -4.16602 -3 -8.49902s-1.83301 -7.66602 -2.5 -9.99902s-1.66699 -6.83301 -3 -13.5
s-2.33301 -12 -3 -16c-15.333 -72 -41.666 -124.167 -78.999 -156.5s-96 -48.5 -176 -48.5c-89.333 0 -155.5 33.167 -198.5 99.5s-64.5 156.166 -64.5 269.499c0 112.667 21.5 202.334 64.5 269.001s109.167 100 198.5 100c80.667 0 139.834 -16.333 177.501 -49
s63.5 -84.667 77.5 -156c6 -30.667 10.667 -48.334 14 -53.001c6.66699 -8 25.667 -12 57 -12v-24h-263v24c32.667 0 52.667 3.5 60 10.5s11 25.167 11 54.5c0 60 -10.333 105 -31 135s-54.334 45 -101.001 45c-28 0 -51.333 -7.83301 -70 -23.5s-32.667 -39.667 -42 -72
s-15.833 -67.833 -19.5 -106.5s-5.5 -86.334 -5.5 -143.001z" />
    <glyph glyph-name="afii10036" unicode="&#x422;" horiz-adv-x="658" 
d="M461 0l-263 0.000976562v24c32.667 0 52.5 3.33301 59.5 10s10.5 24.667 10.5 54v539c0 30 -3.66699 48.333 -11 55s-27 10 -59 10c-19.333 0 -37.333 -18 -54 -54s-25 -70.333 -25 -103h-25c0 25.333 -4.33301 51.166 -13 77.499s-17.667 46.166 -27 59.499l-13 20v25
h576v-25c-4 -5.33301 -9 -12.666 -15 -21.999s-13.833 -27.833 -23.5 -55.5s-14.5 -54.167 -14.5 -79.5h-24c0 32.667 -8.33301 67 -25 103s-34.667 54 -54 54c-32.667 0 -52.667 -3.5 -60 -10.5s-11 -25.167 -11 -54.5v-539c0 -29.333 3.66699 -47.333 11 -54
s27.333 -10 60 -10v-24z" />
    <glyph glyph-name="afii10037" unicode="&#x423;" horiz-adv-x="620" 
d="M279 39c-5.33301 -20.667 -16.835 -34.334 -34.502 -41.001s-54.167 -10 -109.5 -10c-9.33301 0 -14 4 -14 12c0 13.333 2 35 6 65s8.66699 45 14 45h85c21.333 0 35.333 1.5 42 4.5s11.334 10.5 14.001 22.5l16 63l-203 428c-13.333 27.333 -26.166 45 -38.499 53
s-34.5 12 -66.5 12v24h263v-24c-34.667 0 -52 -6.33301 -52 -19c0 -7.33301 5.33301 -22.666 16 -45.999l124 -261l84 327c1.33301 6 3.83301 10.333 7.5 13s14.5 5 32.5 7s45 3 81 3c9.33301 0 14 -4 14 -12c0 -13.333 -2 -35 -6 -65s-8.66699 -45 -14 -45h-65
c-20 0 -33.5 -2 -40.5 -6s-11.833 -11.333 -14.5 -22z" />
    <glyph glyph-name="afii10038" unicode="&#x424;" horiz-adv-x="744" 
d="M431 88c0 -29.333 3.66699 -47.335 11 -54.002s27.333 -10 60 -10v-24h-263v24c32.667 0 52.5 3.33301 59.5 10s10.5 24.667 10.5 54v46c-82 4 -145.167 25.833 -189.5 65.5s-66.5 92.834 -66.5 159.501s22.167 119.834 66.5 159.501s107.5 61.5 189.5 65.5v44
c0 30 -3.66699 48.333 -11 55s-27 10 -59 10v24h263v-24c-32.667 0 -52.667 -3.5 -60 -10.5s-11 -25.167 -11 -54.5v-44c82 -4 145.167 -25.833 189.5 -65.5s66.5 -93.167 66.5 -160.5s-22 -120.5 -66 -159.5s-107.333 -60.5 -190 -64.5v-46zM431 556.998v-395
c41.333 6 73 23.333 95 52s33 77 33 145s-11 116.5 -33 145.5s-53.667 46.5 -95 52.5zM309 161.998v394c-41.333 -6 -73 -23.5 -95 -52.5s-33 -77.5 -33 -145.5s11 -116.167 33 -144.5s53.667 -45.5 95 -51.5z" />
    <glyph glyph-name="afii10039" unicode="&#x425;" horiz-adv-x="673" 
d="M529 88c14 -29.333 26.6699 -47.335 38.0029 -54.002s33.666 -10 66.999 -10v-24h-263v24c20 0 34 1.16699 42 3.5s12 6.83301 12 13.5c0 5.33301 -5.66699 21 -17 47l-94 196l-97 -191c-10 -18.667 -15 -33.334 -15 -44.001c0 -10 5.33301 -16.667 16 -20s29 -5 55 -5
v-24h-235v24c33.333 0 57.666 1.83301 72.999 5.5s27.166 9.66699 35.499 18s18.166 23.5 29.499 45.5l119 233l-143 302c-13.333 27.333 -26.333 45 -39 53s-35 12 -67 12v24h263v-24c-34.667 0 -52 -6.33301 -52 -19c0 -7.33301 5.33301 -22.666 16 -45.999l85 -178
l125 244c3.33301 6.66699 7 11.334 11 14.001s13.333 4.83398 28 6.50098s37.334 2.5 68.001 2.5c9.33301 0 14 -4 14 -12c0 -13.333 -2 -35 -6 -65s-8.66699 -45 -14 -45h-42c-45.333 0 -72 -7.66699 -80 -23l-84 -164z" />
    <glyph glyph-name="afii10040" unicode="&#x426;" horiz-adv-x="779" 
d="M740 25l0.000976562 -24.999c-4 -5.33301 -9 -12.833 -15 -22.5s-13.833 -28.334 -23.5 -56.001s-14.5 -54.167 -14.5 -79.5h-24c0 26 -6.83301 54.167 -20.5 84.5s-31.834 54.833 -54.501 73.5h-523v24c32 0 51.667 3.33301 59 10s11 25 11 55v540
c0 29.333 -3.5 47.333 -10.5 54s-26.833 10 -59.5 10v24h263v-24c-32.667 0 -52.667 -3.33301 -60 -10s-11 -24.667 -11 -54v-540c0 -29.333 3.66699 -47.5 11 -54.5s27.333 -10.5 60 -10.5h61c32.667 0 52.667 3.5 60 10.5s11 25.167 11 54.5v540
c0 29.333 -3.66699 47.333 -11 54s-27.333 10 -60 10v24h263v-24c-32.667 0 -52.5 -3.33301 -59.5 -10s-10.5 -24.667 -10.5 -54v-540c0 -30 3.66699 -48.333 11 -55s27 -10 59 -10z" />
    <glyph glyph-name="afii10041" unicode="&#x427;" horiz-adv-x="641" 
d="M509 88c0 -29.333 3.66992 -47.334 11.0029 -54.001s27.333 -10 60 -10v-24h-264v24c32.667 0 52.667 3.33301 60 10s11 24.667 11 54v272c-51.333 0 -91.833 0.833008 -121.5 2.5s-57.5 6.16699 -83.5 13.5s-44.667 15.833 -56 25.5s-21.333 25.834 -30 48.501
s-13.834 46.834 -15.501 72.501s-2.5 60.834 -2.5 105.501c0 29.333 -3.66699 47.5 -11 54.5s-27.333 10.5 -60 10.5v24h263v-24c-32 0 -51.667 -3.33301 -59 -10s-11 -25 -11 -55c0 -40.667 0.5 -72.334 1.5 -95.001s4 -44.334 9 -65.001s11 -35.5 18 -44.5
s18.167 -17 33.5 -24s32.166 -11.167 50.499 -12.5s43.166 -2 74.499 -2v243c0 29.333 -3.66699 47.5 -11 54.5s-27.333 10.5 -60 10.5v24h264v-24c-32.667 0 -52.667 -3.5 -60 -10.5s-11 -25.167 -11 -54.5v-540z" />
    <glyph glyph-name="afii10042" unicode="&#x428;" horiz-adv-x="1035" 
d="M711 24c32 0 51.667 3.33301 59 10s11 25 11 55v540c0 29.333 -3.5 47.333 -10.5 54s-26.833 10 -59.5 10v24h263v-24c-32.667 0 -52.667 -3.33301 -60 -10s-11 -24.667 -11 -54v-540c0 -29.333 3.66699 -47.5 11 -54.5s27.333 -10.5 60 -10.5v-24h-913v24
c32.667 0 52.667 3.5 60 10.5s11 25.167 11 54.5v540c0 29.333 -3.66699 47.333 -11 54s-27.333 10 -60 10v24h264v-24c-32.667 0 -52.667 -3.33301 -60 -10s-11 -24.667 -11 -54v-540c0 -29.333 3.66699 -47.5 11 -54.5s27.333 -10.5 60 -10.5h61
c32.667 0 52.667 3.5 60 10.5s11 25.167 11 54.5v540c0 29.333 -3.66699 47.333 -11 54s-27.333 10 -60 10v24h263v-24c-32.667 0 -52.5 -3.33301 -59.5 -10s-10.5 -24.667 -10.5 -54v-540c0 -30 3.66699 -48.333 11 -55s27 -10 59 -10h62z" />
    <glyph glyph-name="afii10043" unicode="&#x429;" horiz-adv-x="1041" 
d="M714 24c32 0 51.667 3.33301 59 10s11 25 11 55v540c0 29.333 -3.5 47.333 -10.5 54s-26.833 10 -59.5 10v24h263v-24c-32.667 0 -52.667 -3.33301 -60 -10s-11 -24.667 -11 -54v-540c0 -29.333 3.66699 -47.5 11 -54.5s27.333 -10.5 60 -10.5v-24h-447l77 -77l-86 -87
l-87 87l78 77h-447v24c32 0 51.667 3.33301 59 10s11 25 11 55v540c0 29.333 -3.5 47.333 -10.5 54s-26.833 10 -59.5 10v24h263v-24c-32.667 0 -52.667 -3.33301 -60 -10s-11 -24.667 -11 -54v-540c0 -29.333 3.66699 -47.5 11 -54.5s27.333 -10.5 60 -10.5h61
c32.667 0 52.667 3.5 60 10.5s11 25.167 11 54.5v540c0 29.333 -3.66699 47.333 -11 54s-27.333 10 -60 10v24h263v-24c-32.667 0 -52.5 -3.33301 -59.5 -10s-10.5 -24.667 -10.5 -54v-540c0 -30 3.66699 -48.333 11 -55s27 -10 59 -10h62z" />
    <glyph glyph-name="afii10044" unicode="&#x42a;" horiz-adv-x="789" 
d="M444 717v-24.998c-32 0 -51.667 -3.33301 -59 -10s-11 -25 -11 -55v-152c31.333 -37.333 70.333 -63 117 -77s107 -21 181 -21v-289c0 -29.333 3.5 -47.333 10.5 -54s26.833 -10 59.5 -10v-24h-561v24c32.667 0 52.667 3.33301 60 10s11 24.667 11 54v539
c0 29.333 -3.66699 47.5 -11 54.5s-27.333 10.5 -60 10.5c-24 0 -46.833 -18 -68.5 -54s-32.5 -70.333 -32.5 -103h-25c0 25.333 -4.5 51.166 -13.5 77.499s-17.833 46.166 -26.5 59.499l-13 20v25h442zM444 24.002h35.001c32.667 0 52.667 3.33301 60 10s11 24.667 11 54
v265c-74.667 9.33301 -133.334 33 -176.001 71v-336c0 -29.333 3.5 -47.333 10.5 -54s26.833 -10 59.5 -10z" />
    <glyph glyph-name="afii10045" unicode="&#x42b;" horiz-adv-x="1008" 
d="M877 88c0 -29.333 3.66699 -47.333 11 -54s27.333 -10 60 -10v-24h-264v24c32.667 0 52.667 3.33301 60 10s11 24.667 11 54v540c0 29.333 -3.66699 47.5 -11 54.5s-27.333 10.5 -60 10.5v24h264v-24c-32.667 0 -52.667 -3.5 -60 -10.5s-11 -25.167 -11 -54.5v-540z
M254 475c31.333 -37.333 70.333 -63 117 -77s107 -21 181 -21v-289c0 -29.333 3.66699 -47.333 11 -54s27.333 -10 60 -10v-24h-562v24c32.667 0 52.667 3.33301 60 10s11 24.667 11 54v540c0 29.333 -3.66699 47.5 -11 54.5s-27.333 10.5 -60 10.5v24h264v-24
c-32.667 0 -52.667 -3.5 -60 -10.5s-11 -25.167 -11 -54.5v-153zM430 353c-74.667 9.33301 -133.333 33 -176 71v-336c0 -29.333 3.66699 -47.333 11 -54s27.333 -10 60 -10h34c32.667 0 52.667 3.33301 60 10s11 24.667 11 54v265z" />
    <glyph glyph-name="afii10046" unicode="&#x42c;" horiz-adv-x="669" 
d="M254 475c31.333 -37.333 70.333 -63 117 -77s107 -21 181 -21v-289c0 -29.333 3.66699 -47.333 11 -54s27.333 -10 60 -10v-24h-562v24c32.667 0 52.667 3.33301 60 10s11 24.667 11 54v540c0 29.333 -3.66699 47.5 -11 54.5s-27.333 10.5 -60 10.5v24h264v-24
c-32.667 0 -52.667 -3.5 -60 -10.5s-11 -25.167 -11 -54.5v-153zM430 353c-74.667 9.33301 -133.333 33 -176 71v-336c0 -29.333 3.66699 -47.333 11 -54s27.333 -10 60 -10h34c32.667 0 52.667 3.33301 60 10s11 24.667 11 54v265z" />
    <glyph glyph-name="afii10047" unicode="&#x42d;" horiz-adv-x="739" 
d="M153 590l24.002 43.998c5.33301 9.33301 14.5 21.333 27.5 36s26.667 25.334 41 32.001s33.666 12.667 57.999 18s52.5 8 84.5 8c90 0 158.167 -33.667 204.5 -101s69.5 -157 69.5 -269c0 -111.333 -23.167 -200.5 -69.5 -267.5s-114.5 -100.5 -204.5 -100.5
c-32 0 -60.167 2.66699 -84.5 8s-43.833 11.5 -58.5 18.5s-28.334 17.5 -41.001 31.5s-22 26.167 -28 36.5s-14 25.166 -24 44.499c-14.667 29.333 -41 44 -79 44v24h263v-24c-33.333 0 -55.166 -3.66699 -65.499 -11s-15.5 -18.333 -15.5 -33
c0 -28 11.167 -54.167 33.5 -78.5s54.833 -36.5 97.5 -36.5c54 0 92 28.333 114 85s33.333 139.334 34 248.001h-333v25h333c-0.666992 108.667 -12 191 -34 247s-60 84 -114 84c-42.667 0 -75.167 -11.833 -97.5 -35.5s-33.5 -49.5 -33.5 -77.5
c0 -15.333 5.16699 -26.666 15.5 -33.999s32.166 -11 65.499 -11v-24h-263v24c38 0 64.667 15 80 45z" />
    <glyph glyph-name="afii10048" unicode="&#x42e;" horiz-adv-x="960" 
d="M254 88c0 -29.333 3.66699 -47.332 11 -53.999s27.333 -10 60 -10v-24h-264v24c32.667 0 52.667 3.33301 60 10s11 24.667 11 54v540c0 29.333 -3.66699 47.5 -11 54.5s-27.333 10.5 -60 10.5v24h264v-24c-32.667 0 -52.667 -3.5 -60 -10.5s-11 -25.167 -11 -54.5v-257
h124c1.33301 109.333 24 196.166 68 260.499s110 96.5 198 96.5c89.333 0 155.833 -33.333 199.5 -100s65.5 -156.667 65.5 -270c0 -112.667 -21.833 -202.167 -65.5 -268.5s-110.167 -99.5 -199.5 -99.5c-88 0 -154 32.167 -198 96.5s-66.667 150.833 -68 259.5h-124v-258z
M644 703.001c-28.667 0 -52.334 -7.8291 -71.001 -23.4961s-32.667 -39.667 -42 -72s-15.833 -67.833 -19.5 -106.5s-5.5 -86.334 -5.5 -143.001c0 -45.333 1 -84.333 3 -117s6 -64 12 -94s14 -54.333 24 -73s23.333 -33.334 40 -44.001s36.334 -16 59.001 -16
c28 0 51.333 7.83301 70 23.5s32.667 39.667 42 72s15.833 67.833 19.5 106.5s5.5 86.334 5.5 143.001c0 57.333 -1.83301 105.166 -5.5 143.499s-10.167 73.666 -19.5 105.999s-23.333 56.166 -42 71.499s-42 23 -70 23z" />
    <glyph glyph-name="afii10049" unicode="&#x42f;" horiz-adv-x="698" 
d="M374 0l0.00292969 24.001c32.667 0 52.5 3.33301 59.5 10s10.5 24.667 10.5 54v258c-60.667 -0.666992 -109.834 -28 -147.501 -82s-56.5 -112.333 -56.5 -175c0 -30 3.66699 -48.333 11 -55s27 -10 59 -10v-24h-263v24c6.66699 0 12.5 0.166992 17.5 0.5
s9.66699 0.5 14 0.5s7.83301 0.833008 10.5 2.5s5.16699 2.5 7.5 2.5s4.33301 1.66699 6 5s3 5.33301 4 6s2.16699 3.5 3.5 8.5s2.16602 8.33301 2.49902 10s1.16602 6.16699 2.49902 13.5s2.33301 12.666 3 15.999c7.33301 38 17.5 72 30.5 102s31.333 59.333 55 88
s55.667 51 96 67s87.5 24.333 141.5 25c-33.333 35.333 -72.5 59.333 -117.5 72s-104.167 19 -177.5 19v167c0 29.333 -3.5 47.333 -10.5 54s-26.833 10 -59.5 10v24h561v-24c-32.667 0 -52.667 -3.33301 -60 -10s-11 -24.667 -11 -54v-541
c0 -29.333 3.66699 -47.333 11 -54s27.333 -10 60 -10v-24h-263zM444.003 417.001l-0.000976562 212c0 29.333 -3.5 47.333 -10.5 54s-26.833 10 -59.5 10h-35c-32.667 0 -52.667 -3.33301 -60 -10s-11 -24.667 -11 -54v-143c72.667 -8.66699 131.334 -31.667 176.001 -69z
" />
    <glyph glyph-name="afii10065" unicode="&#x430;" horiz-adv-x="473" 
d="M341 495l87 -494.999h-104l-12 62c-40 -48 -92 -72 -156 -72c-38 0 -65.167 11.667 -81.5 35s-24.5 49.666 -24.5 78.999c0 86 67.667 185.667 203 299l-20 109h84c14 0 22 -5.66699 24 -17zM305 106.001l-47.999 270c-74 -62 -111 -127.667 -111 -197
c0 -26 6.66699 -51.167 20 -75.5s33.666 -36.5 60.999 -36.5c33.333 0 59.333 13 78 39z" />
    <glyph glyph-name="afii10066" unicode="&#x431;" horiz-adv-x="481" 
d="M430 0h-368.999v512h334v-25c-22 -28.667 -33 -71.667 -33 -129h-24c0 55.333 -6.5 90.666 -19.5 105.999s-42.167 23 -87.5 23h-67v-196c73.333 -2 128.166 -11 164.499 -27s62.333 -44.167 78 -84.5s23.5 -100.166 23.5 -179.499zM164.001 25h163.998
c-1.33301 80 -13.666 138.333 -36.999 175s-65.666 58 -126.999 64v-239z" />
    <glyph glyph-name="afii10067" unicode="&#x432;" horiz-adv-x="506" 
d="M447 0l-368.001 -0.000976562v512h342c0 -56.667 -14.333 -104.167 -43 -142.5s-67.667 -66.166 -117 -83.499c72.667 -8.66699 121.834 -33 147.501 -73s38.5 -111 38.5 -213zM180.999 24.999h163.998c-1.33301 80 -13.666 138.333 -36.999 175s-65.666 58 -126.999 64
v-239zM180.997 486.999v-194.001c48 5.33301 82.333 23.333 103 54s32 77.334 34 140.001h-137z" />
    <glyph glyph-name="afii10068" unicode="&#x433;" horiz-adv-x="436" 
d="M164 487v-486.999h-103v512h334v-25c-22 -28.667 -33 -71.667 -33 -129h-24c0 55.333 -6.5 90.666 -19.5 105.999s-42.167 23 -87.5 23h-67z" />
    <glyph glyph-name="afii10069" unicode="&#x434;" horiz-adv-x="665" 
d="M472 0l-277.998 0.000976562c-22.667 -18.667 -40.834 -43.167 -54.501 -73.5s-20.5 -58.5 -20.5 -84.5h-25c0 25.333 -4.33301 51.333 -13 78s-17.667 46.667 -27 60l-13 20v25h115l131 487h104l131 -487h103v-25c-4 -5.33301 -9 -12.833 -15 -22.5
s-14 -28.334 -24 -56.001s-15 -54.167 -15 -79.5h-24c0 26 -6.83301 54.167 -20.5 84.5s-31.834 54.833 -54.501 73.5zM180.002 25.001h236l-118 439z" />
    <glyph glyph-name="afii10070" unicode="&#x435;" horiz-adv-x="435" 
d="M346 487l-170 -79v-115l108 50l41 -59l-149 -70v-122c0 -21.333 7.33301 -32 22 -32c4.66699 0 8 0.666992 10 2l101 49l65 -50l-140 -65c-16 -7.33301 -32.667 -11 -50 -11c-30 0 -55.833 10 -77.5 30s-32.5 48 -32.5 84v296c0 30 12.667 50.333 38 61l146 68z" />
    <glyph glyph-name="afii10072" unicode="&#x436;" horiz-adv-x="739" 
d="M319 512h103.002v-212c49.333 16.667 86.166 41.667 110.499 75s36.5 79 36.5 137h103v-25c0 -52.667 -17.833 -94 -53.5 -124s-88.167 -56 -157.5 -78c68 -13.333 120.5 -42 157.5 -86s55.5 -110.333 55.5 -199h-103c0 83.333 -14.5 146.166 -43.5 188.499
s-64.167 67.833 -105.5 76.5v-265h-103v265c-41.333 -8.66699 -76.5 -34.167 -105.5 -76.5s-43.5 -105.166 -43.5 -188.499h-102c0 88.667 18.5 155 55.5 199s89.5 72.667 157.5 86c-69.333 22 -121.833 48 -157.5 78s-53.5 71.333 -53.5 124v25h102
c0 -58 12.167 -103.667 36.5 -137s61.166 -58.333 110.499 -75v212z" />
    <glyph glyph-name="afii10073" unicode="&#x437;" horiz-adv-x="569" 
d="M287 248c-26.667 0 -48.8311 -2.49902 -66.498 -7.49902s-28.5 -7.5 -32.5 -7.5s-11 4.16699 -21 12.5s-15 14.5 -15 18.5s4.83301 9.66699 14.5 17s17.5 11 23.5 11c2 0 5.66699 -1.16699 11 -3.5s14.166 -4.66602 26.499 -6.99902s27.833 -3.5 46.5 -3.5
c32.667 0 57 11.833 73 35.5s24 51.834 24 84.501c0 34 -7.5 59.5 -22.5 76.5s-35.5 25.5 -61.5 25.5c-30.667 0 -52.667 -10.333 -66 -31s-20 -55.667 -20 -105c0 -8 -16.667 -12 -50 -12c-35.333 0 -53 4 -53 12c0 43.333 15.667 80.833 47 112.5
s78.666 47.5 141.999 47.5c124 0 186 -47 186 -141c0 -26.667 -7.83301 -51.167 -23.5 -73.5s-37.834 -37.833 -66.501 -46.5c82 -24 123 -68.333 123 -133c0 -93.333 -59.667 -140 -179 -140c-30 0 -57.5 6.83301 -82.5 20.5s-43.833 20.5 -56.5 20.5
c-6 0 -17.333 -8.5 -34 -25.5s-29 -25.5 -37 -25.5c-13.333 0 -27.5 6 -42.5 18s-22.5 25.333 -22.5 40c0 8.66699 8 19.5 24 32.5s30.667 19.5 44 19.5c24.667 0 46.667 -3.83301 66 -11.5s34.333 -16.334 45 -26.001s24.834 -18.334 42.501 -26.001s37.5 -11.5 59.5 -11.5
c20 0 36.667 10.167 50 30.5s20 49.166 20 86.499c0 36.667 -8.66699 65.167 -26 85.5s-47.333 30.5 -90 30.5z" />
    <glyph glyph-name="afii10074" unicode="&#x438;" horiz-adv-x="501" 
d="M338 512h102v-512h-102v338l-174 -208v-130h-103v512h103v-331l174 207v124z" />
    <glyph glyph-name="afii10075" unicode="&#x439;" horiz-adv-x="501" 
d="M250 575c-98 0 -146.999 19.332 -146.999 57.999c0 14 3.33301 25.167 10 33.5s15 12.5 25 12.5c14 0 23.667 -5 29 -15s8 -25.667 8 -47c18.667 -11.333 43.667 -17 75 -17c14 0 27.333 1.33301 40 4c13.333 2.66699 22.666 5.33398 27.999 8.00098l8 5
c0 21.333 2.66699 37 8 47s15 15 29 15c10 0 18.333 -4.16699 25 -12.5s10 -19.5 10 -33.5c0 -38.667 -49.333 -58 -148 -58zM338.001 511.999h102v-512h-102v338l-174 -208v-130h-103v512h103v-331l174 207v124z" />
    <glyph glyph-name="afii10076" unicode="&#x43a;" horiz-adv-x="498" 
d="M79 512l101.999 0.000976562v-212c49.333 16.667 86.333 41.667 111 75s37 79 37 137h102v-25c0 -52.667 -17.833 -94 -53.5 -124s-88.167 -56 -157.5 -78c68 -13.333 120.5 -42 157.5 -86s55.5 -110.333 55.5 -199h-102c0 83.333 -14.667 146.166 -44 188.499
s-64.666 67.833 -105.999 76.5v-265h-102v512z" />
    <glyph glyph-name="afii10077" unicode="&#x43b;" horiz-adv-x="501" 
d="M364 495l87 -495.002h-105l-66 379c-82 -102 -123 -216.667 -123 -344c0 -16 0.333008 -27.667 1 -35h-109c2.66699 80.667 17.5 147.334 44.5 200.001s86.5 126.334 178.5 221.001l-16 91h84c14 0 22 -5.66699 24 -17z" />
    <glyph glyph-name="afii10078" unicode="&#x43c;" horiz-adv-x="727" 
d="M589 495l87.001 -495h-105l-68 391c-7.33301 -12 -19.833 -30 -37.5 -54s-32.834 -47 -45.501 -69s-22.334 -44.667 -29.001 -68l35 -200h-104l-66 373c-66.667 -96 -100 -207 -100 -333c0 -16 1.33301 -29.333 4 -40h-109
c1.33301 46.667 3.66602 82.334 6.99902 107.001s11.333 54 24 88s32 68.167 58 102.5s62 75.5 108 123.5l-17 91h84c14 0 22 -5.66699 24 -17l37 -211l25.5 28.5c13 14.333 22.5 25.166 28.5 32.499l23.5 29c9.66699 12 17.834 23 24.501 33s12.334 20 17.001 30l-14 75h86
c12.667 0 20 -5.66699 22 -17z" />
    <glyph glyph-name="afii10079" unicode="&#x43d;" horiz-adv-x="501" 
d="M164 0h-103v512h103v-154l174 -121v275h102v-512h-102v197l-174 121v-318z" />
    <glyph glyph-name="afii10080" unicode="&#x43e;" horiz-adv-x="552" 
d="M315 49c28.667 21.333 47.667 42.334 57 63.001s14 48.667 14 84c0 28.667 -6.16699 57.167 -18.5 85.5s-26.166 51.833 -41.499 70.5l-51 61c-18.667 22 -31.334 38.667 -38.001 50c-31.333 -20.667 -52.333 -41.334 -63 -62.001s-16 -48.667 -16 -84
c0 -29.333 7 -58.5 21 -87.5s29.5 -52.667 46.5 -71l53 -59c18.333 -21 30.5 -37.833 36.5 -50.5zM282 522.001c58 -25.333 107.833 -65.833 149.5 -121.5s62.5 -104.5 62.5 -146.5c0 -25.333 -7.16699 -54.166 -21.5 -86.499s-39.666 -66.333 -75.999 -102
s-79.5 -62.167 -129.5 -79.5c-58 25.333 -107.833 65.833 -149.5 121.5s-62.5 104.5 -62.5 146.5c0 25.333 7.16699 54.166 21.5 86.499s39.666 66.333 75.999 102s79.5 62.167 129.5 79.5z" />
    <glyph glyph-name="afii10081" unicode="&#x43f;" horiz-adv-x="501" 
d="M164 0h-103v512h379v-512h-102v487h-174v-487z" />
    <glyph glyph-name="afii10082" unicode="&#x440;" horiz-adv-x="530" 
d="M209 -20c9.33301 -46.667 13.999 -88.332 13.999 -124.999c0 -19.333 -3.83301 -37.666 -11.5 -54.999s-17.167 -31.666 -28.5 -42.999s-22.333 -21.333 -33 -30s-20 -15 -28 -19l-12 -6l-29 41c2.66699 2 6 5.16699 10 9.5s9.33301 14.166 16 29.499
s10 31.666 10 48.999c0 61.333 -11.333 130.666 -34 207.999s-34 149 -34 215c0 25.333 7.16699 54.166 21.5 86.499s39.5 66.333 75.5 102s79 62.167 129 79.5c58 -25.333 107.833 -65.833 149.5 -121.5s62.5 -104.5 62.5 -146.5c0 -35.333 -11.833 -73.666 -35.5 -114.999
s-57.667 -78 -102 -110s-91.166 -48.333 -140.499 -49zM197.999 24.002c121.333 5.33301 181.998 62.667 181.998 172c0 28.667 -6.33301 57.167 -19 85.5s-26.5 51.833 -41.5 70.5l-51 61c-19 22 -31.833 38.667 -38.5 50c-31.333 -20.667 -52.166 -41.167 -62.499 -61.5
s-15.5 -48.5 -15.5 -84.5c0 -20 0.833008 -40 2.5 -60s3.33398 -37.167 5.00098 -51.5s4.5 -31.5 8.5 -51.5s7 -34.5 9 -43.5s5.66699 -24.333 11 -46z" />
    <glyph glyph-name="afii10083" unicode="&#x441;" horiz-adv-x="467" 
d="M281 391c-32.667 38.667 -51.667 62.6689 -57 72.002c-31.333 -20.667 -52.333 -41.334 -63 -62.001s-16 -48.667 -16 -84c0 -29.333 7 -58.5 21 -87.5s29.667 -52.667 47 -71l53.5 -59c18.333 -21 30.5 -37.833 36.5 -50.5c34 25.333 55 51.333 63 78l56 -21
c-42 -55.333 -97.667 -95.333 -167 -120c-58 25.333 -107.833 65.833 -149.5 121.5s-62.5 104.5 -62.5 146.5c0 25.333 7.16699 54.166 21.5 86.499s39.5 66.333 75.5 102s79 62.167 129 79.5c38.667 -16.667 76 -43 112 -79z" />
    <glyph glyph-name="afii10084" unicode="&#x442;" horiz-adv-x="503" 
d="M198 0l0.000976562 486.999c-26.667 0 -46.334 -1 -59.001 -3s-24.167 -7.33301 -34.5 -16s-16.833 -21.334 -19.5 -38.001s-4 -40.667 -4 -72h-25c0 25.333 -2.66699 48.833 -8 70.5s-10.666 36.834 -15.999 45.501l-8 13v25h450v-25c-22 -28.667 -33 -71.667 -33 -129
h-24c0 31.333 -1.33301 55.333 -4 72s-9.16699 29.334 -19.5 38.001s-21.833 14 -34.5 16s-32.334 3 -59.001 3v-487h-102z" />
    <glyph glyph-name="afii10085" unicode="&#x443;" horiz-adv-x="568" 
d="M362 -45c0 -51.333 5 -91.334 15 -120.001s15 -47.334 15 -56.001c0 -7.33301 -1.83301 -13.333 -5.5 -18s-8.16699 -7 -13.5 -7c-24.667 0 -37 68.333 -37 205v41h-105l-183 487c-2 6 -3 11 -3 15c0 7.33301 5.33301 11 16 11h56c12 0 20.333 -1.5 25 -4.5
s8.66699 -9.5 12 -19.5l171 -457h12c3.33301 120 13 220 29 300s32 132.667 48 158c8.66699 14.667 40.667 22.334 96 23.001c8.66699 0 13 -4 13 -12c0 -13.333 -2 -35 -6 -65s-8.66699 -45 -14 -45h-31c-20.667 0 -35 -2.16699 -43 -6.5s-15 -13.166 -21 -26.499
c-6 -12.667 -12.167 -31.667 -18.5 -57s-12.5 -69 -18.5 -131s-9 -133.667 -9 -215z" />
    <glyph glyph-name="afii10086" unicode="&#x444;" horiz-adv-x="715" 
d="M399 603v-153.001c157.333 -7.33301 236 -82.666 236 -225.999c0 -142 -78.667 -216.667 -236 -224v-154h-102v154c-157.333 7.33301 -236 82.333 -236 225s78.667 217.667 236 225v153h102zM399 422.999v-394.999c42 6 74.667 23.5 98 52.5s35 77.167 35 144.5
s-11.667 115.666 -35 144.999s-56 47 -98 53zM297 28v393.999c-42 -6 -74.667 -23.667 -98 -53s-35 -77.666 -35 -144.999s11.667 -115.333 35 -144s56 -46 98 -52z" />
    <glyph glyph-name="afii10087" unicode="&#x445;" horiz-adv-x="510" 
d="M102 512l62 0.000976562l91 -157l77 134c3.33301 6 6.66602 10.167 9.99902 12.5s12.666 4.66602 27.999 6.99902s38 3.5 68 3.5c10 0 15 -4 15 -12c0 -12.667 -2.16699 -34.167 -6.5 -64.5s-9.16602 -45.5 -14.499 -45.5h-59c-43.333 0 -68.666 -7.33301 -75.999 -22
l-25 -44l188 -324h-118l-127 220l-123 -220h-41l146 253l-119 205c-5.33301 8.66699 -8 17.667 -8 27c0 18 10.667 27 32 27z" />
    <glyph glyph-name="afii10088" unicode="&#x446;" horiz-adv-x="645" 
d="M357 512l103.001 0.000976562v-487h152v-25c-4 -5.33301 -9 -12.833 -15 -22.5s-13.833 -28.334 -23.5 -56.001s-14.5 -54.167 -14.5 -79.5h-24c0 26 -6.83301 54.167 -20.5 84.5s-31.834 54.833 -54.501 73.5h-379v512h102v-487h174v487z" />
    <glyph glyph-name="afii10089" unicode="&#x447;" horiz-adv-x="485" 
d="M306 512l102.999 0.000976562v-512h-103v207c-24 -8 -49.667 -12 -77 -12c-51.333 0 -94 14.167 -128 42.5s-51 74.166 -51 137.499v137h103v-170c0 -28 2.33301 -51 7 -69s11.334 -30.5 20.001 -37.5s16.5 -11.5 23.5 -13.5s15.5 -3 25.5 -3s18.5 1 25.5 3
s15 6.5 24 13.5s15.833 19.5 20.5 37.5s7 41 7 69v170z" />
    <glyph glyph-name="afii10090" unicode="&#x448;" horiz-adv-x="770" 
d="M591 512h102v-512h-614v512h102v-487h154v487h102v-487h154v487z" />
    <glyph glyph-name="afii10091" unicode="&#x449;" horiz-adv-x="770" 
d="M591 512h102v-512h-256v-205h-102v205h-256v512h102v-487h154v487h102v-487h154v487z" />
    <glyph glyph-name="afii10092" unicode="&#x44a;" horiz-adv-x="651" 
d="M206 487l-19.001 -0.00195312c-45.333 0 -74.333 -7.66699 -87 -23s-19 -50.666 -19 -105.999h-25c0 25.333 -2.66699 48.833 -8 70.5s-10.666 36.834 -15.999 45.501l-8 13v25h284v-184l78 45c28.667 -23.333 65.5 -68.333 110.5 -135s85.167 -146 120.5 -238h-411v487z
M307.999 24.998h173.999c-16.667 64 -37.667 122.667 -63 176s-48.666 94 -69.999 122l-41 -23v-275z" />
    <glyph glyph-name="afii10093" unicode="&#x44b;" horiz-adv-x="724" 
d="M545 512h103v-512h-103v512zM78 512h103v-184l78 45c28.667 -23.333 65.5 -68.333 110.5 -135s85.167 -146 120.5 -238h-412v512zM181 25h173.999c-16.667 64 -37.667 122.667 -63 176s-48.666 94 -69.999 122l-41 -23v-275z" />
    <glyph glyph-name="afii10094" unicode="&#x44c;" horiz-adv-x="509" 
d="M61 512h103v-184l78 45c28.667 -23.333 65.5 -68.333 110.5 -135s85.167 -146 120.5 -238h-412v512zM164 25h173.999c-16.667 64 -37.667 122.667 -63 176s-48.666 94 -69.999 122l-41 -23v-275z" />
    <glyph glyph-name="afii10095" unicode="&#x44d;" horiz-adv-x="488" 
d="M191 391l-100 51.998c36 36 73.333 62.333 112 79c50 -17.333 93 -43.833 129 -79.5s61.167 -69.667 75.5 -102s21.5 -61.166 21.5 -86.499c0 -42 -20.833 -90.833 -62.5 -146.5s-91.5 -96.167 -149.5 -121.5c-69.333 24.667 -125 64.667 -167 120l56 21
c8 -26.667 29 -52.667 63 -78c6 13.333 19.667 31.333 41 54s42.5 47.667 63.5 75s35.833 55 44.5 83h-199v25h205c2 10 3 20.333 3 31c0 35.333 -5.33301 63.333 -16 84s-31.667 41.334 -63 62.001c-5.33301 -9.33301 -24.333 -33.333 -57 -72z" />
    <glyph glyph-name="afii10096" unicode="&#x44e;" horiz-adv-x="731" 
d="M79 512h102v-226h57c6 27.333 17 55 33 83s40.667 56.667 74 86s71.666 51.666 114.999 66.999c58 -25.333 107.833 -65.833 149.5 -121.5s62.5 -104.5 62.5 -146.5c0 -25.333 -7.16699 -54.166 -21.5 -86.499s-39.666 -66.333 -75.999 -102s-79.5 -62.167 -129.5 -79.5
c-58 25.333 -107.833 65.833 -149.5 121.5s-62.5 104.5 -62.5 146.5v7h-52v-261h-102v512zM494 49c28.667 21.333 47.5 42.168 56.5 62.501s13.5 48.5 13.5 84.5c0 28.667 -6.16699 57.167 -18.5 85.5s-26.166 51.833 -41.499 70.5l-51 61
c-18.667 22 -31.334 38.667 -38.001 50c-31.333 -20.667 -52.333 -41.334 -63 -62.001s-16 -48.667 -16 -84c0 -29.333 7 -58.5 21 -87.5s29.667 -52.667 47 -71l53.5 -59c18.333 -21 30.5 -37.833 36.5 -50.5z" />
    <glyph glyph-name="afii10097" unicode="&#x44f;" horiz-adv-x="486" 
d="M323 487h-164.001c2.66699 -122 57.334 -188 164.001 -198v198zM322.999 0v262c-41.333 0 -79 -22.167 -113 -66.5s-51 -109.5 -51 -195.5h-103c0 141.333 55.333 231.333 166 270c-63.333 10.667 -106.833 34.167 -130.5 70.5s-35.5 93.5 -35.5 171.5h369v-512h-102z
" />
    <glyph glyph-name="uni0450" unicode="&#x450;" horiz-adv-x="435" 
d="M90 817l193 -204l-25 -27l-231 160zM346 487l-170 -79v-115l108 50l41 -59l-149 -70v-122c0 -21.333 7.33301 -32 22 -32c4.66699 0 8 0.666992 10 2l101 49l65 -50l-140 -65c-16 -7.33301 -32.667 -11 -50 -11c-30 0 -55.833 10 -77.5 30s-32.5 48 -32.5 84v296
c0 30 12.667 50.333 38 61l146 68z" />
    <glyph glyph-name="afii10071" unicode="&#x451;" horiz-adv-x="435" 
d="M256 559c-6.66699 0 -10 3.33301 -10 10v111c0 6.66699 3.33301 10 10 10h61c6.66699 0 10 -3.33301 10 -10v-111c0 -6.66699 -3.33301 -10 -10 -10h-61zM107 559c-2.66699 0 -5.16699 1 -7.5 3s-3.5 4.33301 -3.5 7v111c0 2.66699 1.16699 5 3.5 7s4.83301 3 7.5 3h60
c6.66699 0 10 -3.33301 10 -10v-111c0 -6.66699 -3.33301 -10 -10 -10h-60zM346 487l-170 -79v-115l108 50l41 -59l-149 -70v-122c0 -21.333 7.33301 -32 22 -32c4.66699 0 8 0.666992 10 2l101 49l65 -50l-140 -65c-16 -7.33301 -32.667 -11 -50 -11
c-30 0 -55.833 10 -77.5 30s-32.5 48 -32.5 84v296c0 30 12.667 50.333 38 61l146 68z" />
    <glyph glyph-name="afii10099" unicode="&#x452;" horiz-adv-x="547" 
d="M486 244c0 -56 -9.00098 -108.164 -27.001 -156.497s-39.667 -87.333 -65 -117s-52.5 -55.334 -81.5 -77.001s-54 -36.834 -75 -45.501s-36.833 -13.334 -47.5 -14.001v24c72.667 27.333 123.167 67.833 151.5 121.5s42.5 137.5 42.5 251.5c0 66 -8 110.5 -24 133.5
s-40.333 34.5 -73 34.5c-11.333 0 -21.166 -1 -29.499 -3s-18.5 -6.5 -30.5 -13.5s-21.333 -19.5 -28 -37.5s-10 -41 -10 -69v-276h-102v487h-26v25h26v205h102v-205h206v-25h-206v-75c24 8 56.667 12 98 12c24 0 47.167 -3.16699 69.5 -9.5s43.5 -16 63.5 -29
s36 -31.667 48 -56s18 -52.833 18 -85.5z" />
    <glyph glyph-name="afii10100" unicode="&#x453;" horiz-adv-x="436" 
d="M396 815l64 -71l-231 -160l-25 27zM164 487v-486.999h-103v512h334v-25c-22 -28.667 -33 -71.667 -33 -129h-24c0 55.333 -6.5 90.666 -19.5 105.999s-42.167 23 -87.5 23h-67z" />
    <glyph glyph-name="afii10101" unicode="&#x454;" horiz-adv-x="467" 
d="M281 391c-32.667 38.667 -51.667 62.6689 -57 72.002c-31.333 -20.667 -52.333 -41.334 -63 -62.001s-16 -48.667 -16 -84c0 -10.667 1 -21 3 -31h205v-25h-199c8.66699 -28 23.5 -55.667 44.5 -83s42.167 -52.333 63.5 -75s35 -40.667 41 -54c34 25.333 55 51.333 63 78
l56 -21c-42 -55.333 -97.667 -95.333 -167 -120c-58 25.333 -107.833 65.833 -149.5 121.5s-62.5 104.5 -62.5 146.5c0 25.333 7.16699 54.166 21.5 86.499s39.5 66.333 75.5 102s79 62.167 129 79.5c38.667 -16.667 76 -43 112 -79z" />
    <glyph glyph-name="afii10102" unicode="&#x455;" horiz-adv-x="570" 
d="M191 39c-6 0 -17.999 -9.66602 -35.999 -28.999s-31 -29 -39 -29c-13.333 0 -27.5 6 -42.5 18s-22.5 25.333 -22.5 40c0 6.66699 9 19.5 27 38.5s33.333 28.5 46 28.5c18.667 0 52.167 -15 100.5 -45s85.166 -45 110.499 -45c20 0 37.167 12.167 51.5 36.5
s21.5 55.5 21.5 93.5c0 88.667 -42.667 133 -128 133c-55.333 0 -98.666 11.167 -129.999 33.5s-47 49.833 -47 82.5c0 47.333 15.5 80.333 46.5 99s78.5 28 142.5 28c63.333 0 110 -14.333 140 -43s45 -62.667 45 -102c0 -7.33301 -16.333 -11 -49 -11
c-35.333 0 -53 3.66699 -53 11c0 42.667 -6.33301 73.5 -19 92.5s-34 28.5 -64 28.5c-26 0 -46.833 -8.83301 -62.5 -26.5s-23.5 -43.5 -23.5 -77.5c0 -23.333 8.5 -44.333 25.5 -63s41.167 -28 72.5 -28c72 0 124.333 -12.833 157 -38.5s49 -58.834 49 -99.501
c0 -51.333 -16.333 -93.333 -49 -126s-76.667 -49 -132 -49c-20.667 0 -44.334 8.16699 -71.001 24.5s-49 24.5 -67 24.5z" />
    <glyph glyph-name="afii10103" unicode="&#x456;" horiz-adv-x="225" 
d="M61 512h103v-512h-103v512z" />
    <glyph glyph-name="afii10104" unicode="&#x457;" horiz-adv-x="281" 
d="M190 559c-6.66699 0 -10 3.33301 -10 10v111c0 6.66699 3.33301 10 10 10h61c6.66699 0 10 -3.33301 10 -10v-111c0 -6.66699 -3.33301 -10 -10 -10h-61zM41 559c-2.66699 0 -5.16699 1 -7.5 3s-3.5 4.33301 -3.5 7v111c0 2.66699 1.16699 5 3.5 7s4.83301 3 7.5 3h60
c6.66699 0 10 -3.33301 10 -10v-111c0 -6.66699 -3.33301 -10 -10 -10h-60zM95 512h103v-512h-103v512z" />
    <glyph glyph-name="afii10105" unicode="&#x458;" horiz-adv-x="327" 
d="M159 582c-2.66699 0 -5.16699 1 -7.5 3s-3.5 4.33301 -3.5 7v85c0 2.66699 1.16699 5 3.5 7s4.83301 3 7.5 3h60c6.66699 0 10 -3.33301 10 -10v-85c0 -6.66699 -3.33301 -10 -10 -10h-60zM137 512h103v-488c0 -81.333 -11.5 -139.833 -34.5 -175.5
s-60.167 -53.5 -111.5 -53.5c-16 0 -33.333 6.83301 -52 20.5s-31.667 20.5 -39 20.5c-6 0 -17.5 -8.5 -34.5 -25.5s-29.5 -25.5 -37.5 -25.5c-13.333 0 -27.333 6 -42 18s-22 25.333 -22 40c0 8.66699 7.83301 19.667 23.5 33s30.167 20 43.5 20
c26 0 55.167 -12.5 87.5 -37.5s59.5 -37.5 81.5 -37.5c13.333 0 22.333 14 27 42s7 70.667 7 128v521z" />
    <glyph glyph-name="afii10106" unicode="&#x459;" horiz-adv-x="813" 
d="M467 25h173.999c-16.667 64 -37.667 122.667 -63 176s-48.666 94 -69.999 122l-41 -23v-275zM364.999 512l102 -0.00195312v-184l78 45c28.667 -23.333 65.5 -68.333 110.5 -135s85.167 -146 120.5 -238h-411v402c-70.667 -34.667 -123 -84.167 -157 -148.5
s-51 -137.166 -51 -218.499c0 -16 0.333008 -27.667 1 -35h-109c1.33301 42.667 6.5 81.834 15.5 117.501s24.5 73.167 46.5 112.5s54.333 77.333 97 114s95 70.667 157 102v66z" />
    <glyph glyph-name="afii10107" unicode="&#x45a;" horiz-adv-x="786" 
d="M164 0h-102.999v512h103v-154l174 -121v275h102v-184l78 45c28.667 -23.333 65.667 -68.333 111 -135s85.666 -146 120.999 -238h-412v197l-174 121v-318zM440.001 300l-0.000976562 -275h174c-16.667 64 -37.667 122.667 -63 176s-48.666 94 -69.999 122z" />
    <glyph glyph-name="afii10108" unicode="&#x45b;" horiz-adv-x="559" 
d="M189 0h-102.001v487h-26v25h26v205h102v-205h206v-25h-206v-75c24 8 56.667 12 98 12c24 0 47.167 -3.16699 69.5 -9.5s43.5 -16 63.5 -29s36 -31.667 48 -56s18 -52.833 18 -85.5v-244h-102v276c0 28 -3.33301 51 -10 69s-15.834 30.5 -27.501 37.5
s-21.667 11.5 -30 13.5s-18.166 3 -29.499 3s-21.166 -1 -29.499 -3s-18.5 -6.5 -30.5 -13.5s-21.333 -19.5 -28 -37.5s-10 -41 -10 -69v-276z" />
    <glyph glyph-name="afii10109" unicode="&#x45c;" horiz-adv-x="498" 
d="M422 815l64 -71l-231 -160l-25 27zM79 512l101.999 0.000976562v-212c49.333 16.667 86.333 41.667 111 75s37 79 37 137h102v-25c0 -52.667 -17.833 -94 -53.5 -124s-88.167 -56 -157.5 -78c68 -13.333 120.5 -42 157.5 -86s55.5 -110.333 55.5 -199h-102
c0 83.333 -14.667 146.166 -44 188.499s-64.666 67.833 -105.999 76.5v-265h-102v512z" />
    <glyph glyph-name="uni045D" unicode="&#x45d;" horiz-adv-x="501" 
d="M82 815l193 -204l-25 -27l-231 160zM338 512h102v-512h-102v338l-174 -208v-130h-103v512h103v-331l174 207v124z" />
    <glyph glyph-name="afii10110" unicode="&#x45e;" horiz-adv-x="568" 
d="M294 559c-98 0 -146.999 19.332 -146.999 57.999c0 14 3.33301 25.167 10 33.5s15 12.5 25 12.5c14 0 23.667 -5 29 -15s8 -25.667 8 -47c18.667 -11.333 43.667 -17 75 -17c14 0 27.333 1.33301 40 4c13.333 2.66699 22.666 5.33398 27.999 8.00098l8 5
c0 21.333 2.66699 37 8 47s15 15 29 15c10 0 18.333 -4.16699 25 -12.5s10 -19.5 10 -33.5c0 -38.667 -49.333 -58 -148 -58zM362.001 -45.001c0 -51.333 5 -91.334 15 -120.001s15 -47.334 15 -56.001c0 -7.33301 -1.83301 -13.333 -5.5 -18s-8.16699 -7 -13.5 -7
c-24.667 0 -37 68.333 -37 205v41h-105l-183 487c-2 6 -3 11 -3 15c0 7.33301 5.33301 11 16 11h56c12 0 20.333 -1.5 25 -4.5s8.66699 -9.5 12 -19.5l171 -457h12c3.33301 120 13 220 29 300s32 132.667 48 158c8.66699 14.667 40.667 22.334 96 23.001
c8.66699 0 13 -4 13 -12c0 -13.333 -2 -35 -6 -65s-8.66699 -45 -14 -45h-31c-20.667 0 -35 -2.16699 -43 -6.5s-15 -13.166 -21 -26.499c-6 -12.667 -12.167 -31.667 -18.5 -57s-12.5 -69 -18.5 -131s-9 -133.667 -9 -215z" />
    <glyph glyph-name="afii10193" unicode="&#x45f;" horiz-adv-x="534" 
d="M355 25v487h103v-512h-139v-205h-102v205h-138v512h102v-487h174z" />
    <glyph glyph-name="uni0460" unicode="&#x460;" horiz-adv-x="1005" 
d="M420 628c0 29.333 -3.66797 47.5 -11.001 54.5s-27.333 10.5 -60 10.5v24h263v-24c-32 0 -51.667 -3.33301 -59 -10s-11 -25 -11 -55v-149c0 -96.667 15 -180.334 45 -251.001s61.333 -122.667 94 -156c34 44.667 64.833 100.5 92.5 167.5s41.5 141.5 41.5 223.5v151
c0 29.333 -6.33301 49.833 -19 61.5s-34 17.5 -64 17.5v24h213v-24c-30 0 -51.167 -5.83301 -63.5 -17.5s-18.5 -32.167 -18.5 -61.5v-79c0 -64.667 -7.5 -127.667 -22.5 -189s-33.167 -112.833 -54.5 -154.5s-42.666 -78.667 -63.999 -111s-39.333 -56.166 -54 -71.499
l-23 -23l-11.5 8.5c-5 3.66699 -14.667 12.5 -29 26.5s-28.166 28.833 -41.499 44.5s-28.333 36.5 -45 62.5s-31.334 53.333 -44.001 82c-12 -28.667 -25.5 -56 -40.5 -82s-28.667 -47.333 -41 -64s-24 -31.167 -35 -43.5s-19.5 -21.166 -25.5 -26.499l-9 -8
c-6 4 -14.167 10.333 -24.5 19s-28.5 28 -54.5 58s-48.833 62.333 -68.5 97s-37.667 80.5 -54 137.5s-24.5 116.5 -24.5 178.5v152c0 30 -3.66699 48.333 -11 55s-27 10 -59 10v24h263v-24c-32.667 0 -52.667 -3.5 -60 -10.5s-11 -25.167 -11 -54.5v-149
c0 -96.667 15 -180.334 45 -251.001s61.333 -122.667 94 -156c42 55.333 75 116.333 99 183c-24.667 69.333 -37 143 -37 221v152z" />
    <glyph glyph-name="uni0461" unicode="&#x461;" horiz-adv-x="787" 
d="M537 -10c-6 3.33301 -14.168 8.16504 -24.501 14.498s-28.166 20.666 -53.499 42.999s-47.333 46.833 -66 73.5c-16 -28.667 -34 -54 -54 -76c-20.667 -22 -37 -36.667 -49 -44l-18 -11c-6 3.33301 -13.667 8 -23 14s-26.333 19.667 -51 41s-46.334 44.333 -65.001 69
s-35.667 57.334 -51 98.001s-23 83.334 -23 128.001c0 35.333 4.66699 67.333 14 96c9.33301 29.333 18.666 49.333 27.999 60l14 16h98c-4 -5.33301 -8.83301 -12.833 -14.5 -22.5s-13.167 -29.334 -22.5 -59.001s-14 -59.167 -14 -88.5c0 -66.667 14 -124.667 42 -174
s58.333 -87 91 -113c31.333 28 57 62 77 102c-32 57.333 -48 118.333 -48 183c0 35.333 4.66699 67.333 14 96c9.33301 29.333 18.666 49.333 27.999 60l13 16h98c-4 -5.33301 -8.83301 -12.833 -14.5 -22.5s-13.167 -29.334 -22.5 -59.001s-14 -59.167 -14 -88.5
c0 -66.667 14 -124.667 42 -174s58.333 -87 91 -113c72.667 64.667 109 145.334 109 242.001c0 30.667 -5.66699 58.334 -17 83.001s-22.666 47.334 -33.999 68.001s-17 42 -17 64h100c1.33301 -5.33301 5.83301 -17.333 13.5 -36s11.5 -38.667 11.5 -60
c0 -61.333 -6.5 -118 -19.5 -170s-28.667 -93 -47 -123s-36.666 -55.667 -54.999 -77s-34.166 -36 -47.499 -44z" />
    <glyph glyph-name="afii10146" unicode="&#x462;" horiz-adv-x="809" 
d="M187 580c-19.333 0 -37.168 -17.999 -53.501 -53.999s-24.5 -70.667 -24.5 -104h-25c0 25.333 -4.33301 51.333 -13 78s-17.667 46.667 -27 60l-13 20v24h227v24c0 29.333 -3.66699 47.5 -11 54.5s-27.333 10.5 -60 10.5v24h264v-24c-32.667 0 -52.667 -3.5 -60 -10.5
s-11 -25.167 -11 -54.5v-24h227v-24c-4 -5.33301 -9 -12.833 -15 -22.5s-13.833 -28.334 -23.5 -56.001s-14.5 -54.167 -14.5 -79.5h-25c0 33.333 -8.16699 68 -24.5 104s-34.166 54 -53.499 54h-71v-156c31.333 -37.333 70.333 -63 117 -77s107 -21 181 -21v-238
c0 -29.333 3.66699 -47.333 11 -54s27.333 -10 60 -10v-24h-562v24c32.667 0 52.667 3.33301 60 10s11 24.667 11 54v492h-71zM555.998 302.001c-74.667 9.33301 -133.333 33 -176 71v-285c0 -29.333 3.66699 -47.333 11 -54s27.333 -10 60 -10h34
c32.667 0 52.667 3.33301 60 10s11 24.667 11 54v214z" />
    <glyph glyph-name="afii10194" unicode="&#x463;" horiz-adv-x="720" 
d="M368 25h173.999c-16.667 64 -37.667 122.667 -63 176s-48.666 94 -69.999 122l-41 -23v-275zM264.999 717l103.001 -0.000976562v-205h241v-25c-4 -5.33301 -9 -12.666 -15 -21.999s-13.833 -27.833 -23.5 -55.5s-14.5 -54.167 -14.5 -79.5h-25c0 26 -6.66699 54 -20 84
s-31.333 54.333 -54 73h-89v-159l77 45c28.667 -23.333 65.667 -68.333 111 -135s85.666 -146 120.999 -238h-412v487h-106v-184h-103v209h209v205z" />
    <glyph glyph-name="uni0464" unicode="&#x464;" horiz-adv-x="1017" 
d="M887 127c-10.667 -20 -18.8359 -34.668 -24.5029 -44.001s-15 -21.333 -28 -36s-26.667 -25.334 -41 -32.001s-33.666 -12.667 -57.999 -18s-52.5 -8 -84.5 -8c-88 0 -155.167 32.333 -201.5 97s-70.166 151.334 -71.499 260.001h-124v-258
c0 -29.333 3.66699 -47.333 11 -54s27.333 -10 60 -10v-24h-264v24c32.667 0 52.667 3.33301 60 10s11 24.667 11 54v540c0 29.333 -3.66699 47.5 -11 54.5s-27.333 10.5 -60 10.5v24h264v-24c-32.667 0 -52.667 -3.5 -60 -10.5s-11 -25.167 -11 -54.5v-257h124
c1.33301 108 25.166 194.333 71.499 259s113.5 97 201.5 97c32 0 60.167 -2.66699 84.5 -8s44 -11.5 59 -18.5s28.833 -17.5 41.5 -31.5s22.167 -26.167 28.5 -36.5s14.166 -25.166 23.499 -44.499c14.667 -29.333 41 -44 79 -44v-24h-264v24
c33.333 0 55.166 3.66699 65.499 11s15.5 18.333 15.5 33c0 28 -11.167 54 -33.5 78s-54.833 36 -97.5 36c-49.333 0 -85.166 -24 -107.499 -72s-35.166 -117.667 -38.499 -209c39.333 32 85 48 137 48c70 0 120.333 -6.5 151 -19.5s54.667 -37.5 72 -73.5
c4.66699 -10.667 8.16699 -17.834 10.5 -21.501s6.83301 -10.167 13.5 -19.5s15 -16 25 -20s21.667 -6 35 -6v-23h-263v23c25.333 0 44.5 2.33301 57.5 7s20.833 9.83398 23.5 15.501s4 13.834 4 24.501c0 18.667 -9.66699 37.667 -29 57s-52 29 -98 29
c-52 0 -98.667 -20 -140 -60v-25c0 -113.333 10.833 -199 32.5 -257s59.834 -87 114.501 -87c42.667 0 75.167 12 97.5 36s33.5 50 33.5 78c0 15.333 -5.16699 26.666 -15.5 33.999s-32.166 11 -65.499 11v24h264v-24c-38 0 -64.667 -15 -80 -45z" />
    <glyph glyph-name="uni0465" unicode="&#x465;" horiz-adv-x="683" 
d="M489 391c-31.333 36.667 -50 60.6689 -56 72.002c-31.333 -20.667 -52.333 -41.334 -63 -62.001s-16 -48.667 -16 -84c0 -10.667 1 -21 3 -31h205v-25h-200c8.66699 -28 23.5 -55.667 44.5 -83s42.333 -52.333 64 -75s35.5 -40.667 41.5 -54
c32.667 24.667 53.334 50.667 62.001 78l57 -21c-42 -55.333 -97.667 -95.333 -167 -120c-58 25.333 -107.833 65.833 -149.5 121.5s-62.5 104.5 -62.5 146.5v7h-71v-261h-102v512h102v-226h75c6 27.333 17 55 33 83s40.667 56.667 74 86s71.666 51.666 114.999 66.999
c38.667 -16.667 76 -43 112 -79z" />
    <glyph glyph-name="uni0466" unicode="&#x466;" horiz-adv-x="927" 
d="M433 665c-86.667 -111.333 -144.667 -209.333 -174 -294h362c-43.333 91.333 -106 189.333 -188 294zM707 72c0 18 -7.00195 55 -21.002 111s-32.333 110.333 -55 163h-109v-258c0 -29.333 3.66699 -47.333 11 -54s27.333 -10 60 -10v-24h-263v24
c32.667 0 52.5 3.33301 59.5 10s10.5 24.667 10.5 54v258h-149c-20.667 -68.667 -31 -154.667 -31 -258c0 -29.333 3.66699 -47.333 11 -54s27.333 -10 60 -10v-24h-263v24c32.667 0 52.5 3.33301 59.5 10s10.5 24.667 10.5 54c0 76.667 30.333 172 91 286
s134.334 220 221.001 318h-64v25h243v-25h-33c64.667 -72.667 121.167 -163 169.5 -271s80.833 -208.667 97.5 -302c0.666992 -4 1.83398 -11.667 3.50098 -23s3 -18.5 4 -21.5s2.5 -8.5 4.5 -16.5s4.5 -13.167 7.5 -15.5s6.83301 -5.5 11.5 -9.5s10.334 -6.5 17.001 -7.5
s14.667 -1.5 24 -1.5v-24h-263v24c27.333 0 46.666 3.5 57.999 10.5s17 19.5 17 37.5z" />
    <glyph glyph-name="uni0467" unicode="&#x467;" horiz-adv-x="717" 
d="M330 484c-74 -106.667 -124.333 -204.667 -151 -294h323c-40 100 -97.333 198 -172 294zM37 0c18.667 74 52.833 157.167 102.5 249.5s105.5 179.833 167.5 262.5h133c49.333 -65.333 95.333 -145.333 138 -240s74.667 -185.334 96 -272.001h-116
c-9.33301 46.667 -25.333 102 -48 166h-100v-166h-103v166h-135c-13.333 -53.333 -21.333 -108.666 -24 -165.999h-111z" />
    <glyph glyph-name="uni0468" unicode="&#x468;" horiz-adv-x="1259" 
d="M1038 72c0 18.667 -6.83398 55.832 -20.501 111.499s-31.834 109.834 -54.501 162.501h-109v-258c0 -29.333 3.66699 -47.333 11 -54s27.333 -10 60 -10v-24h-263v24c32.667 0 52.5 3.33301 59.5 10s10.5 24.667 10.5 54v258h-149c-20.667 -68.667 -31 -154.667 -31 -258
c0 -29.333 3.66699 -47.333 11 -54s27.333 -10 60 -10v-24h-264v24c32.667 0 52.667 3.33301 60 10s11 24.667 11 54c0 67.333 25.667 153.333 77 258h-253v-258c0 -29.333 3.66699 -47.333 11 -54s27.333 -10 60 -10v-24h-264v24c32.667 0 52.667 3.33301 60 10
s11 24.667 11 54v540c0 29.333 -3.66699 47.5 -11 54.5s-27.333 10.5 -60 10.5v24h264v-24c-32.667 0 -52.667 -3.5 -60 -10.5s-11 -25.167 -11 -54.5v-257h265c57.333 111.333 131.333 218.333 222 321h-63v25h243v-25h-33c64.667 -72.667 121.167 -163 169.5 -271
s80.833 -208.667 97.5 -302c0.666992 -4 1.83398 -11.667 3.50098 -23s3 -18.5 4 -21.5s2.5 -8.5 4.5 -16.5s4.5 -13.167 7.5 -15.5s6.83301 -5.5 11.5 -9.5s10.334 -6.5 17.001 -7.5s14.667 -1.5 24 -1.5v-24h-263v24c27.333 0 46.5 3.5 57.5 10.5s16.5 19.5 16.5 37.5z
M764.999 664.998c-86.667 -111.333 -144.667 -209.333 -174 -294h361c-44 94 -106.333 192 -187 294z" />
    <glyph glyph-name="uni0469" unicode="&#x469;" horiz-adv-x="909" 
d="M521 484c-72.667 -104.667 -122.667 -202.667 -150 -294h322c-40 100 -97.333 198 -172 294zM351 286c42.667 74.667 92.002 150 148.002 226h133c49.333 -65.333 95.166 -145.333 137.499 -240s74.166 -185.334 95.499 -272.001h-115c-8.66699 42 -25 97.333 -49 166
h-100v-166h-102v166h-135c-13.333 -53.333 -21.333 -108.666 -24 -165.999h-112c16.667 70.667 53 157.667 109 261h-156v-261h-102v512h102v-226h170z" />
    <glyph glyph-name="uni046A" unicode="&#x46a;" horiz-adv-x="1035" 
d="M457 346c-38 0 -71.165 -9.16602 -99.498 -27.499s-49.5 -41.833 -63.5 -70.5s-24.167 -56.334 -30.5 -83.001s-9.5 -52 -9.5 -76c0 -29.333 3.66699 -47.5 11 -54.5s27.333 -10.5 60 -10.5v-24h-264v24c6.66699 0 12.5 0.166992 17.5 0.5s9.66699 0.5 14 0.5
s7.83301 0.833008 10.5 2.5s5.16699 2.5 7.5 2.5s4.33301 1.66699 6 5s3 5.33301 4 6s2.16699 3.5 3.5 8.5s2.16602 8.33301 2.49902 10s1.16602 6.16699 2.49902 13.5s2.33301 12.666 3 15.999c6 30.667 13 58.167 21 82.5s20 49.5 36 75.5s35 47.5 57 64.5
s50.333 31.167 85 42.5s74 17 118 17l-243 346h620l-242 -346h1c44.667 0 84.334 -5.66699 119.001 -17s63 -25.5 85 -42.5s41 -38.5 57 -64.5s28 -51.167 36 -75.5s15 -51.833 21 -82.5s10.667 -48.334 14 -53.001c6.66699 -8 25.667 -12 57 -12v-24h-263v24
c32 0 51.667 3.33301 59 10s11 25 11 55c0 18.667 -1.66699 38.334 -5 59.001s-9.83301 43.167 -19.5 67.5s-21.667 45.833 -36 64.5s-33.833 34.334 -58.5 47.001s-52.334 19 -83.001 19v-258c0 -29.333 3.5 -47.333 10.5 -54s26.833 -10 59.5 -10v-24h-263v24
c32.667 0 52.667 3.33301 60 10s11 24.667 11 54v258zM574.002 400.001l205 292h-408z" />
    <glyph glyph-name="uni046B" unicode="&#x46b;" horiz-adv-x="739" 
d="M319 286v2.00098l-188 224h479l-188 -224v-2c168 -12.667 252 -108 252 -286h-103c0 83.333 -14.5 146.166 -43.5 188.499s-64.167 67.833 -105.5 76.5v-265h-103v265c-41.333 -8.66699 -76.5 -34.167 -105.5 -76.5s-43.5 -105.166 -43.5 -188.499h-102
c0 53.333 7.16699 99.166 21.5 137.499s34.333 67.5 60 87.5s52 34.5 79 43.5s57.167 14.833 90.5 17.5zM412 313.001l145 174h-292z" />
    <glyph glyph-name="uni046C" unicode="&#x46c;" horiz-adv-x="1339" 
d="M879 400l204 292h-408zM753 371l-242.999 346.003h620l-242 -346h1c44.667 0 84.334 -5.66699 119.001 -17s63 -25.5 85 -42.5s41 -38.5 57 -64.5s28 -51.167 36 -75.5s15 -51.833 21 -82.5s10.667 -48.334 14 -53.001c6.66699 -8 25.667 -12 57 -12v-24h-263v24
c32 0 51.667 3.33301 59 10s11 25 11 55c0 18.667 -1.66699 38.334 -5 59.001s-9.83301 43.167 -19.5 67.5s-21.667 45.833 -36 64.5s-33.833 34.334 -58.5 47.001s-52.334 19 -83.001 19v-258c0 -29.333 3.5 -47.333 10.5 -54s26.833 -10 59.5 -10v-24h-263v24
c32.667 0 52.667 3.33301 60 10s11 24.667 11 54v258c-38 0 -71.167 -9.16699 -99.5 -27.5s-49.5 -41.833 -63.5 -70.5s-24.167 -56.334 -30.5 -83.001s-9.5 -52 -9.5 -76c0 -29.333 3.66699 -47.5 11 -54.5s27.333 -10.5 60 -10.5v-24h-263v24
c6.66699 0 12.5 0.166992 17.5 0.5s9.66699 0.5 14 0.5s7.83301 0.666992 10.5 2s5.16699 2.33301 7.5 3s4.33301 2.33398 6 5.00098s3 4.66699 4 6s2 4.16602 3 8.49902s1.66699 7.66602 2 9.99902s1.16602 6.83301 2.49902 13.5s2.33301 12 3 16
c12 61.333 31 114.166 57 158.499s65.333 77.166 118 98.499h-357v-258c0 -29.333 3.66699 -47.333 11 -54s27.333 -10 60 -10v-24h-264v24c32.667 0 52.667 3.33301 60 10s11 24.667 11 54v540c0 29.333 -3.66699 47.5 -11 54.5s-27.333 10.5 -60 10.5v24h264v-24
c-32.667 0 -52.667 -3.5 -60 -10.5s-11 -25.167 -11 -54.5v-257h499z" />
    <glyph glyph-name="uni046D" unicode="&#x46d;" horiz-adv-x="920" 
d="M79 512h101.998v-226h320v2l-189 224h480l-189 -224v-2c168 -12.667 252 -108 252 -286h-102c0 83.333 -14.667 146.166 -44 188.499s-64.666 67.833 -105.999 76.5v-265h-102v265c-41.333 -8.66699 -76.666 -34.167 -105.999 -76.5s-44 -105.166 -44 -188.499h-102
c0 134.667 47 221.667 141 261h-209v-261h-102v512zM592.998 313l145 174h-292z" />
    <glyph glyph-name="uni046E" unicode="&#x46e;" horiz-adv-x="646" 
d="M227 -154c-52.667 0 -94.5 12.9951 -125.5 38.9951s-46.5 56 -46.5 90c0 40 10.667 69.833 32 89.5s47.666 29.5 78.999 29.5c24 0 58.333 -12 103 -36s82 -36 112 -36c24.667 0 45.834 15.833 63.501 47.5s26.5 72.834 26.5 123.501c0 52 -11.667 95.833 -35 131.5
s-61 53.5 -113 53.5c-20.667 0 -39 -6.33301 -55 -19s-27.833 -26.334 -35.5 -41.001s-15.5 -28.334 -23.5 -41.001s-15 -19 -21 -19c-18.667 0 -33.834 5.33301 -45.501 16s-17.5 20.334 -17.5 29.001s2.83301 18.167 8.5 28.5s14.667 21.5 27 33.5s31.333 21.833 57 29.5
s55.834 11.5 90.501 11.5c40.667 0 71.334 15 92.001 45s31 66 31 108c0 44.667 -9.83301 79.667 -29.5 105s-45.5 38 -77.5 38c-38 0 -65.833 -15.167 -83.5 -45.5s-26.5 -78.5 -26.5 -144.5c0 -9.33301 -20.333 -14 -61 -14s-61 4.66699 -61 14c0 34 6 65.5 18 94.5
s33.167 54.833 63.5 77.5s68.166 36.334 113.499 41.001l-54 44.5c-26.667 21.667 -45.667 38.167 -57 49.5s-17 20 -17 26c0 7.33301 7.66699 17.333 23 30s30.333 19 45 19c5.33301 0 11.166 -2.66699 17.499 -8s13 -13.166 20 -23.499s13.5 -20.666 19.5 -30.999l22 -39
c8.66699 -15.667 16 -28.167 22 -37.5l60 119c8 15.333 39.333 23 94 23c10 0 15 -4 15 -12c0 -12.667 -2.16699 -34.167 -6.5 -64.5s-9.16602 -45.5 -14.499 -45.5h-30c-46.667 0 -75 -9 -85 -27l-11 -22c67.333 -3.33301 117.833 -20 151.5 -50s50.5 -75.667 50.5 -137
c0 -74 -36.333 -123 -109 -147c52 -16 90 -42.5 114 -79.5s36 -77.833 36 -122.5c0 -66.667 -18.833 -116.667 -56.5 -150s-92.167 -50 -163.5 -50c-26 0 -50.5 5.33301 -73.5 16s-42.5 21.167 -58.5 31.5s-28.667 15.5 -38 15.5c-14.667 0 -30 -5.66699 -46 -17
s-24 -23.333 -24 -36c0 -46.667 39 -70 117 -70c40 0 74.5 4.33301 103.5 13s54 17.334 75 26.001s41.167 13 60.5 13c16 0 34 -9.66699 54 -29s30 -33 30 -41c0 -19.333 -9 -37.166 -27 -53.499s-35.333 -24.5 -52 -24.5c-10 0 -23.833 13.667 -41.5 41s-30.5 41 -38.5 41
c-14 0 -41.167 -11.667 -81.5 -35s-75.5 -35 -105.5 -35z" />
    <glyph glyph-name="uni046F" unicode="&#x46f;" horiz-adv-x="563" 
d="M333 15c20 0 36.668 10.167 50.001 30.5s20 49.166 20 86.499c0 36.667 -8.66699 65.167 -26 85.5s-47.333 30.5 -90 30.5c-18.667 0 -33.5 -3.5 -44.5 -10.5s-18.167 -14.833 -21.5 -23.5s-7.83301 -16.5 -13.5 -23.5s-12.834 -10.5 -21.501 -10.5
c-26 0 -39 11.333 -39 34c0 18 13.333 33.167 40 45.5s55.667 18.5 87 18.5c32.667 0 57 11.833 73 35.5s24 51.834 24 84.501c0 34 -7.5 59.5 -22.5 76.5s-35.5 25.5 -61.5 25.5c-30.667 0 -52.667 -10.333 -66 -31s-20 -55.667 -20 -105c0 -8 -16.667 -12 -50 -12
c-35.333 0 -53 4 -53 12c0 40 13.333 75.333 40 106s67 48.334 121 53.001l-51 42.5c-23.333 19 -41 34.167 -53 45.5s-18 20 -18 26c0 6.66699 7 15.667 21 27s27.667 17 41 17c4.66699 0 9.83398 -2.33301 15.501 -7s11.5 -11.834 17.5 -21.501l17 -28.5l20 -34.5
l20 -34.5l54 109c6 12.667 34.333 19 85 19c8.66699 0 13 -3.33301 13 -10c0 -12 -1.83301 -31.667 -5.5 -59s-7.83398 -41 -12.501 -41h-28c-22 0 -38.833 -1.5 -50.5 -4.5s-20.167 -9.5 -25.5 -19.5l-14 -25c112 -4 168 -51 168 -141
c0 -26.667 -7.83301 -51.167 -23.5 -73.5s-37.834 -37.833 -66.501 -46.5c82 -24 123 -68.333 123 -133c0 -93.333 -59.667 -140 -179 -140c-22 0 -40 3 -54 9s-23.5 12.5 -28.5 19.5s-12 13.5 -21 19.5s-20.5 9 -34.5 9c-14.667 0 -27.667 -4.5 -39 -13.5
s-17 -20.167 -17 -33.5c0 -22.667 7.33301 -40 22 -52s41.667 -18 81 -18c40 0 73 4.33301 99 13s48 17.334 66 26.001s36.667 13 56 13c16 0 34 -9.66699 54 -29s30 -33 30 -41c0 -19.333 -9.16699 -37.166 -27.5 -53.499s-35.833 -24.5 -52.5 -24.5
c-10 0 -20.5 15.667 -31.5 47s-20.5 47 -28.5 47c-13.333 0 -30 -6.83301 -50 -20.5s-42.167 -27.334 -66.5 -41.001s-48.166 -20.5 -71.499 -20.5c-52 0 -91.333 12.667 -118 38s-40 55.666 -40 90.999c0 73.333 37.333 110 112 110c21.333 0 39 -2.33301 53 -7
s24.333 -10.5 31 -17.5s13 -14 19 -21s14 -12.833 24 -17.5s23 -7 39 -7z" />
    <glyph glyph-name="uni0470" unicode="&#x470;" horiz-adv-x="733" 
d="M426 88c0 -29.333 3.66602 -47.334 10.999 -54.001s27.333 -10 60 -10v-24h-264v24c32.667 0 52.667 3.33301 60 10s11 24.667 11 54v25h-120l-149 487c-2.66699 8 -4 12.667 -4 14c0 8 5.66699 12 17 12h67c12 0 20.333 -1.66699 25 -5s8.66699 -9.66602 12 -18.999
l137 -450h15v476c0 29.333 -3.66699 47.5 -11 54.5s-27.333 10.5 -60 10.5v24h264v-24c-32.667 0 -52.667 -3.5 -60 -10.5s-11 -25.167 -11 -54.5v-476h43l121 451c2.66699 8.66699 6 14 10 16c10 4.66699 37.333 7 82 7c9.33301 0 14 -4.33301 14 -13
c0 -13.333 -2 -34.833 -6 -64.5s-8.66699 -44.5 -14 -44.5h-42c-20 0 -31.667 -1.33301 -35 -4s-6.66602 -10.667 -9.99902 -24l-97 -363h-66v-25z" />
    <glyph glyph-name="uni0471" unicode="&#x471;" horiz-adv-x="694" 
d="M395 -154l-102.001 -0.00195312v154h-98l-150 487c-2.66699 8 -4 13 -4 15c0 7.33301 5.66699 11 17 11h42c12 0 20.333 -1.66699 25 -5s8.66699 -9.66602 12 -18.999l137 -450h19v678h102v-678h33l121 451c2.66699 8.66699 6 14 10 16c10 4.66699 37.333 7 82 7
c9.33301 0 14 -4 14 -12c0 -13.333 -2 -35 -6 -65s-8.66699 -45 -14 -45h-42c-20 0 -31.667 -1.16699 -35 -3.5s-6.66602 -10.166 -9.99902 -23.499l-97 -364h-56v-154z" />
    <glyph glyph-name="afii10147" unicode="&#x472;" horiz-adv-x="892" 
d="M215 334l-19.002 0.000976562c-22.667 -18.667 -40.834 -43.167 -54.501 -73.5s-20.5 -58.5 -20.5 -84.5h-25c0 25.333 -4.33301 51.333 -13 78s-17.667 46.667 -27 60l-13 20v24h177c12.667 54.667 32 110.5 58 167.5s54.167 105 84.5 144s56.833 58.5 79.5 58.5
c33.333 0 73.833 -40.5 121.5 -121.5s81.167 -163.833 100.5 -248.5h177v-24c-4 -5.33301 -9 -12.833 -15 -22.5s-14 -28.334 -24 -56.001s-15 -54.167 -15 -79.5h-24c0 26 -6.83301 54.167 -20.5 84.5s-31.834 54.833 -54.501 73.5h-19
c5.33301 -28.667 8 -53.334 8 -74.001c0 -42 -3.5 -78.5 -10.5 -109.5s-19.167 -59 -36.5 -84s-41.666 -44 -72.999 -57s-69.666 -19.5 -114.999 -19.5s-83.666 6.5 -114.999 19.5s-55.666 32 -72.999 57s-29.5 53 -36.5 84s-10.5 67.5 -10.5 109.5
c0 20.667 2.66699 45.334 8 74.001zM547.998 334.001h-212c-0.666992 -16 -1 -40.333 -1 -73c0 -75.333 8.66699 -135.333 26 -180s44.333 -67 81 -67s63.667 22.333 81 67s26 104.667 26 180c0 32.667 -0.333008 57 -1 73zM546.998 358.001
c-4 74 -12.1689 138.333 -24.502 193s-25.666 93.667 -39.999 117s-27.833 35 -40.5 35s-26.167 -11.667 -40.5 -35s-27.666 -62.333 -39.999 -117s-20.5 -119 -24.5 -193h210z" />
    <glyph glyph-name="afii10195" unicode="&#x473;" horiz-adv-x="779" 
d="M738 265l0.000976562 -23.9971c-4 -5.33301 -9 -12.833 -15 -22.5s-13.833 -28.334 -23.5 -56.001s-14.5 -54.167 -14.5 -79.5h-25c0 23.333 -5.5 48.5 -16.5 75.5s-25.833 50.167 -44.5 69.5c-6.66699 -158.667 -76.334 -238 -209.001 -238
c-133.333 0 -203.333 79.333 -210 238c-18.667 -19.333 -33.5 -42.5 -44.5 -69.5s-16.5 -52.167 -16.5 -75.5h-25c0 25.333 -4.33301 51.166 -13 77.499s-17.667 46.166 -27 59.499l-13 21v24h138c2 171.333 72.333 257 211 257c138 0 208 -85.667 210 -257h138z
M498.001 265.003c0 40.667 -1.16699 73.667 -3.5 99s-7.16602 49 -14.499 71s-18.333 38 -33 48s-33.667 15 -57 15c-44.667 0 -73.834 -18.333 -87.501 -55s-20.5 -96 -20.5 -178h216zM498.001 241.003l-215.999 0.000976562c0 -40 1.16699 -72.167 3.5 -96.5
s7.16602 -47.333 14.499 -69s18.333 -37.334 33 -47.001s33.667 -14.5 57 -14.5c18.667 0 34.5 3.5 47.5 10.5s23.333 16.333 31 28s13.667 27.667 18 48s7.33301 41 9 62s2.5 47.167 2.5 78.5z" />
    <glyph glyph-name="afii10148" unicode="&#x474;" horiz-adv-x="705" 
d="M86 628c-7.33301 28 -18.001 45.833 -32.001 53.5s-38.333 11.5 -73 11.5v24h263v-24c-35.333 0 -53 -6.33301 -53 -19c0 -1.33301 1.33301 -7.33301 4 -18l164 -609l145 647c1.33301 5.33301 4.83301 9.5 10.5 12.5s17.834 5.5 36.501 7.5s45.334 3 80.001 3
c9.33301 0 14 -4 14 -12c0 -13.333 -2 -35 -6 -65s-8.66699 -45 -14 -45h-42c-27.333 0 -44.833 -1.33301 -52.5 -4s-12.834 -10.667 -15.501 -24l-131 -567h-127z" />
    <glyph glyph-name="afii10196" unicode="&#x475;" horiz-adv-x="559" 
d="M274 39l16.999 -0.00195312l121 451c2.66699 8.66699 6 14 10 16c10 4.66699 37.333 7 82 7c9.33301 0 14 -4 14 -12c0 -13.333 -2 -35 -6 -65s-8.66699 -45 -14 -45h-42c-20 0 -31.667 -1.16699 -35 -3.5s-6.66602 -10.166 -9.99902 -23.499l-98 -364h-118l-150 487
c-2.66699 8 -4 13 -4 15c0 7.33301 5.66699 11 17 11h42c12 0 20.333 -1.66699 25 -5s8.66699 -9.66602 12 -18.999z" />
    <glyph glyph-name="uni0476" unicode="&#x476;" horiz-adv-x="705" 
d="M301 984l193 -204l-25 -27l-231 160zM110 984l193 -204l-25 -27l-231 160zM86 628c-7.33301 28 -18.001 45.833 -32.001 53.5s-38.333 11.5 -73 11.5v24h263v-24c-35.333 0 -53 -6.33301 -53 -19c0 -1.33301 1.33301 -7.33301 4 -18l164 -609l145 647
c1.33301 5.33301 4.83301 9.5 10.5 12.5s17.834 5.5 36.501 7.5s45.334 3 80.001 3c9.33301 0 14 -4 14 -12c0 -13.333 -2 -35 -6 -65s-8.66699 -45 -14 -45h-42c-27.333 0 -44.833 -1.33301 -52.5 -4s-12.834 -10.667 -15.501 -24l-131 -567h-127z" />
    <glyph glyph-name="uni0477" unicode="&#x477;" horiz-adv-x="559" 
d="M84 817l193 -204l-25 -27l-231 160zM256 817l193 -204l-25 -27l-231 160zM274 39l16.999 -0.00195312l121 451c2.66699 8.66699 6 14 10 16c10 4.66699 37.333 7 82 7c9.33301 0 14 -4 14 -12c0 -13.333 -2 -35 -6 -65s-8.66699 -45 -14 -45h-42
c-20 0 -31.667 -1.16699 -35 -3.5s-6.66602 -10.166 -9.99902 -23.499l-98 -364h-118l-150 487c-2.66699 8 -4 13 -4 15c0 7.33301 5.66699 11 17 11h42c12 0 20.333 -1.66699 25 -5s8.66699 -9.66602 12 -18.999z" />
    <glyph glyph-name="uni0478" unicode="&#x478;" horiz-adv-x="1100" 
d="M894 -45c0 -51.333 5 -91.334 15 -120.001s15 -47.334 15 -56.001c0 -7.33301 -1.83301 -13.333 -5.5 -18s-8.16699 -7 -13.5 -7c-24.667 0 -37 68.333 -37 205v41h-105l-183 487c-2 6 -3 11 -3 15c0 7.33301 5.33301 11 16 11h56c12 0 20.333 -1.5 25 -4.5
s8.66699 -9.5 12 -19.5l171 -457h12c3.33301 120 13 220 29 300s32 132.667 48 158c8.66699 14.667 40.667 22.334 96 23.001c8.66699 0 13 -4 13 -12c0 -13.333 -2 -35 -6 -65s-8.66699 -45 -14 -45h-31c-20.667 0 -35 -2.16699 -43 -6.5s-15 -13.166 -21 -26.499
c-6 -12.667 -12.167 -31.667 -18.5 -57s-12.5 -69 -18.5 -131s-9 -133.667 -9 -215zM317 702.999c-28.667 0 -52.334 -7.83203 -71.001 -23.499s-32.667 -39.667 -42 -72s-15.833 -67.833 -19.5 -106.5s-5.5 -86.334 -5.5 -143.001c0 -45.333 1 -84.333 3 -117s6 -64 12 -94
s14 -54.333 24 -73s23.333 -33.334 40 -44.001s36.334 -16 59.001 -16c28 0 51.333 7.83301 70 23.5s32.834 39.667 42.501 72s16.334 67.833 20.001 106.5s5.5 86.334 5.5 143.001s-1.83301 104.5 -5.5 143.5s-10.334 74.5 -20.001 106.5s-23.834 55.667 -42.501 71
s-42 23 -70 23zM317 728c89.333 0 156 -33.502 200 -100.502s66 -156.833 66 -269.5s-22 -202.167 -66 -268.5s-110.667 -99.5 -200 -99.5s-156 33.333 -200 100s-66 156.334 -66 269.001s22 202.334 66 269.001s110.667 100 200 100z" />
    <glyph glyph-name="uni0479" unicode="&#x479;" horiz-adv-x="945" 
d="M739 -45c0 -51.333 5 -91.334 15 -120.001s15 -47.334 15 -56.001c0 -7.33301 -1.83301 -13.333 -5.5 -18s-8.16699 -7 -13.5 -7c-24.667 0 -37 68.333 -37 205v41h-105l-183 487c-2 6 -3 11 -3 15c0 7.33301 5.33301 11 16 11h56c12 0 20.333 -1.5 25 -4.5
s8.66699 -9.5 12 -19.5l171 -457h12c3.33301 120 13 220 29 300s32 132.667 48 158c8.66699 14.667 40.667 22.334 96 23.001c8.66699 0 13 -4 13 -12c0 -13.333 -2 -35 -6 -65s-8.66699 -45 -14 -45h-31c-20.667 0 -35 -2.16699 -43 -6.5s-15 -13.166 -21 -26.499
c-6 -12.667 -12.167 -31.667 -18.5 -57s-12.5 -69 -18.5 -131s-9 -133.667 -9 -215zM315 48.999c28.667 21.333 47.667 42.334 57 63.001s14 48.667 14 84c0 28.667 -6.16699 57.167 -18.5 85.5s-26.166 51.833 -41.499 70.5l-51 61c-18.667 22 -31.334 38.667 -38.001 50
c-31.333 -20.667 -52.333 -41.334 -63 -62.001s-16 -48.667 -16 -84c0 -29.333 7 -58.5 21 -87.5s29.5 -52.667 46.5 -71l53 -59c18.333 -21 30.5 -37.833 36.5 -50.5zM282 522c58 -25.333 107.833 -65.833 149.5 -121.5s62.5 -104.5 62.5 -146.5
c0 -25.333 -7.16699 -54.166 -21.5 -86.499s-39.666 -66.333 -75.999 -102s-79.5 -62.167 -129.5 -79.5c-58 25.333 -107.833 65.833 -149.5 121.5s-62.5 104.5 -62.5 146.5c0 25.333 7.16699 54.166 21.5 86.499s39.666 66.333 75.999 102s79.5 62.167 129.5 79.5z" />
    <glyph glyph-name="uni047A" unicode="&#x47a;" horiz-adv-x="716" 
d="M304 -7c-168.667 21.333 -253 143.332 -253 365.999s84.333 344.667 253 366c1.33301 19.333 6.66602 35.166 15.999 47.499s22 18.5 38 18.5s28.833 -6.16699 38.5 -18.5s15.167 -28.166 16.5 -47.499c168.667 -21.333 253 -143.666 253 -366.999
c0 -222 -84.333 -343.667 -253 -365c-1.33301 -19.333 -6.83301 -35.333 -16.5 -48s-22.5 -19 -38.5 -19s-28.667 6.16699 -38 18.5s-14.666 28.5 -15.999 48.5zM411 21.999c49.333 14 82.833 48.501 100.5 103.501s26.5 132.833 26.5 233.5c0 100 -9 177.833 -27 233.5
s-51.333 90.5 -100 104.5c-2.66699 -16 -8.66699 -29 -18 -39s-21 -15 -35 -15c-28.667 0 -46 18 -52 54c-49.333 -14 -82.833 -48.833 -100.5 -104.5s-26.5 -133.834 -26.5 -234.501s8.83301 -178.667 26.5 -234s51.167 -90 100.5 -104c6 36 23.333 54 52 54
c14 0 25.667 -4.66699 35 -14s15.333 -22 18 -38z" />
    <glyph glyph-name="uni047B" unicode="&#x47b;" horiz-adv-x="623" 
d="M258 -7c-70.667 9.33301 -122.834 37.6689 -156.501 85.002s-50.5 107 -50.5 179s16.833 131.333 50.5 178s85.834 74.667 156.501 84v1c1.33301 19.333 6.66602 35.166 15.999 47.499s22 18.5 38 18.5s28.833 -6.16699 38.5 -18.5s15.167 -28.166 16.5 -47.499v-1
c70.667 -9.33301 122.5 -37.333 155.5 -84s49.5 -106.334 49.5 -179.001s-16.5 -132.334 -49.5 -179.001s-84.833 -74.667 -155.5 -84c-1.33301 -19.333 -6.83301 -35.333 -16.5 -48s-22.5 -19 -38.5 -19s-28.667 6.16699 -38 18.5s-14.666 28.5 -15.999 48.5zM365 23.0029
c66.667 24.667 99.998 102.667 99.998 234c0 130 -33.333 207.333 -100 232c-3.33301 -15.333 -9.66602 -27.666 -18.999 -36.999s-20.666 -14 -33.999 -14c-28 0 -45.333 17 -52 51c-67.333 -24 -101 -101.667 -101 -233s33.667 -209 101 -233
c2.66699 15.333 8.5 27.666 17.5 36.999s20.5 14 34.5 14c29.333 0 47 -17 53 -51z" />
    <glyph glyph-name="uni047C" unicode="&#x47c;" horiz-adv-x="1005" 
d="M582 269c0 -170 43.668 -255 131.001 -255c28 0 51.333 7.66699 70 23s32.667 39.166 42 71.499s15.833 67.666 19.5 105.999s5.5 86.166 5.5 143.499c0 230 -39 345 -117 345c-22.667 0 -41.667 -3.33301 -57 -10c18 -16 27 -35.333 27 -58
c0 -21.333 -7.33301 -39.333 -22 -54s-32.334 -22 -53.001 -22c-21.333 0 -39.333 7.5 -54 22.5s-22 32.833 -22 53.5c0 62 61 93 183 93c74 0 133 -34.333 177 -103s66 -157.334 66 -266.001c0 -113.333 -21.5 -203.166 -64.5 -269.499s-109.167 -99.5 -198.5 -99.5
c-87.333 0 -152 35 -194 105c-42 -70 -106.333 -105 -193 -105c-89.333 0 -155.5 33.167 -198.5 99.5s-64.5 156.166 -64.5 269.499c0 108.667 21.833 197.334 65.5 266.001s102.5 103 176.5 103c122 0 183 -31 183 -93c0 -21.333 -7.33301 -39.333 -22 -54
s-32.334 -22 -53.001 -22s-38.5 7.5 -53.5 22.5s-22.5 32.833 -22.5 53.5c0 22 9.33301 41.333 28 58c-15.333 6.66699 -34.666 10 -57.999 10c-77.333 0 -116 -115 -116 -345c0 -57.333 1.83301 -105.166 5.5 -143.499s10.167 -73.666 19.5 -105.999
s23.333 -56.166 42 -71.499s42 -23 70 -23c87.333 0 131 85 131 255c0 30 -3.66699 48.5 -11 55.5s-27.333 10.5 -60 10.5v23h262v-23c-32 0 -51.667 -3.5 -59 -10.5s-11 -25.5 -11 -55.5zM504.001 1005c-21.333 0 -39.166 -4.00293 -53.499 -12.0029
s-24.333 -18.333 -30 -31s-9.33398 -23.167 -11.001 -31.5s-2.5 -16.5 -2.5 -24.5c0 -36 -13.333 -54 -40 -54c-28 0 -42 13 -42 39c0 10 2.5 22 7.5 36s13 29.333 24 46s28.333 30.834 52 42.501s51.5 17.5 83.5 17.5c28 0 74.667 -15 140 -45s109.666 -45 132.999 -45
c20.667 0 31 -11.667 31 -35s-3.66699 -39.166 -11 -47.499s-19.666 -12.5 -36.999 -12.5c-12.667 0 -26.5 5.33301 -41.5 16s-30.167 23.667 -45.5 39l-47 46.5c-16 15.667 -33.667 28.834 -53 39.501s-38.333 16 -57 16zM500.001 954.997c24 0 46.667 -9.33105 68 -27.998
s32 -41.334 32 -68.001c0 -31.333 -9.16699 -58.5 -27.5 -81.5s-46.833 -34.5 -85.5 -34.5v19c46 0 69 19 69 57c0 25.333 -17 38 -51 38c-18.667 0 -33 4.66699 -43 14s-15 21.666 -15 36.999c0 12.667 4.83301 23.667 14.5 33s22.5 14 38.5 14z" />
    <glyph glyph-name="uni047D" unicode="&#x47d;" horiz-adv-x="787" 
d="M401 817c-21.333 0 -39.166 -4.00293 -53.499 -12.0029s-24.333 -18.333 -30 -31s-9.33398 -23.167 -11.001 -31.5s-2.5 -16.5 -2.5 -24.5c0 -36 -13.333 -54 -40 -54c-28 0 -42 13 -42 39c0 10 2.5 22 7.5 36s13 29.333 24 46s28.333 30.834 52 42.501
s51.5 17.5 83.5 17.5c28 0 74.667 -15 140 -45s109.666 -45 132.999 -45c20.667 0 31 -11.667 31 -35s-3.66699 -39.166 -11 -47.499s-19.666 -12.5 -36.999 -12.5c-12.667 0 -26.5 5.33301 -41.5 16s-30.167 23.667 -45.5 39l-47 46.5
c-16 15.667 -33.667 28.834 -53 39.501s-38.333 16 -57 16zM398 766.997c24 0 46.667 -9.33105 68 -27.998s32 -41.334 32 -68.001c0 -31.333 -9.16699 -58.5 -27.5 -81.5s-46.833 -34.5 -85.5 -34.5v19c46 0 69 19 69 57c0 25.333 -17 38 -51 38
c-18.667 0 -33 4.66699 -43 14s-15 21.666 -15 36.999c0 12.667 4.83301 23.667 14.5 33s22.5 14 38.5 14zM537 -10.001c-6 3.33301 -14.168 8.16504 -24.501 14.498s-28.166 20.666 -53.499 42.999s-47.333 46.833 -66 73.5c-16 -28.667 -34 -54 -54 -76
c-20.667 -22 -37 -36.667 -49 -44l-18 -11c-6 3.33301 -13.667 8 -23 14s-26.333 19.667 -51 41s-46.334 44.333 -65.001 69s-35.667 57.334 -51 98.001s-23 83.334 -23 128.001c0 35.333 4.66699 67.333 14 96c9.33301 29.333 18.666 49.333 27.999 60l14 16h98
c-4 -5.33301 -8.83301 -12.833 -14.5 -22.5s-13.167 -29.334 -22.5 -59.001s-14 -59.167 -14 -88.5c0 -66.667 14 -124.667 42 -174s58.333 -87 91 -113c31.333 28 57 62 77 102c-32 57.333 -48 118.333 -48 183c0 35.333 4.66699 67.333 14 96
c9.33301 29.333 18.666 49.333 27.999 60l13 16h98c-4 -5.33301 -8.83301 -12.833 -14.5 -22.5s-13.167 -29.334 -22.5 -59.001s-14 -59.167 -14 -88.5c0 -66.667 14 -124.667 42 -174s58.333 -87 91 -113c72.667 64.667 109 145.334 109 242.001
c0 30.667 -5.66699 58.334 -17 83.001s-22.666 47.334 -33.999 68.001s-17 42 -17 64h100c1.33301 -5.33301 5.83301 -17.333 13.5 -36s11.5 -38.667 11.5 -60c0 -61.333 -6.5 -118 -19.5 -170s-28.667 -93 -47 -123s-36.666 -55.667 -54.999 -77s-34.166 -36 -47.499 -44z
" />
    <glyph glyph-name="uni047E" unicode="&#x47e;" horiz-adv-x="1005" 
d="M420 628c0 29.333 -3.66797 47.5 -11.001 54.5s-27.333 10.5 -60 10.5v24h263v-24c-32 0 -51.667 -3.33301 -59 -10s-11 -25 -11 -55v-149c0 -96.667 15 -180.334 45 -251.001s61.333 -122.667 94 -156c34 44.667 64.833 100.5 92.5 167.5s41.5 141.5 41.5 223.5v151
c0 29.333 -6.33301 49.833 -19 61.5s-34 17.5 -64 17.5v24h213v-24c-30 0 -51.167 -5.83301 -63.5 -17.5s-18.5 -32.167 -18.5 -61.5v-79c0 -64.667 -7.5 -127.667 -22.5 -189s-33.167 -112.833 -54.5 -154.5s-42.666 -78.667 -63.999 -111s-39.333 -56.166 -54 -71.499
l-23 -23l-11.5 8.5c-5 3.66699 -14.667 12.5 -29 26.5s-28.166 28.833 -41.499 44.5s-28.333 36.5 -45 62.5s-31.334 53.333 -44.001 82c-12 -28.667 -25.5 -56 -40.5 -82s-28.667 -47.333 -41 -64s-24 -31.167 -35 -43.5s-19.5 -21.166 -25.5 -26.499l-9 -8
c-6 4 -14.167 10.333 -24.5 19s-28.5 28 -54.5 58s-48.833 62.333 -68.5 97s-37.667 80.5 -54 137.5s-24.5 116.5 -24.5 178.5v152c0 30 -3.66699 48.333 -11 55s-27 10 -59 10v24h263v-24c-32.667 0 -52.667 -3.5 -60 -10.5s-11 -25.167 -11 -54.5v-149
c0 -96.667 15 -180.334 45 -251.001s61.333 -122.667 94 -156c42 55.333 75 116.333 99 183c-24.667 69.333 -37 143 -37 221v152zM429.999 764l0.00195312 99.999c-26.667 0 -46.334 -1 -59.001 -3s-24.167 -7.33301 -34.5 -16s-16.833 -21.334 -19.5 -38.001
s-4 -40.667 -4 -72h-24c0 25.333 -2.83301 48.833 -8.5 70.5s-11.167 36.834 -16.5 45.501l-8 13v25h451v-25c-22 -28.667 -33 -71.667 -33 -129h-25c0 31.333 -1.33301 55.333 -4 72s-9.16699 29.334 -19.5 38.001s-21.833 14 -34.5 16s-32.334 3 -59.001 3v-100h-102z" />
    <glyph glyph-name="uni047F" unicode="&#x47f;" horiz-adv-x="787" 
d="M537 -10c-6 3.33301 -14.168 8.16504 -24.501 14.498s-28.166 20.666 -53.499 42.999s-47.333 46.833 -66 73.5c-16 -28.667 -34 -54 -54 -76c-20.667 -22 -37 -36.667 -49 -44l-18 -11c-6 3.33301 -13.667 8 -23 14s-26.333 19.667 -51 41s-46.334 44.333 -65.001 69
s-35.667 57.334 -51 98.001s-23 83.334 -23 128.001c0 35.333 4.66699 67.333 14 96c9.33301 29.333 18.666 49.333 27.999 60l14 16h98c-4 -5.33301 -8.83301 -12.833 -14.5 -22.5s-13.167 -29.334 -22.5 -59.001s-14 -59.167 -14 -88.5c0 -66.667 14 -124.667 42 -174
s58.333 -87 91 -113c31.333 28 57 62 77 102c-32 57.333 -48 118.333 -48 183c0 35.333 4.66699 67.333 14 96c9.33301 29.333 18.666 49.333 27.999 60l13 16h98c-4 -5.33301 -8.83301 -12.833 -14.5 -22.5s-13.167 -29.334 -22.5 -59.001s-14 -59.167 -14 -88.5
c0 -66.667 14 -124.667 42 -174s58.333 -87 91 -113c72.667 64.667 109 145.334 109 242.001c0 30.667 -5.66699 58.334 -17 83.001s-22.666 47.334 -33.999 68.001s-17 42 -17 64h100c1.33301 -5.33301 5.83301 -17.333 13.5 -36s11.5 -38.667 11.5 -60
c0 -61.333 -6.5 -118 -19.5 -170s-28.667 -93 -47 -123s-36.666 -55.667 -54.999 -77s-34.166 -36 -47.499 -44zM364.999 572.999l0.00195312 100.999c-26.667 0 -46.334 -1 -59.001 -3s-24.167 -7.33301 -34.5 -16s-16.833 -21.334 -19.5 -38.001s-4 -40.667 -4 -72h-25
c0 25.333 -2.83301 48.833 -8.5 70.5s-11.167 36.834 -16.5 45.501l-8 13v24h451v-24c-22 -28.667 -33 -71.667 -33 -129h-24c0 31.333 -1.33301 55.333 -4 72s-9.16699 29.334 -19.5 38.001s-21.833 14 -34.5 16s-32.334 3 -59.001 3v-101h-102z" />
    <glyph glyph-name="uni0480" unicode="&#x480;" horiz-adv-x="701" 
d="M440 260l3.00293 -171.999c0.666992 -29.333 4.5 -47.333 11.5 -54s26.833 -10 59.5 -10v-24h-263v24c31.333 0 51 3 59 9s12 21.333 12 46v9l-4 149c-37.333 2 -70 6.5 -98 13.5s-55.333 18.833 -82 35.5s-47.334 41.5 -62.001 74.5s-22 73.5 -22 121.5
c0 70 21.833 128.5 65.5 175.5s109.5 70.5 197.5 70.5c80.667 0 140.167 -12 178.5 -36s63.833 -61.333 76.5 -112c1.33301 -4.66699 3 -11.667 5 -21s3.33301 -15.166 4 -17.499s2.16699 -6 4.5 -11s4.66602 -8 6.99902 -9s5.83301 -2.33301 10.5 -4s10 -2.66699 16 -3
s14 -0.5 24 -0.5v-24h-263v24c32 0 51.833 3.5 59.5 10.5s11.5 25.5 11.5 55.5c0 32.667 -10.833 61.334 -32.5 86.001s-54.834 37 -99.501 37c-53.333 0 -89.5 -19 -108.5 -57s-28.5 -93 -28.5 -165c0 -30 2.66699 -56.833 8 -80.5s12 -43.167 20 -58.5
s19.167 -28.333 33.5 -39s27.666 -18.834 39.999 -24.501s28.833 -9.83398 49.5 -12.501s37.834 -4.33398 51.501 -5.00098s32.167 -1 55.5 -1z" />
    <glyph glyph-name="uni0481" unicode="&#x481;" horiz-adv-x="467" 
d="M281 391c-32.667 38.667 -51.667 62.6689 -57 72.002c-31.333 -20.667 -52.333 -41.334 -63 -62.001s-16 -48.667 -16 -84c0 -29.333 7 -58.5 21 -87.5s29.667 -52.667 47 -71l53.5 -59c18.333 -21 30.5 -37.833 36.5 -50.5c34 25.333 55 51.333 63 78l56 -21v-311h-103
v220c-20.667 -12 -42 -21.667 -64 -29c-58 25.333 -107.833 65.833 -149.5 121.5s-62.5 104.5 -62.5 146.5c0 25.333 7.16699 54.166 21.5 86.499s39.5 66.333 75.5 102s79 62.167 129 79.5c38.667 -16.667 76 -43 112 -79z" />
    <glyph glyph-name="uni0483" unicode="&#x483;" horiz-adv-x="0" 
d="M-318 696c21.333 0 46.333 -1.66699 75 -5s50 -5 64 -5c12 0 24 0.666992 36 2c11.333 1.33301 20.333 2.66602 27 3.99902l10 1c0 36.667 13 55 39 55c28 0 42 -13 42 -39c0 -34.667 -35.667 -52 -107 -52c-21.333 0 -46.333 1.83301 -75 5.5s-50 5.5 -64 5.5
c-12 0 -24 -0.666992 -36 -2c-11.333 -1.33301 -20.333 -2.66602 -27 -3.99902l-10 -2c0 -36 -13.333 -54 -40 -54c-28 0 -42 13 -42 39c0 34 36 51 108 51z" />
    <glyph glyph-name="uni0484" unicode="&#x484;" horiz-adv-x="0" 
d="M-167 683c32 0 60.333 -7.16699 85 -21.5s37 -33.5 37 -57.5c0 -20.667 -1.83301 -33.334 -5.5 -38.001s-13.5 -7 -29.5 -7c-12 0 -19.333 3 -22 9s-4 23.667 -4 53c0 24.667 -20.333 37 -61 37c-40 0 -60 -12.333 -60 -37c0 -28.667 -1.5 -46.167 -4.5 -52.5
s-10.5 -9.5 -22.5 -9.5c-16 0 -25.833 2.33301 -29.5 7s-5.5 17.334 -5.5 38.001c0 23.333 12.333 42.333 37 57s53 22 85 22z" />
    <glyph glyph-name="uni0485" unicode="&#x485;" horiz-adv-x="0" 
d="M-177 783c16 0 28.835 -4.66895 38.502 -14.002s14.5 -20.333 14.5 -33c0 -15.333 -4.83301 -27.666 -14.5 -36.999s-23.834 -14 -42.501 -14c-34 0 -51 -12.667 -51 -38c0 -38 22.667 -57 68 -57v-19c-38.667 0 -67 11.333 -85 34s-27 50 -27 82
c0 26.667 10.667 49.334 32 68.001s43.666 28 66.999 28z" />
    <glyph glyph-name="uni0486" unicode="&#x486;" horiz-adv-x="0" 
d="M-151 783c24 0 46.667 -9.33105 68 -27.998s32 -41.334 32 -68.001c0 -31.333 -9.16699 -58.5 -27.5 -81.5s-46.833 -34.5 -85.5 -34.5v19c46 0 69 19 69 57c0 25.333 -17 38 -51 38c-18.667 0 -33 4.66699 -43 14s-15 21.666 -15 36.999
c0 12.667 4.83301 23.667 14.5 33s22.5 14 38.5 14z" />
    <glyph glyph-name="uni0487" unicode="&#x487;" horiz-adv-x="0" 
d="M-287 739c-21.333 0 -39.166 -4.00293 -53.499 -12.0029s-24.333 -18.333 -30 -31s-9.33398 -23.167 -11.001 -31.5s-2.5 -16.5 -2.5 -24.5c0 -36 -13.333 -54 -40 -54c-28 0 -42 13 -42 39c0 10 2.5 22 7.5 36s13 29.333 24 46s28.333 30.834 52 42.501
s51.5 17.5 83.5 17.5c28 0 74.667 -15 140 -45s109.666 -45 132.999 -45c20.667 0 31 -11.667 31 -35s-3.66699 -39.166 -11 -47.499s-19.666 -12.5 -36.999 -12.5c-12.667 0 -26.5 5.33301 -41.5 16s-30.167 23.667 -45.5 39l-47 46.5
c-16 15.667 -33.667 28.834 -53 39.501s-38.333 16 -57 16z" />
    <glyph glyph-name="afii10050" unicode="&#x490;" horiz-adv-x="584" 
d="M325 692c-32.667 0 -52.667 -3.50195 -60 -10.502s-11 -25.167 -11 -54.5v-539c0 -29.333 3.66699 -47.333 11 -54s27.333 -10 60 -10v-24h-264v24c32.667 0 52.667 3.33301 60 10s11 24.667 11 54v539c0 29.333 -3.66699 47.5 -11 54.5s-27.333 10.5 -60 10.5v25h264
c36 0 65.167 17.167 87.5 51.5s33.5 69.5 33.5 105.5h25c0 -25.333 4.5 -51.166 13.5 -77.499s17.833 -46.166 26.5 -59.499l13 -20v-25h-199z" />
    <glyph glyph-name="afii10098" unicode="&#x491;" horiz-adv-x="436" 
d="M61 512l170.001 0.00195312c45.333 0 74.5 7.66699 87.5 23s19.5 50.666 19.5 105.999h24c0 -25.333 2.66699 -48.833 8 -70.5s10.666 -36.834 15.999 -45.501l9 -13v-25h-231v-487h-103v512z" />
    <glyph glyph-name=".null" horiz-adv-x="0" 
 />
    <glyph glyph-name="nonmarkingreturn" horiz-adv-x="341" 
 />
    <glyph glyph-name="dieresis" horiz-adv-x="311" 
d="M180 735c-6.66699 0 -10 3.33301 -10 10v111c0 6.66699 3.33301 10 10 10h61c6.66699 0 10 -3.33301 10 -10v-111c0 -6.66699 -3.33301 -10 -10 -10h-61zM31 735c-2.66699 0 -5.16699 1 -7.5 3s-3.5 4.33301 -3.5 7v111c0 2.66699 1.16699 5 3.5 7s4.83301 3 7.5 3h60
c6.66699 0 10 -3.33301 10 -10v-111c0 -6.66699 -3.33301 -10 -10 -10h-60z" />
    <glyph glyph-name="acute" horiz-adv-x="337" 
d="M233 786l64 -71l-231 -160l-25 27z" />
    <glyph glyph-name="breve" horiz-adv-x="376" 
d="M188 559c-98 0 -146.999 19.332 -146.999 57.999c0 14 3.33301 25.167 10 33.5s15 12.5 25 12.5c14 0 23.667 -5 29 -15s8 -25.667 8 -47c18.667 -11.333 43.667 -17 75 -17c14 0 27.333 1.33301 40 4c13.333 2.66699 22.666 5.33398 27.999 8.00098l8 5
c0 21.333 2.66699 37 8 47s15 15 29 15c10 0 18.333 -4.16699 25 -12.5s10 -19.5 10 -33.5c0 -38.667 -49.333 -58 -148 -58z" />
    <glyph glyph-name="uniA640" horiz-adv-x="565" 
d="M524 717l-0.000976562 -24.9971h-1l-311 -667h194c36.667 0 65.834 -9.83301 87.501 -29.5s32.5 -43.167 32.5 -70.5c0 -28 -12.333 -51.333 -37 -70s-62 -28 -112 -28l-45 5l4 22c21.333 0 38.833 7.66699 52.5 23s20.5 31.666 20.5 48.999
c0 18 -6.83301 34.833 -20.5 50.5s-31.167 23.5 -52.5 23.5h-269l322 692h-128c-36 0 -65.333 -17.167 -88 -51.5s-34 -69.5 -34 -105.5h-24c0 25.333 -4.5 51.166 -13.5 77.499s-18.167 46.166 -27.5 59.499l-13 20v25h463z" />
    <glyph glyph-name="uniA641" horiz-adv-x="468" 
d="M210 -168l4 21.9971c29.333 0 51.666 7.33301 66.999 22s23 31.334 23 50.001c0 20 -6.83301 37.333 -20.5 52s-36.834 22 -69.501 22h-151l227 487h-58c-45.333 0 -74.333 -7.66699 -87 -23s-19 -50.666 -19 -105.999h-25c0 25.333 -2.66699 48.833 -8 70.5
s-10.666 36.834 -15.999 45.501l-8 13v25h346l-229 -487h98c36.667 0 65.834 -9.83301 87.501 -29.5s32.5 -43.167 32.5 -70.5c0 -28 -12.333 -51.333 -37 -70s-62 -28 -112 -28z" />
    <glyph glyph-name="uniA64C" horiz-adv-x="1044" 
d="M582 269c0 -170 43.668 -255 131.001 -255c28 0 51.333 7.66699 70 23s32.667 39.166 42 71.499s15.833 67.666 19.5 105.999s5.5 86.166 5.5 143.499c0 230 -39 345 -117 345c-22.667 0 -41.667 -3.33301 -57 -10c18 -16 27 -35.333 27 -58
c0 -21.333 -7.33301 -39.333 -22 -54s-32.334 -22 -53.001 -22c-21.333 0 -39.333 7.5 -54 22.5s-22 32.833 -22 53.5c0 62 61 93 183 93c74 0 133 -34.333 177 -103s66 -157.334 66 -266.001c0 -113.333 -21.5 -203.166 -64.5 -269.499s-109.167 -99.5 -198.5 -99.5
c-87.333 0 -152 35 -194 105c-42 -70 -106.333 -105 -193 -105c-89.333 0 -155.5 33.167 -198.5 99.5s-64.5 156.166 -64.5 269.499c0 108.667 21.833 197.334 65.5 266.001s102.5 103 176.5 103c122 0 183 -31 183 -93c0 -21.333 -7.33301 -39.333 -22 -54
s-32.334 -22 -53.001 -22s-38.5 7.5 -53.5 22.5s-22.5 32.833 -22.5 53.5c0 22 9.33301 41.333 28 58c-15.333 6.66699 -34.666 10 -57.999 10c-77.333 0 -116 -115 -116 -345c0 -57.333 1.83301 -105.166 5.5 -143.499s10.167 -73.666 19.5 -105.999
s23.333 -56.166 42 -71.499s42 -23 70 -23c87.333 0 131 85 131 255c0 30 -3.66699 48.5 -11 55.5s-27.333 10.5 -60 10.5v23h262v-23c-32 0 -51.667 -3.5 -59 -10.5s-11 -25.5 -11 -55.5z" />
  </font>
</defs>
</svg>
