<?xml version="1.0" standalone="no"?>
<!DOCTYPE svg PUBLIC "-//W3C//DTD SVG 20010904//EN"
 "http://www.w3.org/TR/2001/REC-SVG-20010904/DTD/svg10.dtd">
<svg version="1.0" xmlns="http://www.w3.org/2000/svg"
 width="512.000000pt" height="512.000000pt" viewBox="0 0 512.000000 512.000000"
 preserveAspectRatio="xMidYMid meet">

<g transform="translate(0.000000,512.000000) scale(0.100000,-0.100000)"
fill="#000000" stroke="none">
<path d="M0 2560 l0 -2560 2560 0 2560 0 0 2560 0 2560 -2560 0 -2560 0 0
-2560z m3453 1720 c11 -10 15 -656 4 -667 -5 -4 -99 -9 -210 -11 -274 -4 -327
-12 -392 -57 -29 -19 -57 -46 -63 -59 -5 -13 -11 -95 -11 -184 l-2 -162 328 0
c180 0 334 -4 342 -9 11 -7 12 -25 7 -87 -4 -44 -9 -122 -11 -174 -3 -52 -9
-144 -15 -205 -6 -60 -14 -134 -16 -162 l-5 -53 -309 0 c-176 0 -311 -4 -314
-9 -4 -5 -8 -427 -11 -938 l-5 -928 -308 -2 c-169 -2 -317 -1 -329 2 l-23 5
-2 933 -3 932 -220 5 -220 5 2 340 2 340 214 3 214 2 7 47 c3 25 6 152 6 283
0 358 27 478 137 608 24 28 49 52 54 52 6 0 29 13 52 29 84 57 166 90 287 116
90 20 793 24 813 5z"/>
</g>
</svg>
