<svg width="800pt" height="800pt" version="1.0" viewBox="0 0 800 800" xmlns="http://www.w3.org/2000/svg">
 <style/>
 <g transform="matrix(.13474668 0 0 -.15003707 -138.59738 1004.8733)" style="fill:#e70505">
  <path d="m4019.6481 6661.5642-2957.7448-10.5851-17.5665-2784.3028 3.5008-2491.0187 2914.9222-0.5671 2992.7529 2.4573-4.6262 2522.5225 8.6895 2765.0855zm1733.7748-655.2152c117.9646-40.7029 205.1098-127.4642 250.8077-250.6439 22.3177-58.912 23.3804-81.4057 26.5687-492.719 2.1255-299.9158 0-437.0201-8.502-452.016-11.6902-22.4937-15.9411-22.4937-633.3961-22.4937h-622.7685l-96.7098 94.2593c-54.2 52.4853-120.0902 110.3262-147.7217 128.5354-77.5804 53.5563-216.8 116.753-311.3843 142.46-110.5255 29.9916-315.6353 33.205-422.9725 6.4268-178.5411-43.9163-342.204-139.2467-480.3608-277.4222-46.7607-47.1296-95.647-89.9748-109.4628-95.3304-13.8156-5.3556-290.1294-9.6401-614.2666-9.6401-574.9451 0-588.7608 0-610.0157 21.4225-20.1921 20.3514-21.2549 35.3472-21.2549 410.2421 0 213.1545 5.3137 420.9533 10.6274 460.5851 25.5059 176.7361 131.7804 298.8447 300.7569 344.9031 46.7608 12.8536 313.5098 14.9958 1745.0275 12.8536 1582.4275-2.1423 1692.9529-3.2134 1745.0275-21.4226zm-1552.6706-950.0905c310.3215-80.3346 543.0627-315.9828 621.7058-630.8945 19.1294-78.1924 22.3177-112.4684 18.0667-241.0038-4.251-132.8199-8.5019-161.7403-37.1961-244.2172-95.6471-275.2799-307.1333-476.6519-584.5098-556.9866-119.0275-34.2761-333.702-34.2761-453.7922 0-162.6 47.1296-285.8784 122.1086-401.7176 246.3594-163.6627 175.665-243.3687 397.3885-228.4902 642.6769 22.3177 382.3928 277.3765 688.7353 650.4 785.1369 108.4 27.8493 306.0706 26.7782 415.5334-1.0711zm-1079.749-385.6062c12.7529-8.569 10.6273-24.6359-19.1295-114.6106-49.949-154.2425-58.4509-199.2298-58.4509-335.2632-2.1256-463.7983 332.6392-860.1157 793.8705-941.5215 390.0274-69.6234 805.5608 141.3889 988.353 501.2879 133.9059 264.5687 149.847 518.426 47.8235 782.9946-26.5687 69.6234-29.7568 89.9748-20.1922 101.7572 11.6902 13.9247 96.7098 16.067 580.2589 16.067h566.4431l15.9411-23.5649c14.8785-21.4225 17.004-151.029 17.004-1176.0986 0-1254.2909 0-1121.5002-60.5765-1232.8976-38.2588-71.7654-116.9019-141.3888-192.3569-172.4515l-60.5764-24.6359h-3453.9216l-60.5765 24.6359c-133.9059 54.6275-222.1136 177.8073-242.3059 339.5475-7.4391 55.6987-10.6274 360.9993-8.5019 1101.1489 3.1882 1108.6174 3.1882 1134.3246 23.3804 1149.3203 18.0667 12.8536 112.6509 14.9959 573.8824 14.9959 324.1372 0 560.0666-4.2845 569.6314-10.7114z" style="stroke-width:1.06693"/>
  <path d="m2512 5688c-14-14-18-724-4-745s60-26 87-9l25 16v356c0 226-4 362-10 375-12 22-78 27-98 7z"/>
  <path d="m2742 5688c-9-9-12-105-12-372 0-199 4-366 8-372 12-18 48-25 76-15l26 11v368c0 273-3 371-12 380-7 7-26 12-43 12s-36-5-43-12z"/>
  <path d="m2961 5686c-8-9-11-118-9-381l3-368 28-10c19-6 37-6 53 2l24 11v368c0 273-3 371-12 380-16 16-73 15-87-2z"/>
  <path d="m5020 5657c-51-16-133-102-149-157-20-67-17-321 4-380 19-53 65-104 118-131 55-29 191-42 347-36 195 9 259 37 316 139 29 53 29 54 29 218 0 160-1 167-28 222-30 61-74 101-138 123-51 18-443 20-499 2z"/>
  <path d="m2350 5612c-21-21-43-55-49-77-7-25-11-143-11-307 0-258 1-269 21-289 22-22 66-20 81 4 9 14 11 707 2 707-4 0-23-17-44-38z"/>
  <path d="m3850 4844c-299-78-505-355-487-655 17-274 201-504 467-584 314-93 671 94 780 409 80 232 18 488-161 666-74 75-186 138-285 164-77 20-239 20-314 0z"/>
 </g>
</svg>
