<svg style="enable-background:new 0 0 512 512" version="1.1" viewBox="0 0 512 512" xml:space="preserve" xmlns="http://www.w3.org/2000/svg"><style/>

	
		<path d="m512.46965 138.42578-36.63558-7e-3 -84.43519-0.15996v-20c0-63.963997-60.8479-115.9999964-135.6333-115.9999964-74.78539 0-135.63329 52.0359994-135.63329 115.9999964v20h-84.186185l-37.5321159 0.50154 0.1300652 371.19446c-0.098217 1.108 0.346099 2.204 1.23473041 3.02 0.88395539 0.82 2.12804009 1.284 3.42824939 1.284h505.1171059c1.30021 0 2.5443-0.464 3.42825-1.28s1.33295-1.912 1.23473-3.02zm-354.92127-20.16696c0-46.315997 44.05743-83.999997 98.2172-83.999997 54.15979 0 98.21722 37.684 98.21722 83.999997v20h-196.43442zm-45.34536 99.47598c-1.10194-9.6268-0.97971-15.71906-0.89513-23.18934 0.0846-7.46965-0.10142-18.17668-0.0155-21.40479 0.14659-5.50722 9.3991-5.61572 9.69178-0.0743 0.29268 5.54146 0.6389 37.19241 0.6389 37.19241-0.2647 8.49145 6.15911 14 17.21729 14 10.3128 0 17.32378-5.06952 17.43026-13.78703 0 0 0.37303-30.20888 0.42593-36.84897s9.04814-5.64895 9.13864-0.68187c0.049 2.69192 0.23699 12.19937 0.13985 22.45905-0.0837 8.8423 0.37248 20.61089-1.70976 25.51099-2.71485 6.38883-15.80848 12.50382-25.10783 12.19629-10.33764-0.34188-25.93248-6.44454-26.95442-15.37246zm260.73684 15.7832c-11.63655-0.0371-23.54537-8.16215-25.85724-18.33913-1.39296-6.13186-0.51563-27.49815-0.63299-41.02005-0.0615-7.08027 9.64395-7.35764 9.69307-0.25882l0.24951 36.05764c0.0611 8.82379 5.98582 16.30118 16.29864 16.30118 10.3128 0 18.70803-7.176 18.70803-16v-36.636c0-7.29737 8.99585-7.25989 9.20329 0.89811 0.55463 21.8115 0.10785 29.84451-0.63289 39.65963-0.95835 12.70088-15.39287 19.37453-27.02942 19.33744z" style="fill:#df1f26;stroke-width:1.08132"/>
	
















</svg>
