<svg version="1.1" viewBox="0 0 72 72" xmlns="http://www.w3.org/2000/svg">
 <style/>
 <!-- Generator: Sketch 49.2 (51160) - http://www.bohemiancoding.com/sketch -->
 <title>Twitter</title>
 <desc>Created with Sketch.</desc>
 <g fill="none" fill-rule="evenodd">
  <g id="Social-Icons---Squared" transform="translate(-264 -43)">
   <g id="Twitter" transform="translate(264 43)">
    <polygon id="Square" points="0 72 72 72 72 0 0 0" fill="#4DC8F1"/>
    <path d="m55.0865399 25.7148754c0.6215539 13.8510984-9.7066195 29.2944125-27.9911544 29.2944125-5.5609612 0-10.7374318-1.6311366-15.0953855-4.4251806 5.2236474 0.6156568 10.4390388-0.8326699 14.5787999-4.0784313-4.3084181-0.0790211-7.9457467-2.9261389-9.1982898-6.8382722 1.5426802 0.2948548 3.0605927 0.2087572 4.4464101-0.1674775-4.7365472-0.9529707-8.0047176-5.2189297-7.8985699-9.7809229 1.3280259 0.737137 2.8471178 1.1805985 4.4617426 1.2301341-4.3862598-2.9296771-5.6281881-8.720625-3.0476191-13.1469851 4.8556686 5.9584255 12.1114551 9.8788147 20.2966239 10.290432-1.435353-6.1612856 3.2375056-12.0925844 9.5933953-12.0925844 2.8329648 0 5.3923043 1.1947516 7.1873802 3.1089488 2.2432552-0.4411027 4.3508772-1.260799 6.2532803-2.3895031-0.7347781 2.2998673-2.2963291 4.2305764-4.3296477 5.447737 1.9920389-0.2370633 3.8897243-0.7666225 5.6564942-1.5497568-1.31977 1.9755271-2.9898275 3.7092732-4.9134601 5.0974495" fill="#fff"/>
   </g>
  </g>
  <path d="m0 36.032401v-35.9576469h72v71.9152939h-72zm29.397186 18.927426c7.026725-0.549197 12.94181-3.281821 17.704653-8.179113 5.069418-5.212523 8.03236-12.535592 8.043518-19.879986l0.0018-1.202444 0.485233-0.338824c0.778094-0.543321 3.059281-2.865731 3.778362-3.846643 0.355589-0.485065 0.634831-0.89363 0.620539-0.907923-0.01429-0.01429-0.405185 0.122778-0.868651 0.304601s-1.185724 0.430008-1.605019 0.551522c-0.801404 0.232251-2.8366 0.666548-2.887067 0.616081-0.01622-0.01622 0.204008-0.199146 0.489392-0.406505 1.090641-0.792454 2.141382-1.996831 2.814882-3.226465 0.288792-0.527263 0.726319-1.548731 0.726319-1.695699 0-0.03628-0.469559 0.175101-1.043466 0.469739-1.245864 0.639613-2.474751 1.12403-3.742416 1.475229-1.571329 0.435327-1.416316 0.445739-2.02195-0.13582-1.062649-1.020408-2.582218-1.84928-4.189571-2.285265-0.749419-0.203275-0.959523-0.222476-2.470832-0.225804-1.549106-0.0034-1.703705 0.01084-2.487486 0.229384-1.834852 0.511607-3.315099 1.379954-4.567962 2.679673-1.622474 1.683151-2.5311 3.627464-2.783731 5.95673-0.09468 0.87297-0.02042 2.280889 0.154967 2.937971l0.05438 0.203747-0.796849-0.05939c-4.847255-0.361258-9.904037-2.204191-13.926231-5.07539-1.713105-1.222881-4.05806-3.376862-5.158723-4.738597-0.178867-0.221294-0.353212-0.402352-0.387431-0.402352-0.109901 0-0.749241 1.469719-0.968552 2.226513-1.088602 3.756538 0.212938 7.971787 3.204535 10.378402 0.726597 0.584517 0.71837 0.592128-0.426969 0.395058-0.909599-0.156508-1.919493-0.472212-2.584685-0.807999-0.270692-0.136645-0.531372-0.248445-0.579289-0.248445-0.128096 0-0.106891 0.879211 0.04213 1.746551 0.365829 2.1293 1.390082 4.037777 2.976588 5.546238 1.130157 1.074561 2.255032 1.740562 3.782806 2.239675l0.832168 0.271863-0.578051 0.114013c-0.638322 0.1259-2.417485 0.155941-3.19241 0.0539l-0.496712-0.0654 0.05787 0.234816c0.03183 0.129148 0.224048 0.586777 0.42715 1.016952 1.15965 2.456157 3.291706 4.335807 5.875637 5.180045 0.681795 0.22276 1.782168 0.433113 2.265651 0.433113 0.204501 0 0.371819 0.03616 0.371819 0.08036 0 0.168818-2.131149 1.499121-3.354825 2.094145-2.073772 1.008391-4.301342 1.653803-6.558031 1.900111-0.521661 0.05694-1.629077 0.08116-2.688058 0.05879l-1.800915-0.03804 0.530326 0.338177c0.29168 0.185998 1.025856 0.59664 1.631503 0.912538 4.723173 2.463549 9.978024 3.535628 15.293657 3.120167z" style="fill:#f00;stroke-dasharray:1.01783, 0.12722800000000001;stroke-linejoin:round;stroke-opacity:.564286;stroke-width:.127228;stroke:#000"/>
  <path d="m0.61411765 71.922477-0.52941177-0.025218-0.00167459-0.483018c-0.0219287-6.325066 0.00504795-71.20168379 0.02961693-71.22625276 0.04597561-0.04597562 71.72804078-0.04666219 71.77401578-6.8745e-4 0.04592 0.0459176 0.0459 71.64430621-2.2e-5 71.69022321-0.03956 0.03956-70.453443 0.08397-71.27252435 0.04495zm28.75026435-16.875432c1.685305-0.138627 2.004229-0.176307 2.149264-0.253927 0.07924-0.04241 0.16552-0.05567 0.191724-0.02946 0.02621 0.0262 0.250393 0.0029 0.498197-0.0517 0.247803-0.05464 0.578324-0.116387 0.734491-0.13721 1.072926-0.143065 3.709577-0.929774 5.304481-1.582721 0.400669-0.164033 2.842779-1.394515 3.274503-1.649893 0.801349-0.474028 1.682958-1.069518 1.682958-1.136773 0-0.03819 0.04216-0.06943 0.09369-0.06943s0.251649-0.123546 0.444706-0.274545c0.193057-0.151 0.38913-0.302258 0.435719-0.33613 1.123558-0.816875 4.108235-3.672862 4.108235-3.931101 0-0.06438 0.03474-0.117048 0.0772-0.117048 0.06899 0 1.012547-1.149736 1.390313-1.694118 0.195161-0.281238 1.173704-1.77573 1.30337-1.990588 0.664539-1.101147 1.972643-3.706622 1.972643-3.929099 0-0.03444 0.07376-0.21528 0.163916-0.401877 0.09015-0.186597 0.190705-0.45105 0.223445-0.587675 0.03274-0.136624 0.08852-0.286525 0.123944-0.333114 0.173968-0.228766 1.14556-3.778275 1.170903-4.277647 0.0035-0.06988 0.06415-0.404147 0.134672-0.742811 0.07052-0.338663 0.14613-0.863415 0.168015-1.166115 0.02189-0.3027 0.05959-0.582402 0.08379-0.621559 0.05572-0.09016 0.133666-1.886005 0.133666-3.079655v-0.910087l0.36-0.224063c0.54979-0.342188 3.260965-3.104954 3.945719-4.020802 0.535328-0.715995 0.700232-1.009025 0.56783-1.009025-0.05582 0-0.808813 0.257612-1.061784 0.363252-0.116471 0.04864-0.230824 0.09394-0.254118 0.100677-0.02329 0.0067-0.347294 0.110563-0.72 0.230734-0.372706 0.12017-1.039764 0.302239-1.482353 0.404595-0.442588 0.102357-0.861882 0.206387-0.931764 0.231179-0.06988 0.02479-0.23775 0.05561-0.373039 0.0685l-0.245979 0.02342 0.288332-0.222938c1.168102-0.903173 2.378863-2.382508 2.922831-3.571181 0.463064-1.011885 0.541972-1.203408 0.541972-1.315452 0-0.201806-0.172139-0.151362-1.282581 0.375848-1.643006 0.780058-1.933939 0.890625-4.154511 1.57888-0.708684 0.219654-0.900545 0.174659-1.464711-0.343491-0.27858-0.255858-0.554933-0.465197-0.614117-0.465197-0.05918 0-0.107609-0.0347-0.107609-0.07711 0-0.111906-1.042177-0.752697-1.745358-1.073147-0.850672-0.387663-1.92844-0.715366-2.574642-0.782839-0.572695-0.0598-2.617919-0.07441-3.134118-0.02239-0.32627 0.03288-0.902461 0.156327-1.101176 0.235927-0.06988 0.02799-0.203294 0.06461-0.296471 0.08138-0.654141 0.117704-2.532548 1.077191-2.991933 1.528273-0.06156 0.06045-0.144972 0.10991-0.185355 0.10991-0.158246 0-1.675363 1.611003-2.094825 2.224461-0.865967 1.266469-1.502839 2.900354-1.691784 4.340245-0.09006 0.686327-0.06268 2.623922 0.04345 3.075373l0.08576 0.364784-0.648542-0.04893c-0.712541-0.05376-2.659704-0.330838-3.237838-0.460736-0.201459-0.04527-0.394296-0.06499-0.428526-0.04384-0.03423 0.02116-0.08351 4e-3 -0.109507-0.03802-0.026-0.04207-0.190632-0.102263-0.365852-0.133769-0.175221-0.03151-0.566408-0.129917-0.869305-0.218688-0.302897-0.08877-0.626897-0.175941-0.72-0.19371-0.0931-0.01777-0.226455-0.05598-0.296337-0.08492-0.06988-0.02894-0.527294-0.190504-1.016471-0.359039-0.489176-0.168536-1.003764-0.356727-1.143529-0.418202-0.139765-0.06148-0.602211-0.267753-1.027659-0.458393-0.425447-0.190639-0.795417-0.346618-0.822154-0.346618-0.02674 0-0.244739-0.115639-0.484447-0.256976s-0.47962-0.265219-0.533139-0.275294c-0.05352-0.01007-0.116366-0.03902-0.13966-0.06433-0.0826-0.08974-1.79349-1.097517-1.863235-1.097517-0.03899 0-0.08359-0.03081-0.09912-0.06846s-0.218823-0.196674-0.451764-0.353379c-0.232942-0.156706-0.600349-0.43084-0.816462-0.609187-0.216112-0.178347-0.410444-0.324267-0.431847-0.324267-0.04563 0-0.533963-0.42502-1.711851-1.489903-0.8928-0.807145-1.810162-1.734592-2.422291-2.448921-0.199615-0.232941-0.42283-0.423529-0.496034-0.423529-0.0732 0-0.212783 0.15247-0.310175 0.338823-0.163827 0.313474-0.498986 1.130791-0.503665 1.228235-0.0011 0.0233-0.02503 0.08047-0.05314 0.127059-0.06755 0.111955-0.26249 0.717568-0.299924 0.931765-0.01628 0.09318-0.08826 0.474353-0.159957 0.847059-0.14444 0.75089-0.115942 2.77236 0.04777 3.388235 0.04953 0.186353 0.109701 0.434118 0.133701 0.550588 0.275222 1.335594 1.062055 2.893487 2.053528 4.065883 0.499978 0.591212 1.409457 1.44 1.542967 1.44 0.04483 0 0.0815 0.03242 0.0815 0.07206 0 0.220664-2.279299-0.370989-3.266044-0.847791-0.77267-0.37336-0.833847-0.31893-0.774237 0.68886 0.04757 0.804178 0.343113 2.254176 0.491636 2.412051 0.04164 0.04426 0.0757 0.133164 0.0757 0.197567 0 0.382368 0.975768 2.134414 1.661401 2.983139 0.740444 0.916576 2.038251 1.986228 2.981673 2.457496 0.858355 0.428774 0.944485 0.466193 1.576211 0.684776l0.586345 0.202881-0.332227 0.0593c-0.446734 0.07973-2.436227 0.09282-3.07772 0.02025-0.480502-0.05436-0.515683-0.04664-0.515683 0.11314 0 0.17172 0.481783 1.38008 0.582039 1.459811 0.02929 0.02329 0.162752 0.261529 0.29658 0.529412 0.13383 0.267882 0.276771 0.487059 0.317647 0.487059 0.04088 0 0.07432 0.04216 0.07432 0.09369s0.119854 0.251648 0.266342 0.444706c0.321744 0.424029 1.830014 1.918071 1.936336 1.918071 0.04161 0 0.173846 0.091 0.29386 0.202228 0.351893 0.326123 2.025454 1.138632 2.82357 1.370833 0.720183 0.209529 0.94081 0.25237 1.870174 0.363152l0.456164 0.05438-0.456164 0.308163c-0.618686 0.417955-1.158932 0.75547-1.514988 0.946476-0.163058 0.08747-0.391764 0.220789-0.508235 0.296256-0.248077 0.160743-1.18727 0.627333-1.318753 0.655157-0.04978 0.01054-0.29755 0.115323-0.550588 0.232863-1.138817 0.528997-3.817909 1.241949-5.245953 1.396038-0.302824 0.03268-1.494 0.05512-2.647059 0.04987-1.502518-0.0068-2.096282 0.01746-2.095802 0.08576 6.78e-4 0.102483 1.347135 0.926379 1.472214 0.900875 0.04138-0.0084 0.100411 0.02539 0.131181 0.07518 0.08085 0.130814 1.887858 1.023393 1.969584 0.972884 0.03779-0.02336 0.0687-0.0061 0.0687 0.03835 0 0.207707 3.865184 1.552769 5.251765 1.827584 0.116471 0.02308 0.573883 0.117233 1.016471 0.209221 0.442588 0.09199 0.957176 0.185521 1.143529 0.207853 0.186353 0.02233 0.662824 0.08215 1.058824 0.132926 1.344156 0.172352 3.882546 0.215163 5.392617 0.09095z" style="fill:#f00;stroke-dasharray:1.01783, 0.12722800000000001;stroke-linejoin:round;stroke-opacity:.564286;stroke-width:.127228;stroke:#000"/>
  <path d="m0.78352941 71.838102c-0.60439507-0.024494-0.61414771-0.028516-0.61601651-0.254118-0.03181431-3.840614 0.01812401-69.3351778 0.05341837-70.0586836 0.03726956-0.76399591 0.02393893-1.0650869-0.04915625-1.1102622-0.05516155-0.03409171 0.25527004-0.08802153 0.68984796-0.11984404 1.10209382-0.0807022 70.05739202-0.05303445 70.63014202 0.02833976 0.256235 0.036405 0.412977 0.0715578 0.348316 0.0781173-0.09439 0.009575-0.10629 0.13635474-0.06037 0.64308658 0.05646 0.623074 0.06664 69.1700542 0.01041 70.1259422-0.01597 0.271464-0.04735 0.511893-0.06974 0.534283s-0.359342 0.06055-0.74878 0.0848c-0.731553 0.04556-69.0949633 0.09263-70.18806959 0.04834zm28.77647859-16.707426c0.493377-0.04165 0.815367-0.106754 0.836136-0.169061 0.02591-0.07773 0.0487-0.07717 0.09786 0.0024 0.05001 0.08092 0.201232 0.08234 0.68857 0.0065 1.405942-0.218843 2.615101-0.451074 2.615551-0.502344 2.55e-4 -0.03 0.143205-0.06049 0.317648-0.06775 0.174442-0.0073 0.43152-0.06085 0.571285-0.119092 0.139765-0.05824 0.292235-0.110127 0.338823-0.115303 0.279185-0.031054 0.974119-0.262202 0.974119-0.324045 0-0.04053 0.03406-0.05264 0.07569-0.02691 0.0654 0.04042 0.532207-0.08996 0.940785-0.262749 0.06988-0.02956 0.165176-0.06298 0.211764-0.07428 0.551697-0.133795 3.915778-1.735064 4.033-1.919667 0.0285-0.04489 0.0702-0.06883 0.09266-0.0532 0.06313 0.04392 1.519485-0.865508 1.741409-1.087432 0.108404-0.108408 0.22974-0.197103 0.269636-0.197103 0.115256 0 1.61388-1.182329 1.61388-1.27326 0-0.04512 0.05232-0.08203 0.11627-0.08203s0.274381-0.171529 0.467628-0.381176c0.193245-0.209647 0.377219-0.381177 0.408829-0.381177 0.0958 0 2.310802-2.235446 2.310802-2.332132 0-0.04948 0.152471-0.23884 0.338823-0.420809 0.186353-0.181976 0.338824-0.380301 0.338824-0.440728 0-0.06043 0.03302-0.109868 0.07337-0.109868 0.113136 0 0.690917-0.775393 0.639622-0.858389-0.02494-0.04036 0.0045-0.07367 0.06553-0.07403 0.0927-5.08e-4 0.44796-0.503188 0.568288-0.804054 0.01863-0.04659 0.05961-0.103764 0.09106-0.127058 0.211005-0.156274 1.202468-1.820827 1.128565-1.89473-0.02943-0.02943-0.01435-0.05351 0.03351-0.05351 0.156182 0 1.81056-3.465207 1.92886-4.04013 0.01729-0.08405 0.113809-0.336647 0.214476-0.561336 0.100668-0.224689 0.162159-0.462924 0.136645-0.529412-0.02551-0.06649-0.01478-0.120886 0.02385-0.120886 0.08452 0 0.359484-0.929311 0.302329-1.02179-0.02207-0.0357-0.0085-0.0777 0.03013-0.09333 0.06412-0.02593 0.467302-1.539936 0.571501-2.146058 0.02403-0.139765 0.09893-0.559059 0.166455-0.931765 0.06753-0.372705 0.141114-0.849176 0.163531-1.058823 0.02242-0.209647 0.08146-0.743294 0.131207-1.185882 0.04975-0.442589 0.0853-0.938118 0.07901-1.101177-0.03564-0.924063 0.01567-2.544566 0.07933-2.50522 0.133506 0.08251 0.789266-0.500032 2.31907-2.060147 1.535696-1.566124 2.519515-2.767272 2.519515-3.076085 0-0.143232-0.03971-0.164691-0.232941-0.125888-0.128117 0.02573-0.347294 0.094-0.487059 0.151726-0.139764 0.05772-0.273176 0.110371-0.29647 0.117-0.02329 0.0066-0.42353 0.137047-0.889412 0.28982s-1.228235 0.37136-1.694118 0.485749c-0.465882 0.11439-0.923294 0.228689-1.01647 0.253999-0.09566 0.02598 0.107159-0.226585 0.465882-0.580164 0.854502-0.842247 1.634808-1.760202 1.496257-1.760202-0.02671 0 0.03964-0.0882 0.147443-0.195999 0.187853-0.187853 0.86805-1.488301 0.916504-1.752236 0.01283-0.06988 0.05526-0.150433 0.09428-0.179 0.03903-0.02857 0.07714-0.179658 0.08471-0.335756 0.01954-0.403214-0.157026-0.406115-0.983088-0.01615-0.383503 0.181043-0.897397 0.419194-1.141985 0.529223-0.244588 0.110031-0.444706 0.233907-0.444706 0.275281 0 0.04137-0.0339 0.05428-0.07533 0.02867-0.07019-0.04338-0.931994 0.268593-1.025849 0.371359-0.02329 0.02551-0.09953 0.05105-0.169411 0.05676-0.06988 0.0057-0.583536 0.149795-1.141451 0.320183-1.031347 0.314976-1.369285 0.333769-1.573657 0.08752-0.05551-0.06689-0.130569-0.121613-0.166793-0.121613-0.03622 0-0.197283-0.123883-0.357905-0.275295-0.443744-0.418297-0.991877-0.794246-1.708426-1.171762-0.62982-0.331824-1.655341-0.759433-1.912945-0.797637-0.06988-0.01036-0.184235-0.04131-0.254117-0.06878-0.503358-0.197811-1.168954-0.261337-2.795295-0.266793-1.404384-0.0047-2.710588 0.180039-2.710588 0.383387 0 0.03485-0.07621 0.04344-0.169357 0.01908-0.217594-0.0569-2.342615 0.986947-2.712406 1.332382-0.148649 0.13886-0.319392 0.252471-0.37943 0.252471-0.153496 0-1.767217 1.708222-2.153114 2.279203-0.688934 1.019359-1.331489 2.531859-1.573632 3.704149-0.101737 0.492544-0.111462 0.671358-0.03785 0.695896 0.07451 0.02484 0.07485 0.04799 0.0014 0.0934-0.105877 0.06544-0.144589 1.537942-0.06813 2.591493l0.04333 0.597086-0.539955-0.0195c-0.296975-0.01073-0.571576-0.03905-0.610224-0.06293-0.03865-0.02389-0.296538-0.06409-0.573087-0.08935-1.492842-0.136338-3.925871-0.725357-5.897065-1.427637-0.590836-0.210498-1.095895-0.361076-1.122353-0.334617-0.02646 0.02646-0.04811 0.0083-0.04811-0.04044 0-0.0487-0.123882-0.138006-0.275294-0.198457-1.076763-0.429889-2.413969-1.09555-3.178375-1.582196-0.245636-0.156379-0.479878-0.263766-0.520537-0.238638-0.04066 0.02513-0.09502-0.0093-0.120795-0.07646-0.02578-0.06718-0.172714-0.186336-0.326523-0.264794-0.424926-0.216754-1.839264-1.266987-2.600978-1.931386-0.260682-0.227378-0.676187-0.589495-0.923344-0.804706-0.247156-0.21521-0.625118-0.57235-0.839915-0.793644-0.214798-0.221294-0.443652-0.402353-0.508565-0.402353-0.06491 0-0.09781-0.03271-0.07309-0.0727 0.02471-0.03998-0.154098-0.266666-0.397353-0.503735-0.243257-0.237071-0.611036-0.622163-0.817287-0.855759-0.4289-0.485768-0.568242-0.562408-0.749314-0.412132-0.286436 0.237721-1.170845 2.489297-1.093684 2.784361 0.02201 0.08416 0.0021 0.165649-0.04419 0.181086-0.04631 0.01544-0.08991 0.26472-0.09689 0.553962-7e-3 0.289244-0.04439 0.526206-0.08313 0.526584-0.03874 3.39e-4 -0.05045 0.486686-0.02602 1.080686s0.04665 1.170299 0.04938 1.280664c0.01789 0.723435 0.826227 3.145218 1.049797 3.145218 0.04639 0 0.06045 0.02389 0.03125 0.05309-0.158779 0.15878 0.921089 1.704296 1.817016 2.600529 0.6883 0.688535 0.725746 0.742789 0.472956 0.685229-0.15099-0.03438-0.331703-0.07016-0.401585-0.07951-0.06988-0.0093-0.184236-0.03845-0.254118-0.06468-0.423391-0.158881-0.785549-0.239184-0.892905-0.197988-0.06796 0.02608-0.123566 0.01592-0.123566-0.02257s-0.348779-0.21455-0.775064-0.391243c-0.996646-0.413103-1.047683-0.387715-1.041694 0.518188 0.0024 0.367596 0.02989 0.820826 0.06102 1.007179s0.08014 0.481764 0.10891 0.65647 0.08932 0.317647 0.134566 0.317647c0.04524 0 0.0577 0.03973 0.02769 0.08829-0.05919 0.09577 0.215582 0.952454 0.320392 0.998941 0.03523 0.01563 0.0434 0.06184 0.01814 0.102707-0.05508 0.08912 0.356846 0.927705 0.4557 0.927705 0.03804 0 0.06916 0.05331 0.06916 0.118475 0 0.319007 0.878707 1.507004 1.776297 2.401525 0.525916 0.524118 0.993785 0.952942 1.03971 0.952942 0.04593 0 0.176763 0.08643 0.290752 0.192073 0.289385 0.268195 1.729994 1.015993 1.833745 0.951872 0.04696-0.02902 0.08538-0.01558 0.08538 0.02988s0.162 0.13999 0.36 0.210076c0.248842 0.08808 0.301152 0.129495 0.169412 0.134118-0.104824 0.0037-0.190509 0.03528-0.19041 0.07022 8.4e-5 0.03494-0.252797 0.05052-0.561987 0.03462-0.403521-0.02075-0.582486 0.0032-0.634175 0.08471-0.0462 0.0729-0.07247 0.07836-0.07331 0.01526-0.0016-0.123381-1.015152-0.193665-1.024609-0.07105-0.0036 0.04659-0.02576 0.03706-0.04926-0.02118-0.02539-0.06292-0.199036-0.105883-0.427995-0.105883h-0.385271l0.0466 0.347404c0.04533 0.337985 0.967973 2.278479 1.08334 2.278479 0.03173 0 0.108931 0.123684 0.171547 0.274853 0.149246 0.360309 1.748742 2.006394 2.401876 2.471836 0.596845 0.425327 1.696303 0.995955 1.772379 0.919879 0.02885-0.02885 0.05245-0.01158 0.05245 0.03836 0 0.149167 1.416608 0.61556 2.343946 0.771703l0.86449 0.14556-0.714806 0.448648c-0.39313 0.246768-0.714793 0.485965-0.714793 0.531561 0 0.0456-0.03076 0.06389-0.06835 0.04066s-0.237711 0.05551-0.444706 0.174987c-0.497017 0.286875-1.55133 0.808225-2.028119 1.002887-0.209648 0.08559-0.423063 0.20531-0.474259 0.266035-0.05119 0.06073-0.114551 0.08894-0.140792 0.0627-0.06766-0.06766-0.994361 0.235163-0.994361 0.32493 0 0.04083-0.03247 0.05417-0.07215 0.02964-0.102573-0.06339-1.029024 0.211667-1.029024 0.305514 0 0.04285-0.03869 0.05399-0.08598 0.02476-0.109375-0.0676-1.015192 0.131711-1.015192 0.223376 0 0.03771-0.04801 0.05014-0.106691 0.02763-0.05868-0.02252-0.296916-2e-3 -0.529412 0.04555-0.640727 0.131098-1.024492 0.1653-1.901023 0.169423-0.538282 0.0025-0.822376 0.03796-0.866938 0.108112-0.05221 0.0822-0.06656 0.08187-0.06758-0.0015-9.06e-4 -0.07371-0.168576-0.105882-0.551885-0.105882-0.383308 0-0.550982 0.03217-0.551885 0.105882-9.91e-4 0.08089-0.01788 0.07973-0.07156-0.0049-0.07058-0.111288-0.951787-0.133344-1.477044-0.03697-0.300326 0.0551-0.271383 0.238864 0.06755 0.428842 0.139765 0.07834 0.273449 0.167829 0.297076 0.198861 0.06608 0.08679 1.045739 0.61581 2.032336 1.097471 0.489176 0.238819 1.099059 0.539566 1.355294 0.668327s0.713647 0.318548 1.016471 0.42175c0.302823 0.103201 0.626823 0.221555 0.72 0.263007 0.402158 0.178916 0.913288 0.325913 0.983137 0.282743 0.04163-0.02573 0.07569-0.01362 0.07569 0.02691 0 0.06184 0.694934 0.292991 0.974118 0.324008 0.04659 0.0052 0.199059 0.05706 0.338823 0.115304 0.139765 0.05824 0.396843 0.111832 0.571286 0.119091 0.174442 0.0073 0.317383 0.03683 0.317647 0.06572 7.62e-4 0.08327 1.925401 0.43922 2.111594 0.390529 0.0923-0.02414 0.179404-0.0091 0.193562 0.03334 0.02674 0.08022 0.821063 0.174534 1.745427 0.20725 0.294146 0.01041 0.556949 0.04107 0.584008 0.06813 0.07128 0.07128 3.228662 0.04506 4.172955-0.03466z" style="fill:#f00;stroke-dasharray:1.01783, 0.127228;stroke-linejoin:round;stroke-opacity:.564286;stroke-width:.127228;stroke:#000"/>
  <path d="m0.78352941 71.838102c-0.60439507-0.024494-0.61414771-0.028516-0.61601651-0.254118-0.03181431-3.840614 0.01812401-69.3351778 0.05341837-70.0586836 0.03726956-0.76399591 0.02393893-1.0650869-0.04915625-1.1102622-0.05516155-0.03409171 0.25527004-0.08802153 0.68984796-0.11984404 1.10209382-0.0807022 70.05739202-0.05303445 70.63014202 0.02833976 0.256235 0.036405 0.412977 0.0715578 0.348316 0.0781173-0.09439 0.009575-0.10629 0.13635474-0.06037 0.64308658 0.05646 0.623074 0.06664 69.1700542 0.01041 70.1259422-0.01597 0.271464-0.04735 0.511893-0.06974 0.534283s-0.359342 0.06055-0.74878 0.0848c-0.731553 0.04556-69.0949633 0.09263-70.18806959 0.04834zm28.77647859-16.707426c0.493377-0.04165 0.815367-0.106754 0.836136-0.169061 0.02591-0.07773 0.0487-0.07717 0.09786 0.0024 0.05001 0.08092 0.201232 0.08234 0.68857 0.0065 1.405942-0.218843 2.615101-0.451074 2.615551-0.502344 2.55e-4 -0.03 0.143205-0.06049 0.317648-0.06775 0.174442-0.0073 0.43152-0.06085 0.571285-0.119092 0.139765-0.05824 0.292235-0.110127 0.338823-0.115303 0.279185-0.031054 0.974119-0.262202 0.974119-0.324045 0-0.04053 0.03406-0.05264 0.07569-0.02691 0.0654 0.04042 0.532207-0.08996 0.940785-0.262749 0.06988-0.02956 0.165176-0.06298 0.211764-0.07428 0.551697-0.133795 3.915778-1.735064 4.033-1.919667 0.0285-0.04489 0.0702-0.06883 0.09266-0.0532 0.06313 0.04392 1.519485-0.865508 1.741409-1.087432 0.108404-0.108408 0.22974-0.197103 0.269636-0.197103 0.115256 0 1.61388-1.182329 1.61388-1.27326 0-0.04512 0.05232-0.08203 0.11627-0.08203s0.274381-0.171529 0.467628-0.381176c0.193245-0.209647 0.377219-0.381177 0.408829-0.381177 0.0958 0 2.310802-2.235446 2.310802-2.332132 0-0.04948 0.152471-0.23884 0.338823-0.420809 0.186353-0.181976 0.338824-0.380301 0.338824-0.440728 0-0.06043 0.03302-0.109868 0.07337-0.109868 0.113136 0 0.690917-0.775393 0.639622-0.858389-0.02494-0.04036 0.0045-0.07367 0.06553-0.07403 0.0927-5.08e-4 0.44796-0.503188 0.568288-0.804054 0.01863-0.04659 0.05961-0.103764 0.09106-0.127058 0.211005-0.156274 1.202468-1.820827 1.128565-1.89473-0.02943-0.02943-0.01435-0.05351 0.03351-0.05351 0.156182 0 1.81056-3.465207 1.92886-4.04013 0.01729-0.08405 0.113809-0.336647 0.214476-0.561336 0.100668-0.224689 0.162159-0.462924 0.136645-0.529412-0.02551-0.06649-0.01478-0.120886 0.02385-0.120886 0.08452 0 0.359484-0.929311 0.302329-1.02179-0.02207-0.0357-0.0085-0.0777 0.03013-0.09333 0.06412-0.02593 0.467302-1.539936 0.571501-2.146058 0.02403-0.139765 0.09893-0.559059 0.166455-0.931765 0.06753-0.372705 0.141114-0.849176 0.163531-1.058823 0.02242-0.209647 0.08146-0.743294 0.131207-1.185882 0.04975-0.442589 0.0853-0.938118 0.07901-1.101177-0.03564-0.924063 0.01567-2.544566 0.07933-2.50522 0.133506 0.08251 0.789266-0.500032 2.31907-2.060147 1.535696-1.566124 2.519515-2.767272 2.519515-3.076085 0-0.143232-0.03971-0.164691-0.232941-0.125888-0.128117 0.02573-0.347294 0.094-0.487059 0.151726-0.139764 0.05772-0.273176 0.110371-0.29647 0.117-0.02329 0.0066-0.42353 0.137047-0.889412 0.28982s-1.228235 0.37136-1.694118 0.485749c-0.465882 0.11439-0.923294 0.228689-1.01647 0.253999-0.09566 0.02598 0.107159-0.226585 0.465882-0.580164 0.854502-0.842247 1.634808-1.760202 1.496257-1.760202-0.02671 0 0.03964-0.0882 0.147443-0.195999 0.187853-0.187853 0.86805-1.488301 0.916504-1.752236 0.01283-0.06988 0.05526-0.150433 0.09428-0.179 0.03903-0.02857 0.07714-0.179658 0.08471-0.335756 0.01954-0.403214-0.157026-0.406115-0.983088-0.01615-0.383503 0.181043-0.897397 0.419194-1.141985 0.529223-0.244588 0.110031-0.444706 0.233907-0.444706 0.275281 0 0.04137-0.0339 0.05428-0.07533 0.02867-0.07019-0.04338-0.931994 0.268593-1.025849 0.371359-0.02329 0.02551-0.09953 0.05105-0.169411 0.05676-0.06988 0.0057-0.583536 0.149795-1.141451 0.320183-1.031347 0.314976-1.369285 0.333769-1.573657 0.08752-0.05551-0.06689-0.130569-0.121613-0.166793-0.121613-0.03622 0-0.197283-0.123883-0.357905-0.275295-0.443744-0.418297-0.991877-0.794246-1.708426-1.171762-0.62982-0.331824-1.655341-0.759433-1.912945-0.797637-0.06988-0.01036-0.184235-0.04131-0.254117-0.06878-0.503358-0.197811-1.168954-0.261337-2.795295-0.266793-1.404384-0.0047-2.710588 0.180039-2.710588 0.383387 0 0.03485-0.07621 0.04344-0.169357 0.01908-0.217594-0.0569-2.342615 0.986947-2.712406 1.332382-0.148649 0.13886-0.319392 0.252471-0.37943 0.252471-0.153496 0-1.767217 1.708222-2.153114 2.279203-0.688934 1.019359-1.331489 2.531859-1.573632 3.704149-0.101737 0.492544-0.111462 0.671358-0.03785 0.695896 0.07451 0.02484 0.07485 0.04799 0.0014 0.0934-0.105877 0.06544-0.144589 1.537942-0.06813 2.591493l0.04333 0.597086-0.539955-0.0195c-0.296975-0.01073-0.571576-0.03905-0.610224-0.06293-0.03865-0.02389-0.296538-0.06409-0.573087-0.08935-1.492842-0.136338-3.925871-0.725357-5.897065-1.427637-0.590836-0.210498-1.095895-0.361076-1.122353-0.334617-0.02646 0.02646-0.04811 0.0083-0.04811-0.04044 0-0.0487-0.123882-0.138006-0.275294-0.198457-1.076763-0.429889-2.413969-1.09555-3.178375-1.582196-0.245636-0.156379-0.479878-0.263766-0.520537-0.238638-0.04066 0.02513-0.09502-0.0093-0.120795-0.07646-0.02578-0.06718-0.172714-0.186336-0.326523-0.264794-0.424926-0.216754-1.839264-1.266987-2.600978-1.931386-0.260682-0.227378-0.676187-0.589495-0.923344-0.804706-0.247156-0.21521-0.625118-0.57235-0.839915-0.793644-0.214798-0.221294-0.443652-0.402353-0.508565-0.402353-0.06491 0-0.09781-0.03271-0.07309-0.0727 0.02471-0.03998-0.154098-0.266666-0.397353-0.503735-0.243257-0.237071-0.611036-0.622163-0.817287-0.855759-0.4289-0.485768-0.568242-0.562408-0.749314-0.412132-0.286436 0.237721-1.170845 2.489297-1.093684 2.784361 0.02201 0.08416 0.0021 0.165649-0.04419 0.181086-0.04631 0.01544-0.08991 0.26472-0.09689 0.553962-7e-3 0.289244-0.04439 0.526206-0.08313 0.526584-0.03874 3.39e-4 -0.05045 0.486686-0.02602 1.080686s0.04665 1.170299 0.04938 1.280664c0.01789 0.723435 0.826227 3.145218 1.049797 3.145218 0.04639 0 0.06045 0.02389 0.03125 0.05309-0.158779 0.15878 0.921089 1.704296 1.817016 2.600529 0.6883 0.688535 0.725746 0.742789 0.472956 0.685229-0.15099-0.03438-0.331703-0.07016-0.401585-0.07951-0.06988-0.0093-0.184236-0.03845-0.254118-0.06468-0.423391-0.158881-0.785549-0.239184-0.892905-0.197988-0.06796 0.02608-0.123566 0.01592-0.123566-0.02257s-0.348779-0.21455-0.775064-0.391243c-0.996646-0.413103-1.047683-0.387715-1.041694 0.518188 0.0024 0.367596 0.02989 0.820826 0.06102 1.007179s0.08014 0.481764 0.10891 0.65647 0.08932 0.317647 0.134566 0.317647c0.04524 0 0.0577 0.03973 0.02769 0.08829-0.05919 0.09577 0.215582 0.952454 0.320392 0.998941 0.03523 0.01563 0.0434 0.06184 0.01814 0.102707-0.05508 0.08912 0.356846 0.927705 0.4557 0.927705 0.03804 0 0.06916 0.05331 0.06916 0.118475 0 0.319007 0.878707 1.507004 1.776297 2.401525 0.525916 0.524118 0.993785 0.952942 1.03971 0.952942 0.04593 0 0.176763 0.08643 0.290752 0.192073 0.289385 0.268195 1.729994 1.015993 1.833745 0.951872 0.04696-0.02902 0.08538-0.01558 0.08538 0.02988s0.162 0.13999 0.36 0.210076c0.248842 0.08808 0.301152 0.129495 0.169412 0.134118-0.104824 0.0037-0.190509 0.03528-0.19041 0.07022 8.4e-5 0.03494-0.252797 0.05052-0.561987 0.03462-0.403521-0.02075-0.582486 0.0032-0.634175 0.08471-0.0462 0.0729-0.07247 0.07836-0.07331 0.01526-0.0016-0.123381-1.015152-0.193665-1.024609-0.07105-0.0036 0.04659-0.02576 0.03706-0.04926-0.02118-0.02539-0.06292-0.199036-0.105883-0.427995-0.105883h-0.385271l0.0466 0.347404c0.04533 0.337985 0.967973 2.278479 1.08334 2.278479 0.03173 0 0.108931 0.123684 0.171547 0.274853 0.149246 0.360309 1.748742 2.006394 2.401876 2.471836 0.596845 0.425327 1.696303 0.995955 1.772379 0.919879 0.02885-0.02885 0.05245-0.01158 0.05245 0.03836 0 0.149167 1.416608 0.61556 2.343946 0.771703l0.86449 0.14556-0.714806 0.448648c-0.39313 0.246768-0.714793 0.485965-0.714793 0.531561 0 0.0456-0.03076 0.06389-0.06835 0.04066s-0.237711 0.05551-0.444706 0.174987c-0.497017 0.286875-1.55133 0.808225-2.028119 1.002887-0.209648 0.08559-0.423063 0.20531-0.474259 0.266035-0.05119 0.06073-0.114551 0.08894-0.140792 0.0627-0.06766-0.06766-0.994361 0.235163-0.994361 0.32493 0 0.04083-0.03247 0.05417-0.07215 0.02964-0.102573-0.06339-1.029024 0.211667-1.029024 0.305514 0 0.04285-0.03869 0.05399-0.08598 0.02476-0.109375-0.0676-1.015192 0.131711-1.015192 0.223376 0 0.03771-0.04801 0.05014-0.106691 0.02763-0.05868-0.02252-0.296916-2e-3 -0.529412 0.04555-0.640727 0.131098-1.024492 0.1653-1.901023 0.169423-0.538282 0.0025-0.822376 0.03796-0.866938 0.108112-0.05221 0.0822-0.06656 0.08187-0.06758-0.0015-9.06e-4 -0.07371-0.168576-0.105882-0.551885-0.105882-0.383308 0-0.550982 0.03217-0.551885 0.105882-9.91e-4 0.08089-0.01788 0.07973-0.07156-0.0049-0.07058-0.111288-0.951787-0.133344-1.477044-0.03697-0.300326 0.0551-0.271383 0.238864 0.06755 0.428842 0.139765 0.07834 0.273449 0.167829 0.297076 0.198861 0.06608 0.08679 1.045739 0.61581 2.032336 1.097471 0.489176 0.238819 1.099059 0.539566 1.355294 0.668327s0.713647 0.318548 1.016471 0.42175c0.302823 0.103201 0.626823 0.221555 0.72 0.263007 0.402158 0.178916 0.913288 0.325913 0.983137 0.282743 0.04163-0.02573 0.07569-0.01362 0.07569 0.02691 0 0.06184 0.694934 0.292991 0.974118 0.324008 0.04659 0.0052 0.199059 0.05706 0.338823 0.115304 0.139765 0.05824 0.396843 0.111832 0.571286 0.119091 0.174442 0.0073 0.317383 0.03683 0.317647 0.06572 7.62e-4 0.08327 1.925401 0.43922 2.111594 0.390529 0.0923-0.02414 0.179404-0.0091 0.193562 0.03334 0.02674 0.08022 0.821063 0.174534 1.745427 0.20725 0.294146 0.01041 0.556949 0.04107 0.584008 0.06813 0.07128 0.07128 3.228662 0.04506 4.172955-0.03466z" style="fill:#e70505;stroke-dasharray:1.01783, 0.127228;stroke-linejoin:round;stroke-opacity:.564286;stroke-width:.127228;stroke:#000"/>
 </g>
</svg>
